<?xml version="1.0" standalone="no"?>
<!DOCTYPE svg PUBLIC "-//W3C//DTD SVG 1.1//EN" "http://www.w3.org/Graphics/SVG/1.1/DTD/svg11.dtd" >
<svg xmlns="http://www.w3.org/2000/svg" xmlns:xlink="http://www.w3.org/1999/xlink" version="1.1">
<metadata>
Created by FontForge 20170731 at Tue Jun 30 23:54:50 2015
 By Aleksey,,,
Copyright (c) 2014 by Julieta Ulanovsky. All rights reserved.
</metadata>
<defs>
<font id="TruenoBdOlIt" horiz-adv-x="350" >
  <font-face 
    font-family="Trueno"
    font-weight="700"
    font-style="italic"
    font-stretch="normal"
    units-per-em="1000"
    panose-1="0 0 8 0 0 0 0 0 0 0"
    ascent="800"
    descent="-200"
    x-height="564"
    cap-height="725"
    bbox="-305 -320.333 1503.44 1000"
    underline-thickness="50"
    underline-position="-200"
    unicode-range="U+0020-FB02"
  />
<missing-glyph horiz-adv-x="500" 
d="M29 25h450l93 650h-450zM-25 0l101 700q1 7 6 13t11 9t11 3h500q11 0 17 -8t5 -17l-101 -700q-1 -7 -6 -13t-11 -9t-12 -3h-500q-10 0 -16 8t-5 17zM326 381q-8 -10 -15.5 -13.5t-12 -1.5t-8 5t-4.5 7l-2 3l-133 255q-9 19 -3 28t18 10l11 1h340q22 0 25.5 -9.5
t-3.5 -19.5l-7 -10zM313 440l150 185h-246zM308 336q-8 14 4 28l206 255q15 15 24.5 12t14.5 -14l5 -12l-73 -510q-2 -9 -5 -14.5t-7.5 -7.5t-9.5 -2t-9.5 2t-8.5 3.5t-6 3.5l-2 1zM360 350l91 -172l49 344zM84 25q-22 0 -26 9.5t3 19.5l7 10l207 255q8 10 15.5 13.5t12 1.5
t8 -5t4.5 -7l2 -3l133 -255q8 -19 2.5 -28t-17.5 -10l-11 -1h-340zM138 75h246l-97 185zM112 605q3 19 15 22.5t22 -2.5l11 -6l133 -255q7 -14 -4 -28l-207 -255q-14 -15 -24 -12t-14 14l-5 12zM150 522l-49 -344l139 172z" />
    <glyph glyph-name="fi" unicode="fi" horiz-adv-x="697" 
d="M632 627q31 0 52 18t25 49q4 30 -11.5 48t-45.5 18t-51 -18t-25 -48q-4 -31 11.5 -49t44.5 -18zM625 577q-50 0 -78 33.5t-21 83.5t45 83t88 33t78.5 -33t21.5 -83t-45 -83.5t-89 -33.5zM201 520q-1 -9 -9.5 -17t-19.5 -8h-48l-9 -64h48q9 0 16 -7t6 -18l-55 -381h121
l55 381q1 9 9 17t19 8h97l9 64h-97q-9 0 -16 7t-5 18l5 34q6 40 34 62t65 22q23 0 47 -8l16 82q-36 13 -78 13q-81 0 -137 -41.5t-67 -118.5zM155 545l2 20q15 99 89 154.5t173 55.5q65 0 112 -23q14 -7 11 -24l-26 -137q0 -2 -0.5 -4.5t-3.5 -9t-6.5 -10t-11.5 -3.5t-18 6
q-29 18 -57 18q-20 0 -29.5 -7.5t-12.5 -26.5l-1 -9h97q10 0 16 -8t5 -17l-16 -114q-2 -11 -11 -18t-18 -7h-97l-55 -381q-1 -7 -6 -13t-11 -9t-12 -3h-171q-10 0 -16 8t-5 17l55 381h-48q-11 0 -17 8t-4 17l16 114q1 11 10.5 18t18.5 7h48zM555 514l-70 -489h122l70 489
h-122zM537 564h172q11 0 17 -8t5 -17l-78 -539q-1 -7 -6 -13t-11 -9t-12 -3h-172q-10 0 -16 8t-5 17l78 539q1 7 6 13t11 9t11 3z" />
    <glyph glyph-name="fl" unicode="fl" horiz-adv-x="714" 
d="M201 520q-1 -9 -9.5 -17t-19.5 -8h-47l-10 -63h48q9 0 16 -7t6 -18l-55 -382h121l55 382q1 9 9.5 17t18.5 8h97l10 63h-98q-9 0 -16 7t-5 18l4 27q6 42 37.5 69.5t73.5 26.5q19 -1 38 -8l15 81q-36 11 -78 11q-56 0 -100 -19.5t-70.5 -54.5t-33.5 -81zM155 545l3 27
q14 92 87 149t174 56q67 0 113 -21q15 -7 11 -24l-25 -138q-1 -2 -1.5 -5t-4 -10t-7.5 -10.5t-12 -2.5t-18 9q-20 16 -47 18q-45 1 -52 -46v-2h98q10 0 16 -7.5t5 -17.5l-17 -113q-1 -7 -6 -13t-11 -9t-12 -3h-97l-55 -382q-1 -7 -6 -13t-11 -9t-12 -3h-171q-10 0 -16 8
t-5 17l55 382h-48q-10 0 -16.5 7.5t-4.5 17.5l17 113q2 11 10.5 18t18.5 7h47zM718 717h-123l-99 -692h123zM772 742l-107 -742q-1 -7 -6 -13t-11 -9t-12 -3h-173q-10 0 -16 8t-5 17l107 742q1 5 4 10t7 8t8.5 5t9.5 2h173q10 0 16 -8t5 -17z" />
    <glyph glyph-name=".notdef" horiz-adv-x="500" 
d="M29 25h450l93 650h-450zM-25 0l101 700q1 7 6 13t11 9t11 3h500q11 0 17 -8t5 -17l-101 -700q-1 -7 -6 -13t-11 -9t-12 -3h-500q-10 0 -16 8t-5 17zM326 381q-8 -10 -15.5 -13.5t-12 -1.5t-8 5t-4.5 7l-2 3l-133 255q-9 19 -3 28t18 10l11 1h340q22 0 25.5 -9.5
t-3.5 -19.5l-7 -10zM313 440l150 185h-246zM308 336q-8 14 4 28l206 255q15 15 24.5 12t14.5 -14l5 -12l-73 -510q-2 -9 -5 -14.5t-7.5 -7.5t-9.5 -2t-9.5 2t-8.5 3.5t-6 3.5l-2 1zM360 350l91 -172l49 344zM84 25q-22 0 -26 9.5t3 19.5l7 10l207 255q8 10 15.5 13.5t12 1.5
t8 -5t4.5 -7l2 -3l133 -255q8 -19 2.5 -28t-17.5 -10l-11 -1h-340zM138 75h246l-97 185zM112 605q3 19 15 22.5t22 -2.5l11 -6l133 -255q7 -14 -4 -28l-207 -255q-14 -15 -24 -12t-14 14l-5 12zM150 522l-49 -344l139 172z" />
    <glyph glyph-name=".null" horiz-adv-x="0" 
 />
    <glyph glyph-name="nonmarkingreturn" horiz-adv-x="333" 
 />
    <glyph glyph-name="space" unicode=" " horiz-adv-x="232" 
 />
    <glyph glyph-name="exclam" unicode="!" horiz-adv-x="254" 
d="M266 519l22 152h-114l-22 -152l-9 -254h59zM315 515l-70 -278q-2 -9 -10.5 -15.5t-17.5 -6.5h-104q-10 0 -16 6.5t-6 15.5l10 278q0 2 1 3l25 178q2 11 11 18t18 7h164q11 0 17 -8t4 -17l-25 -178q-1 -1 -1 -3zM150 134q-17 0 -31 -7t-23.5 -20t-11.5 -31q-4 -27 9.5 -43
t39.5 -16q28 0 46 16t22 43t-10 42.5t-41 15.5zM158 184q46 0 73 -30.5t20 -77.5t-42.5 -78t-82.5 -31q-46 0 -72.5 31t-19.5 78t42 77.5t82 30.5z" />
    <glyph glyph-name="quotedbl" unicode="&#x22;" horiz-adv-x="439" 
d="M230 452l32 223h-80l-32 -223h80zM248 402h-130q-11 0 -17 8t-4 17l39 273q1 11 10.5 18t17.5 7h130q11 0 17 -8t5 -17l-39 -273q-2 -7 -6.5 -13t-11 -9t-11.5 -3zM419 452l32 223h-80l-32 -223h80zM437 402h-130q-11 0 -17 8t-4 17l39 273q1 11 10.5 18t17.5 7h130
q11 0 17 -8t5 -17l-39 -273q-2 -11 -11 -18t-18 -7z" />
    <glyph glyph-name="numbersign" unicode="#" horiz-adv-x="735" 
d="M606 421q1 6 5 11t10 8t13 3h114l18 69h-107q-15 0 -19.5 9t-1.5 19l36 135h-74l-37 -141q-2 -6 -6 -11t-10 -8t-12 -3h-140q-15 0 -19.5 9t-1.5 19l36 135h-74l-37 -141q-2 -6 -6 -11t-10 -8t-12 -3h-113l-17 -69h105q14 0 18.5 -9t2.5 -19l-38 -143q-1 -6 -5.5 -11
t-10.5 -8t-12 -3h-114l-18 -69h107q15 0 19.5 -9t1.5 -19l-34 -128h73l36 134q2 9 10.5 15.5t17.5 6.5h139q15 0 19.5 -9t1.5 -19l-34 -128h73l36 134q2 9 10.5 15.5t17.5 6.5h114l18 69h-107q-15 0 -19 9t-2 19zM649 393l-25 -93h106q10 0 17.5 -6.5t3.5 -21.5l-31 -119
q-3 -9 -11 -15.5t-17 -6.5h-114l-36 -134q-1 -6 -6 -11.5t-10.5 -8t-11.5 -2.5h-124q-10 0 -17 6.5t-3 21.5l34 128h-89l-36 -134q-1 -6 -6 -11.5t-10.5 -8t-11.5 -2.5h-124q-10 0 -17 6.5t-3 21.5l34 128h-107q-10 0 -17.5 6.5t-3.5 21.5l31 119q3 9 11 15.5t17 6.5h114
l24 93h-104q-10 0 -17.5 6.5t-3.5 21.5l30 119q2 9 10.5 15.5t17.5 6.5h113l37 141q3 9 11.5 15.5t16.5 6.5h124q11 0 18 -6.5t3 -21.5l-36 -135h90l37 141q3 9 11.5 15.5t16.5 6.5h124q11 0 18 -6.5t3 -21.5l-36 -135h107q6 0 11.5 -2.5t8.5 -9t1 -16.5l-30 -119
q-2 -4 -4.5 -8.5t-6.5 -7.5t-8.5 -4.5t-8.5 -1.5h-115zM510 443q15 0 19 -9t2 -19l-39 -143q-1 -6 -5.5 -11t-10.5 -8t-12 -3h-139q-15 0 -19 9t-2 19l39 143q1 6 5 11t10 8t13 3h139zM474 393h-88l-25 -93h88z" />
    <glyph glyph-name="dollar" unicode="$" horiz-adv-x="644" 
d="M622 208q6 41 -5.5 72t-35 49t-54.5 32.5t-64.5 22.5t-65 19.5t-56 24t-37 34.5t-8.5 51q6 39 38.5 57.5t74.5 18.5q43 0 97.5 -17.5t106.5 -45.5l59 94q-80 49 -188 61q-8 1 -14 8t-4 17l17 118h-82l-18 -123q-1 -8 -8 -15.5t-16 -9.5q-87 -16 -139.5 -62.5
t-62.5 -116.5q-6 -40 5.5 -70t35 -47t55 -30.5t65 -21.5t65 -19.5t56 -23.5t37 -34t8.5 -52q-6 -43 -43 -64.5t-86 -21.5q-55 0 -118 24.5t-113 66.5l-59 -91q39 -33 91 -55.5t109 -31.5q8 -2 13 -9t4 -16l-19 -130h82l19 126q1 9 8.5 16.5t16.5 8.5q97 11 159.5 59
t73.5 127zM672 208q-14 -96 -86 -156t-176 -77l-18 -129q-2 -11 -11 -18t-18 -7h-132q-10 0 -16 8t-5 17l19 134q-130 27 -215 107q-14 12 -2 30l88 137q19 29 40 8q43 -43 107.5 -71t114.5 -28q66 0 72 36q2 14 -12.5 24.5t-39.5 17t-57 15.5t-65.5 19t-64 28.5t-53 42.5
t-32.5 63t-3 88q12 84 74 143t155 81l18 128q2 11 11 18t18 7h132q11 0 17 -8t4 -17l-17 -121q121 -18 203 -77q8 -5 9 -15t-4 -17l-87 -139q-6 -9 -16 -12.5t-21 1.5q-48 31 -105.5 50.5t-95.5 19.5q-52 0 -56 -26q-2 -13 12.5 -23.5t39.5 -17t57 -16.5t65 -20t63.5 -29.5
t53 -44.5t32.5 -64.5t3 -89.5z" />
    <glyph glyph-name="percent" unicode="%" horiz-adv-x="1023" 
d="M325 678q-80 0 -132.5 -49t-65.5 -137q-13 -89 25.5 -138t118.5 -49q53 0 94 21.5t67.5 64t35.5 101.5q13 89 -25 137.5t-118 48.5zM332 728q100 0 150.5 -65t35.5 -171q-16 -107 -85 -172t-169.5 -65t-151.5 65t-35 172q15 106 85 171t170 65zM230 25h101l558 651h-101z
M160 15l601 701q9 10 22 10h162h5t9.5 -2.5t9.5 -6t1.5 -11.5t-11.5 -20l-601 -701q-9 -10 -22 -10h-162h-5t-9.5 2.5t-9.5 6t-1.5 11.5t11.5 20zM319 636q52 0 75 -40.5t14 -103.5t-44 -103.5t-87 -40.5t-75 40.5t-14 103.5q6 41 22.5 73t45 51.5t63.5 19.5zM311.5 586
q-27.5 0 -47 -22.5t-26.5 -71t6 -71.5t40 -23q18 0 32.5 9t25.5 30.5t16 54.5q7 48 -6 71t-40.5 23zM854 395q-80 0 -132.5 -49t-65.5 -137q-13 -89 25.5 -138.5t118.5 -49.5t132 49.5t65 138.5t-25 137.5t-118 48.5zM861 445q50 0 88.5 -17t62.5 -48t33.5 -75t1.5 -96
q-15 -107 -84.5 -172.5t-170 -65.5t-151 65.5t-35.5 172.5q15 106 85 171t170 65zM848 353q52 0 75 -40.5t14 -103.5t-43.5 -104t-87 -41t-75.5 41t-14 104t44 103.5t87 40.5zM840.5 303q-27.5 0 -47 -22.5t-26.5 -71.5t6 -72t40.5 -23t47 23t26.5 72q7 48 -6 71t-40.5 23z
" />
    <glyph glyph-name="ampersand" unicode="&#x26;" horiz-adv-x="685" 
d="M592 5l58 50l-74 81q-5 6 -5 15.5t7 16.5q38 46 68 101l-59 47q-23 -46 -51 -84q-20 -28 -40 -6q-50 57 -95 116q-19 24 13 39q80 38 123.5 76t51.5 94q9 57 -33 94.5t-123 37.5q-83 0 -134.5 -39t-60.5 -104q-10 -65 34 -143q5 -14 0.5 -22.5t-14.5 -13.5
q-66 -34 -104 -71.5t-46 -93.5q-11 -78 41 -128.5t146 -50.5q101 0 193 68q8 6 18 6t16 -7zM567 -48l-72 81q-100 -66 -207 -66q-112 0 -178 64.5t-52 164.5q17 117 157 195q-38 77 -27 149q12 88 82.5 140.5t170.5 52.5q96 0 153 -50.5t45 -131.5q-5 -36 -22 -67.5
t-43.5 -56t-52.5 -41.5t-60 -34q26 -33 55 -66q22 36 40 77q1 1 2 3.5t4.5 7.5t8 7.5t11.5 2t15 -7.5l98 -78q14 -11 5 -29q-30 -59 -71 -111l77 -85q6 -6 5 -17t-10 -19l-99 -85q-9 -7 -19 -7t-16 7zM323 540q6 40 35 68t71 28q38 0 59.5 -24.5t15.5 -61.5
q-6 -44 -39.5 -74t-86.5 -57q-9 -5 -18 -2.5t-13 10.5q-32 61 -24 113zM373 540q-4 -29 10 -65q66 37 71 75q5 36 -33 36q-42 0 -48 -46zM313 88q-54 0 -87 33.5t-25 86.5q9 63 93 113q8 5 17 3.5t14 -7.5q31 -42 121 -147q8 -13 4.5 -22t-12.5 -16q-63 -44 -125 -44z
M320 138q32 0 67 18q-62 73 -91 111q-41 -29 -45 -59q-5 -31 14 -50.5t55 -19.5z" />
    <glyph glyph-name="quotesingle" unicode="'" horiz-adv-x="250" 
d="M230 452l32 223h-80l-32 -223h80zM248 402h-130q-11 0 -17 8t-4 17l39 273q1 11 10.5 18t17.5 7h130q11 0 17 -8t5 -17l-39 -273q-2 -7 -6.5 -13t-11 -9t-11.5 -3z" />
    <glyph glyph-name="parenleft" unicode="(" horiz-adv-x="346" 
d="M306 717q-68 -83 -113.5 -188.5t-61.5 -219.5q-34 -234 57 -408h98q-75 188 -43.5 408t161.5 408h-98zM300 767h155h4t9.5 -2t10 -5.5t2 -11.5t-10.5 -19q-44 -58 -79.5 -124t-61 -142.5t-36.5 -153.5q-16 -121 -1 -226.5t57 -193.5q1 -1 2 -3.5t2.5 -9.5t-0.5 -12
t-9.5 -9t-20.5 -4h-155q-13 0 -19 11q-51 91 -68.5 206t0.5 241q12 83 38.5 163t66.5 152t92 132q9 11 22 11z" />
    <glyph glyph-name="parenright" unicode=")" horiz-adv-x="358" 
d="M198 717q74 -187 42.5 -408t-160.5 -408h99q67 83 112 188t62 220q33 235 -57 408h-98zM162 767h155q13 0 18 -11q51 -91 68.5 -206.5t-0.5 -240.5q-19 -126 -69 -241t-127 -206q-9 -11 -22 -11h-155h-5t-9.5 2t-10 5.5t-2 11.5t10.5 19q67 87 113.5 195.5t63.5 224.5
q15 121 0.5 227t-56.5 193q-1 1 -2 3.5t-2 9.5t0.5 12t9 9t21.5 4z" />
    <glyph glyph-name="asterisk" unicode="*" horiz-adv-x="378" 
d="M274 479q3 22 13 27.5t19 0.5l9 -6l56 -37l22 31l-58 35q-17 12 -15.5 22t12.5 16l10 6l67 33l-13 31l-66 -36q-20 -9 -28 -4.5t-7 15.5l1 11l11 70h-36l-9 -70q-2 -13 -7 -20.5t-10.5 -8t-11 1t-9.5 3.5l-3 3l-54 36l-22 -32l56 -33q17 -12 15.5 -21.5t-11.5 -15.5
l-10 -7l-66 -34l13 -31l65 36q13 7 21 7.5t11 -4t4 -10t0 -10.5l-1 -5l-12 -70h35zM319 435l-7 -50q-1 -11 -9.5 -18.5t-18.5 -7.5h-86q-11 0 -17 7.5t-5 18.5l9 50l-47 -25q-10 -6 -19.5 -3.5t-13.5 11.5l-33 74q-4 9 0.5 19.5t14.5 15.5l47 25l-40 23q-8 5 -9.5 15t4.5 19
l54 77q6 9 16.5 12t19.5 -3l39 -26l7 50q1 10 9.5 17.5t18.5 7.5h86q10 0 16.5 -7.5t5.5 -17.5l-8 -51l47 26q10 5 19.5 2t13.5 -12l33 -75q3 -8 -1 -18.5t-14 -15.5l-48 -23l41 -25q8 -5 9.5 -15t-4.5 -19l-54 -76q-7 -9 -17 -12t-19 3z" />
    <glyph glyph-name="plus" unicode="+" horiz-adv-x="510" 
d="M495 297l8 59h-143q-9 0 -16 7t-5 18l21 143h-59l-21 -143q-1 -6 -5 -11.5t-10.5 -9.5t-13.5 -4h-142l-8 -59h142q9 0 16 -7t5 -18l-20 -143h59l20 143q1 9 9.5 17t19.5 8h143zM513 247h-143l-21 -143q-1 -7 -6 -13t-11 -9t-12 -3h-109q-10 0 -16 8t-5 17l21 143h-142
q-11 0 -17 8t-5 17l16 109q1 11 10.5 18t18.5 7h142l20 143q1 7 6 13t11 9t12 3h109q10 0 16 -8t5 -17l-20 -143h143q10 0 16 -8t5 -17l-16 -109q-1 -11 -10.5 -18t-17.5 -7z" />
    <glyph glyph-name="comma" unicode="," horiz-adv-x="241" 
d="M141 133q-26 0 -44 -15.5t-22 -41.5q-4 -30 15 -44q7 -5 8.5 -13.5t-3.5 -17.5l-41 -72h32l79 95q21 28 25 52q4 28 -9.5 42.5t-39.5 14.5zM148 183q44 0 71.5 -29t20.5 -78q-6 -40 -38 -80l-88 -106q-9 -11 -22 -11h-82q0 1 -4 0t-9 1t-8.5 4.5t-3.5 10.5t7 19l50 90
q-23 29 -17 72q7 46 42 76.5t81 30.5z" />
    <glyph glyph-name="hyphen" unicode="-" horiz-adv-x="374" 
d="M334 277l8 59h-214l-8 -59h214zM352 227h-264q-11 0 -17 8t-5 17l16 109q2 11 11 18t18 7h264q10 0 16 -8t5 -17l-16 -109q-1 -11 -10 -18t-18 -7z" />
    <glyph glyph-name="period" unicode="." horiz-adv-x="243" 
d="M140 134q-27 0 -44.5 -15.5t-21.5 -42.5q-4 -28 9.5 -43.5t40.5 -15.5t45 16t22 43t-10 42.5t-41 15.5zM147.5 184q46.5 0 73.5 -30.5t20 -77.5t-42.5 -78t-82 -31t-73 31t-19.5 78t42 77.5t81.5 30.5z" />
    <glyph glyph-name="slash" unicode="/" horiz-adv-x="353" 
d="M79 -86l431 872h-92l-431 -872h92zM89 -136h-145h-3t-8 1t-8.5 4.5t-4 10t5.5 17.5l455 922q9 17 26 17h145h4t8 -1t8.5 -4.5t4 -10t-5.5 -17.5l-456 -922q-8 -17 -26 -17z" />
    <glyph glyph-name="zero" unicode="0" horiz-adv-x="703" 
d="M450 681q-93 0 -162 -37t-112.5 -110.5t-58.5 -182.5q-24 -164 37 -247.5t201 -83.5q138 0 223 83.5t109 247.5q23 163 -38 246.5t-199 83.5zM457 731q159 0 232 -100.5t48 -279.5q-26 -180 -128 -280.5t-261 -100.5q-161 0 -234 100.5t-47 280.5q25 179 127.5 279.5
t262.5 100.5zM439 601q79 0 106.5 -63t9.5 -187.5t-63.5 -187.5t-125.5 -63q-81 0 -107.5 63t-8.5 188t63 187.5t126 62.5zM431 551q-54 0 -84.5 -42.5t-46.5 -157.5q-8 -60 -8.5 -98.5t10.5 -61.5t28 -32t44 -9q52 0 83 43.5t48 157.5q7 60 7 98.5t-10.5 61t-27 31.5
t-43.5 9z" />
    <glyph glyph-name="one" unicode="1" horiz-adv-x="412" 
d="M293 25l93 651h-257l-13 -93h104q9 0 16 -7t5 -18l-76 -533h128zM310 -25h-178q-10 0 -16 8t-5 17l77 533h-104q-11 0 -17 8t-5 17l21 143q1 7 6 13t11 9t12 3h307q10 0 16 -8t5 -17l-101 -701q-1 -7 -6 -13t-11 -9t-12 -3z" />
    <glyph glyph-name="two" unicode="2" horiz-adv-x="600" 
d="M404 683q-126 0 -264 -88l31 -81q110 75 194 75q45 0 71 -24t20 -65q-9 -60 -94 -137l-280 -258l-11 -80h474l13 91h-270q-22 0 -25 10.5t5 21.5l8 10l164 151q143 129 156 216q6 46 -14.5 81.5t-66.5 56t-111 20.5zM412 733q113 0 180 -56.5t54 -151.5
q-9 -61 -54.5 -122t-120.5 -128l-118 -109h237q5 0 9.5 -2.5t7.5 -6t4 -8t0 -8.5l-20 -141q-1 -7 -6 -13t-11 -9t-12 -3h-524q-10 0 -16 8t-5 17l17 115q1 10 9 17l288 265q31 28 52 57.5t23 45.5q3 19 -8 29t-40 10q-36 0 -86 -22t-101 -61q-27 -20 -37 7l-49 128
q-3 9 0.5 18t11.5 14q162 110 315 110z" />
    <glyph glyph-name="three" unicode="3" horiz-adv-x="558" 
d="M373 391q-21 4 -23 14.5t6 18.5l8 9l194 175l9 66h-412l-12 -86h230q22 0 25 -10.5t-5 -21.5l-8 -10l-172 -155l-8 -60h87q60 0 92.5 -29t24.5 -84q-7 -54 -48 -85t-101 -31q-91 0 -159 69l-59 -87q41 -30 100 -48.5t119 -18.5q113 0 186.5 56.5t86.5 146.5
q10 69 -25 112t-104 54zM434 433q78 -17 120 -73t30 -140q-16 -112 -108 -182.5t-222 -70.5q-76 0 -146.5 24.5t-116.5 65.5q-7 6 -7 15.5t5 16.5l91 135q1 0 1.5 1.5t3 4.5t5 5t6.5 4t7.5 1.5t8.5 -3t9 -8.5q61 -77 146 -77q83 0 92 66q5 33 -12 48t-63 15h-112
q-10 0 -16 8t-5 17l14 95q1 10 9 17l133 120h-196q-11 0 -17 8t-5 17l20 136q1 11 10 18t18 7h462q11 0 17 -8t5 -17l-15 -101q-1 -10 -9 -17z" />
    <glyph glyph-name="four" unicode="4" horiz-adv-x="633" 
d="M249 264q-20 0 -24 9t1 18l6 9l244 375h-116l-270 -408l-12 -88h307q9 0 16 -7t5 -18l-18 -129h115l18 129q1 9 9.5 17t19.5 8h70l12 85h-70q-9 0 -16 7t-5 18l18 125h-115l-18 -125q-2 -9 -10 -17t-19 -8h-148zM297 314h82l18 125q2 11 11 18t18 7h165q11 0 17 -8t4 -17
l-18 -125h70q11 0 17 -8t5 -17l-20 -135q-1 -11 -10.5 -18t-17.5 -7h-70l-19 -129q-1 -7 -6 -13t-11 -9t-12 -3h-165q-10 0 -16 8t-5 17l19 129h-307q-11 0 -17 8t-5 17l17 119q1 6 5 11l282 427q9 14 24 14h171q0 -1 4.5 0t9.5 -1t9 -5t3 -11t-8 -19z" />
    <glyph glyph-name="five" unicode="5" horiz-adv-x="595" 
d="M591 584l13 91h-409l-49 -344q85 4 165 4q39 0 67 -13t42 -38.5t9 -60.5q-8 -55 -49.5 -87t-101.5 -32q-92 0 -161 70l-58 -86q47 -32 108 -51t120 -19q118 0 194.5 59t90.5 158q12 82 -45 134t-168 52h-63q-9 0 -16 7t-6 18l17 113q0 6 4 11.5t10.5 9.5t13.5 4h272z
M609 534h-272l-9 -63h38q127 0 199 -65t57 -171q-18 -121 -112.5 -194t-230.5 -73q-72 0 -145 25t-126 67q-7 5 -7.5 14t4.5 18l91 135q0 1 1.5 3t6 6.5t9 6t11 -0.5t13.5 -10q61 -78 148 -78q84 0 94 69q3 20 -3 33.5t-24 21t-48 7.5q-117 0 -189 -5q-10 -1 -17.5 6
t-5.5 19l57 395q1 11 10.5 18t17.5 7h459q11 0 17 -8t5 -17l-20 -141q-1 -7 -6 -13t-11.5 -9t-11.5 -3z" />
    <glyph glyph-name="six" unicode="6" horiz-adv-x="632" 
d="M463 683q-90 0 -163.5 -41t-121.5 -119t-63 -183q-22 -153 39 -238t191 -85q110 0 182 58.5t87 158.5q13 93 -33 147t-139 54q-102 0 -156 -64q-16 -17 -25.5 -13.5t-13.5 15.5l-5 12q13 96 70 153.5t150 57.5q76 0 133 -35l54 79q-81 43 -186 43zM471 733
q62 0 124 -16.5t106 -45.5q8 -5 9 -15t-5 -18l-86 -124q-6 -9 -15 -12.5t-23 4.5q-49 40 -126 40q-109 0 -147 -97q61 36 141 36q74 0 127 -31.5t75.5 -88.5t12.5 -131q-18 -121 -108 -194t-218 -73q-151 0 -224 101.5t-49 271.5q25 176 136 284.5t270 108.5zM390 355
q57 0 87 -32.5t22 -87.5q-8 -58 -49 -92t-98 -34q-61 0 -90.5 36t-22.5 87q8 54 49.5 88.5t101.5 34.5zM383 305q-42 0 -65.5 -19.5t-28.5 -53.5q-4 -33 12.5 -53t57.5 -20q79 0 90 76q10 70 -66 70z" />
    <glyph glyph-name="seven" unicode="7" horiz-adv-x="594" 
d="M637 584l13 91h-495l-14 -102l96 -67l8 53q1 9 9.5 17t18.5 8h193q19 0 23.5 -9t-0.5 -17l-5 -9l-310 -524h133zM683 569l-342 -579q-8 -15 -25 -15h-188q0 1 -4 0t-8.5 1t-8.5 5t-3.5 10.5t7.5 18.5l309 524h-129l-11 -73q0 -2 -0.5 -5t-3 -9.5t-6.5 -10.5t-12.5 -3.5
t-18.5 7.5l-142 98q-10 7 -8 21l20 141q1 11 10.5 18t17.5 7h545q11 0 17 -8t5 -17l-18 -121q0 -5 -3 -10z" />
    <glyph glyph-name="eight" unicode="8" horiz-adv-x="642" 
d="M418 683q-71 0 -125 -20t-85 -55.5t-37 -82.5q-6 -38 11.5 -72t53.5 -56q18 -13 16 -23t-14 -16l-11 -6q-58 -22 -95 -64t-45 -93q-11 -80 50.5 -129t185.5 -49q83 0 146 23t99 63.5t44 94.5q7 50 -16 91.5t-72 62.5q-19 10 -18 20t12 18l10 7q39 19 63 51.5t30 71.5
q11 74 -42 118.5t-161 44.5zM426 733q122 0 190.5 -57.5t54.5 -155.5q-12 -85 -85 -142q44 -31 64 -78t12 -102q-16 -107 -111.5 -169t-234 -62t-216.5 61t-63 167q8 57 44 105t91 79q-64 61 -51 146q7 48 33 87.5t66.5 66t93 40.5t112.5 14zM410 616q56 0 87 -28t23 -78
q-7 -49 -45.5 -76t-94.5 -27t-87.5 27t-24.5 76q8 50 47 78t95 28zM403 566q-28 0 -46.5 -7t-27 -19t-11.5 -30q-3 -26 12 -39.5t57 -13.5q28 0 46 6.5t26.5 18t10.5 28.5q5 28 -10.5 42t-56.5 14zM368.5 329q64.5 0 100.5 -30.5t28 -85.5q-8 -56 -52.5 -86.5t-109.5 -30.5
t-100 30.5t-27 86.5q8 55 52 85.5t108.5 30.5zM361 279q-94 0 -103 -66q-3 -22 3.5 -36.5t26.5 -22.5t54 -8q51 0 75.5 17t29.5 50q4 32 -15.5 49t-70.5 17z" />
    <glyph glyph-name="nine" unicode="9" horiz-adv-x="632" 
d="M273 18q136 0 230.5 92t117.5 251q15 102 -8 175t-79.5 110.5t-142.5 37.5q-73 0 -130.5 -26.5t-93 -75.5t-45.5 -115q-13 -93 33 -147t139 -54q102 0 156 64q16 17 25.5 13.5t13.5 -15.5l5 -12q-13 -96 -70 -153.5t-150 -57.5q-75 0 -133 35l-54 -79q81 -43 186 -43z
M265 -32q-62 0 -124 16.5t-106 45.5q-8 5 -9 15t5 18l86 124q6 9 15 12.5t23 -4.5q50 -40 126 -40q109 0 147 97q-61 -36 -141 -36q-113 0 -172 69.5t-43 181.5q18 121 108 194t218 73q151 0 224 -101.5t49 -271.5q-25 -176 -136 -284.5t-270 -108.5zM346 346
q-57 0 -87 32.5t-22 87.5q6 39 26.5 67.5t52 43.5t68.5 15q61 0 90.5 -36t22.5 -87q-8 -54 -49.5 -88.5t-101.5 -34.5zM353 396q28 0 48.5 9.5t31 25.5t14.5 38q4 33 -12.5 53t-57.5 20q-79 0 -90 -76q-10 -70 66 -70z" />
    <glyph glyph-name="colon" unicode=":" horiz-adv-x="240" 
d="M183 431q-27 0 -44.5 -15.5t-21.5 -42.5q-4 -28 9 -43.5t40 -15.5t45.5 16t22.5 43t-10 42.5t-41 15.5zM190 481q31 0 54 -14t33.5 -38.5t6.5 -55.5q-7 -47 -42.5 -78t-82.5 -31t-73 31t-19 78q6 47 41.5 77.5t81.5 30.5zM140 134q-27 0 -44.5 -15.5t-21.5 -42.5
q-4 -28 9.5 -43.5t40.5 -15.5t45 16t22 43t-10 42.5t-41 15.5zM147.5 184q46.5 0 73.5 -30.5t20 -77.5t-42.5 -78t-82 -31t-73 31t-19.5 78t42 77.5t81.5 30.5z" />
    <glyph glyph-name="semicolon" unicode=";" horiz-adv-x="242" 
d="M166 314q27 0 45.5 16t22.5 43t-10 42.5t-41 15.5t-44.5 -15.5t-21.5 -42.5q-4 -28 9 -43.5t40 -15.5zM159 264q-47 0 -73 31t-19 78q6 47 41.5 77.5t81.5 30.5q31 0 54 -14t33.5 -38.5t6.5 -55.5q-7 -47 -42.5 -78t-82.5 -31zM141 133q-26 0 -44 -15.5t-22 -41.5
q-4 -30 15 -44q7 -5 8.5 -13.5t-3.5 -17.5l-41 -72h32l79 95q21 28 25 52q4 28 -9.5 42.5t-39.5 14.5zM148 183q44 0 71.5 -29t20.5 -78q-6 -40 -38 -80l-88 -106q-9 -11 -22 -11h-82q0 1 -4 0t-9 1t-8.5 4.5t-3.5 10.5t7 19l50 90q-23 29 -17 72q7 46 42 76.5t81 30.5z" />
    <glyph glyph-name="less" unicode="&#x3c;" horiz-adv-x="510" 
d="M520 474l10 68l-418 -165l-15 -105l370 -164l10 66l-298 127q-9 3 -13 8t-4 9t2 8.5t6 8t7.5 6.5t5.5 5l3 1zM549 434l-290 -110l258 -110q15 -6 13 -23l-18 -121q0 -2 -0.5 -4t-2.5 -8.5t-6 -9.5t-11 -5t-18 4l-417 185q-15 6 -12 23l20 139q2 17 18 23l471 185
q2 1 4.5 2t8.5 2t10.5 -0.5t7 -8t0.5 -18.5l-17 -122q-3 -17 -19 -23z" />
    <glyph glyph-name="equal" unicode="=" horiz-adv-x="510" 
d="M510 405l9 59h-394l-9 -59h394zM528 355h-444q-10 0 -16.5 8t-4.5 17l15 109q1 7 6 13t11.5 9t11.5 3h444q11 0 17 -8t4 -17l-15 -109q-1 -5 -4 -10t-7.5 -8t-9 -5t-8.5 -2zM479 190l9 59h-394l-9 -59h394zM497 140h-444q-10 0 -16 8t-5 17l15 109q2 11 11 18t18 7h444
q11 0 17 -8t4 -17l-15 -109q-2 -11 -11 -18t-18 -7z" />
    <glyph glyph-name="greater" unicode="&#x3e;" horiz-adv-x="510" 
d="M83 182l-10 -68l419 165l15 105l-371 165l-10 -67l299 -127q9 -3 13.5 -8t4.5 -9t-2 -8.5t-6 -8t-7.5 -6.5t-6.5 -5l-2 -1zM55 222l290 110l-259 110q-14 6 -12 23l17 121q0 2 0.5 4t2.5 8.5t6 9.5t11.5 5t17.5 -4l419 -185q14 -6 12 -23l-20 -139q-3 -17 -19 -23
l-472 -185q-1 -1 -3.5 -2t-8.5 -2t-10.5 0.5t-7.5 8t-1 18.5l18 122q2 17 19 23z" />
    <glyph glyph-name="question" unicode="?" horiz-adv-x="472" 
d="M185 500q12 43 43 67t72 24q43 0 66.5 -23.5t17.5 -66.5q-4 -32 -19.5 -58t-35 -44.5t-39 -36.5t-37 -43t-25.5 -55h80q11 35 33 63.5t45.5 48.5t47 40.5t41 49t22.5 63.5q7 48 -9.5 81t-56.5 50.5t-102 17.5q-91 0 -149 -45.5t-79 -131.5zM201 450l-133 1
q-10 0 -16.5 7.5t-4.5 17.5q18 117 96 184.5t193 67.5q108 0 166.5 -52t44.5 -147q-7 -48 -28 -87t-47.5 -63.5t-52 -46t-44.5 -45t-23 -48.5q-1 -11 -10 -18t-18 -7h-129q-11 0 -17 8t-5 17q7 48 25.5 86t39.5 60.5t42 41t36 37t18 37.5q3 23 -5.5 31.5t-35.5 8.5
q-28 0 -43 -14t-21 -52q-1 -7 -5.5 -13t-10.5 -9t-12 -3zM245 134q-27 0 -44.5 -15.5t-21.5 -42.5q-4 -28 9.5 -43.5t40.5 -15.5t45 16t22 43t-10 42.5t-41 15.5zM252.5 184q46.5 0 73.5 -30.5t20 -77.5t-42.5 -78t-82 -31t-73 31t-19.5 78t42 77.5t81.5 30.5z" />
    <glyph glyph-name="at" unicode="@" horiz-adv-x="917" 
d="M771 483l-47 -326q-1 -6 -1.5 -10t0 -6.5t0.5 -4.5t1.5 -2.5t2 -0.5h3h2.5q9 0 24 13.5t31.5 47t22.5 77.5q18 127 -39 212zM740 519q-71 66 -191 66q-132 0 -238 -92.5t-125 -224.5q-19 -130 55.5 -215.5t205.5 -85.5q27 0 56.5 5.5t62 18t59.5 29.5q-31 17 -44 49
q-66 -55 -148 -55q-98 0 -160 72.5t-46 183.5q15 107 89.5 183.5t177.5 76.5q60 0 107 -33q3 10 11.5 16t16.5 6h111zM669 5l30 -70q4 -8 0.5 -17.5t-11.5 -14.5q-53 -35 -125 -56t-136 -21q-126 0 -221.5 57.5t-140.5 158.5t-27 226q18 126 95 231.5t193 165.5t243 60
q128 0 223.5 -58t139.5 -161.5t25 -231.5q-17 -119 -88 -195t-168 -76q-16 0 -32 2zM562 675q-114 0 -217.5 -53.5t-172 -147t-84.5 -206.5q-10 -66 1 -126.5t40.5 -108.5t73.5 -83.5t103.5 -54.5t127.5 -19q49 0 107 15t103 40l-16 36q-91 -50 -188 -50q-99 0 -173.5 45.5
t-110 126t-20.5 179.5q10 75 49 143t95.5 117t128.5 78t148 29q156 0 240 -98q87 -102 63 -266q-11 -77 -48.5 -132.5t-86.5 -55.5q-18 0 -31 9t-18.5 26t-1.5 39l45 312h-72l-4 -28q-3 -15 -15 -18t-23 2l-11 5q-4 6 -15.5 16.5t-37 22t-54.5 11.5q-80 0 -138.5 -60
t-71.5 -150q-13 -91 36.5 -148.5t126.5 -57.5q82 0 141 69q16 18 26 15.5t14 -14.5l3 -11l1 -12q4 -40 43 -53q17 -5 41 -5q73 0 128.5 59t69.5 162q17 115 -22 206.5t-123.5 143t-199.5 51.5zM503 419q59 0 87.5 -43t19.5 -102q-8 -61 -48.5 -106t-99.5 -45
q-57 0 -83.5 45.5t-17.5 106.5q8 58 47.5 101t94.5 43zM496 369q-30 0 -54.5 -26t-30.5 -68q-7 -45 10 -73.5t48 -28.5q34 0 59.5 27.5t31.5 73.5q7 43 -11 69t-53 26z" />
    <glyph glyph-name="A" unicode="A" horiz-adv-x="770" 
d="M557 154q17 0 21 -16l28 -113h135l-180 650h-150l-374 -650h128l61 113q8 16 25 16h306zM533 104h-272l-61 -113q-9 -16 -26 -16h-183q0 1 -4 0t-8.5 1t-8.5 5t-3.5 10.5t6.5 18.5l403 700q9 15 25 15h183q17 0 21 -15l194 -700q1 -2 1.5 -4t1 -8t-1.5 -10.5t-9.5 -8.5
t-19.5 -4h-190q-17 0 -21 16zM546 273q4 -17 -3 -25.5t-16 -8.5h-10h-202q-17 0 -22 8.5t0 17.5l4 8l139 259q13 20 23.5 20t16.5 -10l7 -10zM488 289l-40 165l-89 -165h129z" />
    <glyph glyph-name="B" unicode="B" horiz-adv-x="715" 
d="M192 675l-93 -650h318q116 0 186.5 46t81.5 123q9 60 -18.5 100.5t-83.5 51.5q-9 2 -12 8t-0.5 12.5t6 13t7.5 11.5l4 4q50 14 82 48.5t39 81.5q6 44 -15 77.5t-71.5 53t-124.5 19.5h-306zM174 725h331q125 0 196 -53.5t58 -146.5q-3 -19 -9 -37t-15 -34t-21 -30.5
t-26 -27t-30 -22.5q45 -26 65 -73.5t12 -106.5q-15 -102 -105 -160.5t-221 -58.5h-343q-10 0 -16 8t-5 17l101 700q1 11 10.5 18t17.5 7zM303 564q2 9 10 17t19 8h144q47 0 74.5 -25.5t21.5 -70.5t-41.5 -71.5t-82.5 -26.5h-144q-9 0 -16 7t-5 18zM350 539l-14 -94h119
q60 0 67 48q2 15 -2.5 25t-17 15.5t-33.5 5.5h-119zM264 292q1 9 9.5 17t19.5 8h144q56 0 90 -26.5t27 -74.5q-7 -50 -48.5 -77t-98.5 -27h-144q-4 0 -8 2t-7.5 5t-5 8t-0.5 10zM310 267l-15 -105h119q82 0 90 54q3 23 -14.5 37t-60.5 14h-119z" />
    <glyph glyph-name="C" unicode="C" horiz-adv-x="692" 
d="M496 681q-150 0 -263 -94t-133 -235q-21 -144 62.5 -239.5t231.5 -95.5q66 0 137.5 28t131.5 76l-59 74q-94 -72 -185 -72q-94 0 -147.5 67t-39.5 164q14 96 86.5 162t166.5 66q46 0 89 -20.5t75 -57.5l81 82q-43 44 -105.5 69.5t-128.5 25.5zM503 731q55 0 108 -15.5
t97.5 -43.5t76.5 -67q6 -7 4.5 -16.5t-7.5 -16.5l-121 -122q-23 -23 -38 0q-26 38 -65.5 60t-79.5 22q-73 0 -129 -50.5t-67 -127.5q-11 -78 30 -129.5t114 -51.5q25 0 54.5 9t59 26t55.5 39q8 8 18.5 8t17.5 -8l88 -110q6 -7 4 -17.5t-9 -16.5q-70 -62 -157.5 -99
t-169.5 -37q-110 0 -193 50.5t-121.5 138.5t-22.5 196q15 107 80 194t163.5 136t209.5 49z" />
    <glyph glyph-name="D" unicode="D" horiz-adv-x="767" 
d="M192 675l-93 -650h269q159 0 269.5 90t130.5 235q14 96 -18.5 170t-105.5 114.5t-176 40.5h-276zM174 725h301q175 0 271 -104.5t72 -270.5q-23 -166 -151.5 -270.5t-306.5 -104.5h-294q-10 0 -16 8t-5 17l101 700q1 11 10.5 18t17.5 7zM303 558q2 9 10 17t19 8h119
q96 0 148.5 -66t37.5 -168q-14 -101 -83 -166.5t-162 -65.5h-127q-9 0 -16 7t-6 18zM350 533l-53 -366h102q71 0 123.5 49.5t64.5 132.5t-28 133.5t-115 50.5h-94z" />
    <glyph glyph-name="E" unicode="E" horiz-adv-x="674" 
d="M677 585l13 90h-498l-93 -650h509l13 90h-356q-9 0 -16 7t-6 18l20 141q2 9 10 17t19 8h309l13 90h-309q-9 0 -16 7t-5 18l20 139q1 9 9.5 17t18.5 8h345zM695 535h-345l-13 -89h309q11 0 17 -8t5 -17l-21 -140q-1 -11 -10 -18t-18 -7h-309l-13 -91h356q10 0 16 -8t5 -17
l-20 -140q-1 -5 -4 -10t-7 -8t-9 -5t-9 -2h-559q-10 0 -16 8t-5 17l101 700q1 11 10.5 18t17.5 7h548q11 0 17 -8t5 -17l-20 -140q-1 -7 -6 -13t-11 -9t-12 -3z" />
    <glyph glyph-name="F" unicode="F" horiz-adv-x="604" 
d="M648 585l13 90h-469l-93 -650h128l33 233q1 9 9.5 17t19.5 8h289l13 90h-289q-6 0 -11 3t-8.5 9t-2.5 13l24 162q1 9 9.5 17t18.5 8h316zM666 535h-316l-16 -112h289q11 0 17 -8t4 -17l-20 -140q-1 -7 -6 -13t-11 -9t-11 -3h-289l-34 -233q-1 -7 -6 -13t-11 -9t-12 -3
h-178q-10 0 -16 8t-5 17l101 700q1 11 10.5 18t17.5 7h519q11 0 17 -8t5 -17l-20 -140q-1 -7 -6 -13t-11 -9t-12 -3z" />
    <glyph glyph-name="G" unicode="G" horiz-adv-x="743" 
d="M608 331l-23 -156q-2 -15 -17 -22q-78 -37 -140 -37q-98 0 -154.5 67.5t-42.5 166.5q15 98 90 165t172 67q98 0 174 -66l80 83q-45 38 -108.5 60t-130.5 22q-156 0 -272 -94.5t-137 -236.5q-13 -94 21 -170t108 -119.5t172 -43.5q65 0 142 22t136 57l34 235h-104z
M590 381h154q11 0 17 -8t4 -17l-39 -273q-2 -13 -14 -20q-66 -43 -153.5 -69.5t-165.5 -26.5q-111 0 -195.5 50t-124 137.5t-24 195t82 195t167.5 137t216 49.5q83 0 160 -29.5t127 -80.5q7 -7 6 -17t-8 -18l-118 -121q-7 -8 -17.5 -9t-18.5 7q-30 32 -73.5 50.5t-86.5 18.5
q-76 0 -134.5 -52t-70.5 -130q-11 -79 33 -131.5t121 -52.5q43 0 102 25l24 165q2 11 11 18t18 7z" />
    <glyph glyph-name="H" unicode="H" horiz-adv-x="786" 
d="M695 25l93 650h-128l-38 -263q-1 -9 -9.5 -17t-18.5 -8h-290q-6 0 -11 3t-8.5 9t-2.5 13l38 263h-128l-93 -650h128l35 247q1 9 9.5 17t19.5 8h290q9 0 16 -7t5 -18l-35 -247h128zM712 -25h-178q-10 0 -16 8t-5 17l36 247h-240l-36 -247q-1 -7 -6 -13t-11 -9t-12 -3h-178
q-10 0 -16 8t-5 17l101 700q1 11 10.5 18t17.5 7h178q11 0 17 -8t5 -17l-38 -263h240l38 263q1 7 6 13t11 9t11 3h178q11 0 17 -8t5 -17l-101 -700q-1 -7 -6 -13t-11 -9t-12 -3z" />
    <glyph glyph-name="I" unicode="I" horiz-adv-x="318" 
d="M227 25l93 650h-128l-93 -650h128zM244 -25h-178q-10 0 -16 8t-5 17l101 700q1 11 10.5 18t17.5 7h178q11 0 17 -8t5 -17l-101 -700q-1 -7 -6 -13t-11 -9t-12 -3z" />
    <glyph glyph-name="J" unicode="J" horiz-adv-x="536" 
d="M421 676l-64 -445q-7 -50 -38.5 -80.5t-77.5 -30.5q-69 0 -133 65l-66 -79q74 -89 196 -89q104 0 168.5 54.5t79.5 155.5l64 449h-129zM404 726h179q10 0 16 -8t5 -17l-68 -474q-18 -121 -100.5 -190.5t-204.5 -69.5q-154 0 -242 121q-11 14 2 30l100 119q21 25 39 3
q19 -23 41 -39.5t41.5 -23.5t35.5 -7q26 0 40 13.5t19 47.5l68 470q2 11 11 18t18 7z" />
    <glyph glyph-name="K" unicode="K" horiz-adv-x="747" 
d="M543 25h153l-198 371q-8 16 7 31l258 248h-138l-303 -295q-19 -15 -28 -11.5t-11 16.5l-3 12l40 278h-128l-93 -650h128l21 147q1 10 9 17l107 103q25 24 39 -3zM503 -14l-131 248l-76 -72l-23 -162q-1 -7 -6 -13t-11 -9t-12 -3h-178q-10 0 -16 8t-5 17l101 700
q1 11 10.5 18t17.5 7h178q11 0 17 -8t5 -17l-34 -237l261 254q8 8 19 8h206q2 0 3.5 -0.5t6 -1.5t8 -3t6.5 -5t3.5 -7t-3 -10.5t-11.5 -14.5l-287 -275l210 -394q1 -2 2 -4.5t2 -9t-0.5 -12t-9 -9.5t-21.5 -4h-213q-13 0 -19 11z" />
    <glyph glyph-name="L" unicode="L" horiz-adv-x="560" 
d="M266 124q-9 0 -16 7t-6 18l76 526h-128l-93 -650h425l14 99h-272zM298 174h272q11 0 17 -8t4 -17l-21 -149q-1 -7 -6 -13t-11 -9t-12 -3h-475q-10 0 -16 8t-5 17l101 700q1 11 10.5 18t17.5 7h178q11 0 17 -8t5 -17z" />
    <glyph glyph-name="M" unicode="M" horiz-adv-x="910" 
d="M818 25l93 651h-153l-241 -402q-7 -13 -14.5 -17.5t-13 -2t-9.5 6.5t-6 8l-2 5l-126 402h-154l-93 -651h109l62 430q2 15 14 17.5t24 -2.5l11 -5l108 -370h83l215 370q10 14 20.5 11.5t18.5 -11.5l8 -10l-61 -430h107zM835 -25h-157q-10 0 -16 7.5t-5 17.5l48 336
l-160 -276q-9 -15 -26 -15h-116q-16 0 -20 15l-81 275l-48 -335q-1 -5 -4 -10t-7 -8t-9 -5t-9 -2h-159q-10 0 -16 8t-5 17l101 701q2 11 11 18t18 7h195q16 0 20 -15l115 -367l220 367q9 15 25 15h194q10 0 16 -8t5 -17l-101 -701q-1 -5 -4 -10t-7 -8t-9 -5t-9 -2z" />
    <glyph glyph-name="N" unicode="N" horiz-adv-x="786" 
d="M695 25l93 650h-116l-58 -407q-3 -20 -15 -24t-22 3l-11 6l-254 422h-120l-93 -650h117l58 406q3 20 15 24t22 -3l10 -6l254 -421h120zM712 -25h-157q-12 0 -18 10l-224 371l-51 -356q-1 -5 -4 -10t-7 -8t-9 -5t-9 -2h-167q-10 0 -16 8t-5 17l101 700q1 11 10.5 18
t17.5 7h157q13 0 19 -10l224 -372l52 357q1 11 10.5 18t17.5 7h166q11 0 17 -8t5 -17l-101 -700q-1 -7 -6 -13t-11 -9t-12 -3z" />
    <glyph glyph-name="O" unicode="O" horiz-adv-x="805" 
d="M500 681q-153 0 -266.5 -94t-133.5 -236q-21 -143 65.5 -238.5t238.5 -95.5q153 0 267.5 95.5t135.5 238.5q20 142 -67 236t-240 94zM507 731q113 0 198.5 -49t126 -136.5t25.5 -194.5q-16 -108 -81.5 -196t-165.5 -138t-213 -50q-112 0 -197.5 50t-125.5 138t-24 196
q15 108 80.5 195t165 136t211.5 49zM488 582q92 0 146 -67t39.5 -165t-87.5 -166t-165 -68t-148 68t-41.5 166t89 165t167.5 67zM481 532q-72 0 -130 -52t-70 -130q-5 -38 4 -72.5t29 -59t50 -38.5t64 -14q70 0 127 52.5t68 131.5q8 52 -9 94t-52 65t-81 23z" />
    <glyph glyph-name="P" unicode="P" horiz-adv-x="680" 
d="M192 675l-93 -650h128l24 172q2 9 10 17t19 8h127q126 0 200 60.5t91 173.5q10 71 -12 119.5t-75.5 74t-138.5 25.5h-280zM174 725h305q143 0 215 -71t54 -198q-13 -88 -59.5 -152.5t-120.5 -98t-168 -33.5h-102l-25 -172q-1 -7 -6 -13t-11 -9t-12 -3h-178q-10 0 -16 8
t-5 17l101 700q1 11 10.5 18t17.5 7zM304 560q1 9 9.5 17t18.5 8h118q67 0 102.5 -35.5t26.5 -99.5q-10 -65 -55.5 -101.5t-112.5 -36.5h-118q-6 0 -11 3t-8 9t-2 13zM350 535l-25 -173h93q51 0 77.5 21.5t33.5 66.5q6 44 -14.5 64.5t-71.5 20.5h-93z" />
    <glyph glyph-name="Q" unicode="Q" horiz-adv-x="810" 
d="M743 -14q-69 -42 -118 -42q-59 0 -96 57q-8 15 -4.5 23.5t12.5 12.5l8 3q104 37 175 120.5t87 190.5q20 142 -67 236t-240 94t-266.5 -94t-133.5 -236q-10 -69 6.5 -130t55 -105t98 -70.5t131.5 -28.5q15 -1 20 -14q22 -68 70 -105.5t112 -37.5q93 0 179 58zM780 34
l47 -110q7 -17 -10 -31q-33 -26 -72.5 -44.5t-80 -28.5t-78.5 -10q-77 0 -134 42.5t-84 115.5q-160 10 -250.5 118t-67.5 265q15 108 80.5 195t165 136t211.5 49q113 0 198.5 -49t126 -136.5t25.5 -194.5q-17 -113 -88 -204t-176 -138q18 -15 39 -15q18 0 48.5 12.5
t63.5 35.5q6 6 18 5.5t18 -13.5zM231.5 350q14.5 98 89 165t167.5 67q92 0 146 -67t39.5 -165t-87.5 -166t-165 -68t-148 68t-41.5 166zM281 350q-5 -38 4 -72.5t29 -59t50 -38.5t64 -14q70 0 127 52.5t68 131.5q8 52 -9 94t-52 65t-81 23q-72 0 -130 -52t-70 -130z" />
    <glyph glyph-name="R" unicode="R" horiz-adv-x="724" 
d="M511 25h141l-95 193q-6 12 0 21.5t15 13.5q122 57 143 203q10 70 -12.5 119t-78.5 74.5t-144 25.5h-288l-93 -650h128l24 172q2 9 10 17t19 8h140q15 0 20 -13zM468 -12l-70 184h-100l-25 -172q-1 -7 -6 -13t-11 -9t-12 -3h-178q-10 0 -16 8t-5 17l101 700q1 11 10.5 18
t17.5 7h313q147 0 221.5 -70.5t56.5 -198.5q-23 -159 -151 -234l103 -209q1 -1 2 -3.5t2 -9.5t-0.5 -12t-9 -9t-21.5 -4h-202q-15 0 -20 13zM293 312q-6 0 -11 3t-8 9t-2 13l32 223q1 9 9.5 17t18.5 8h135q67 0 102 -35.5t26 -99.5q-5 -32 -19.5 -58.5t-36 -43.5t-50 -26.5
t-61.5 -9.5h-135zM325 362h110q50 0 76.5 21.5t33.5 66.5q6 44 -14 64.5t-71 20.5h-110z" />
    <glyph glyph-name="S" unicode="S" horiz-adv-x="644" 
d="M437 683q-119 0 -193.5 -51t-86.5 -135q-6 -40 5.5 -70t35 -47t55 -30.5t65 -21.5t65 -19.5t56 -23.5t37 -34t8.5 -52q-6 -43 -43 -64.5t-86 -21.5q-55 0 -118 24.5t-113 66.5l-59 -91q53 -43 125.5 -68.5t149.5 -25.5q75 0 135.5 22t99 65t47.5 102q6 41 -5.5 72t-35 49
t-54.5 32.5t-64.5 22.5t-65 19.5t-56 24t-37 34.5t-8.5 51q6 39 38.5 57.5t74.5 18.5q43 0 97.5 -17.5t106.5 -45.5l59 94q-46 29 -108 46t-127 17zM445 733q78 0 151.5 -22t125.5 -60q8 -5 9 -15t-4 -17l-87 -139q-6 -9 -16 -12.5t-21 1.5q-48 31 -105.5 50.5t-95.5 19.5
q-52 0 -56 -26q-2 -13 12.5 -23.5t39.5 -17t57 -16.5t65 -20t63.5 -29.5t53 -44.5t32.5 -64.5t3 -89.5q-11 -77 -62 -132t-122.5 -81t-154.5 -26q-92 0 -176.5 31.5t-142.5 86.5q-14 12 -2 30l88 137q19 29 40 8q43 -43 107.5 -71t114.5 -28q66 0 72 36q2 14 -12.5 24.5
t-39.5 17t-57 15.5t-65.5 19t-64 28.5t-53 42.5t-32.5 63t-3 88q15 109 109.5 172.5t228.5 63.5z" />
    <glyph glyph-name="T" unicode="T" horiz-adv-x="611" 
d="M664 582l13 94h-548l-13 -94h184q9 0 16 -7t5 -18l-76 -532h128l76 532q2 9 10 17t19 8h186zM682 532h-186l-77 -532q-1 -7 -6 -13t-11 -9t-12 -3h-178q-10 0 -16 8t-5 17l77 532h-184q-11 0 -17 8t-5 17l21 144q1 7 6 13t11 9t12 3h598q10 0 16 -8t5 -17l-21 -144
q-1 -11 -10.5 -18t-17.5 -7z" />
    <glyph glyph-name="U" unicode="U" horiz-adv-x="758" 
d="M772 675h-127l-55 -381q-11 -80 -64 -129t-127 -49q-75 0 -116 49t-30 129l55 381h-128l-55 -381q-18 -128 51 -202.5t207 -74.5t227 74t107 203zM826 700l-59 -406q-21 -149 -128 -238t-263 -89q-157 0 -239.5 89t-61.5 238l59 406q1 11 10.5 18t17.5 7h178q11 0 17 -8
t5 -17l-59 -406q-8 -61 20 -94.5t83 -33.5q53 0 89.5 33.5t44.5 94.5l59 406q1 7 6 13t11 9t11 3h177q11 0 17 -8t5 -17z" />
    <glyph glyph-name="V" unicode="V" horiz-adv-x="729" 
d="M442 25l349 650h-129l-245 -498q-6 -12 -13 -17t-13 -2.5t-11 6.5t-7 9l-3 4l-102 498h-135l159 -650h150zM451 -25h-184q-17 0 -21 16l-171 700q0 1 -0.5 3.5t-0.5 8.5t2 10.5t9 8t18 3.5h190q8 0 14 -5t8 -12l91 -447l219 447q9 17 26 17h183q0 -1 4 0t8.5 -1t8.5 -5
t3.5 -10.5t-5.5 -17.5l-376 -700q-9 -16 -26 -16z" />
    <glyph glyph-name="W" unicode="W" horiz-adv-x="1081" 
d="M843 25l308 650h-128l-202 -496q-7 -17 -19 -17t-21 8l-8 9l-61 496h-135l-201 -496q-7 -17 -19 -17t-21 8l-8 9l-61 496h-136l119 -650h147l194 466q4 10 10.5 14t13 2t12 -5.5t8.5 -7.5l4 -4l58 -465h146zM853 -25h-183q-8 0 -14 5.5t-7 13.5l-49 394l-165 -395
q-2 -5 -6.5 -9.5t-10 -6.5t-10.5 -2h-184q-8 0 -14 5t-7 12l-128 700q0 1 -0.5 2t-0.5 4.5t0.5 6.5t2 7t4.5 6.5t9 4.5t13 2h190q6 0 11 -2.5t7.5 -7t3.5 -9.5l52 -423l171 423q3 9 11 14t15 5h174q6 0 11 -2.5t7.5 -7t3.5 -9.5l52 -423l172 423q3 9 11 14t15 5h182h4t8 -1
t8 -4.5t4 -10t-5 -17.5l-331 -700q-9 -17 -27 -17z" />
    <glyph glyph-name="X" unicode="X" horiz-adv-x="734" 
d="M506 352q-8 14 4 28l247 295h-148l-156 -193q-8 -10 -15 -13.5t-11.5 -1.5t-8 5t-5.5 7l-1 3l-100 193h-146l163 -303q8 -14 -4 -28l-268 -319h145l174 212q13 15 23 15t15 -8l4 -7l113 -212h152zM559 366l191 -352q1 -1 2 -4t2 -9.5t-0.5 -12t-9 -9.5t-21.5 -4h-213
q-13 0 -19 11l-102 192l-158 -192q-9 -11 -23 -11h-207h-5t-9.5 2t-9.5 6t-1.5 12t11.5 19l289 344l-177 328q-1 1 -2 4t-2.5 9.5t0.5 12t9.5 9.5t20.5 4h207q14 0 20 -11l89 -173l139 173q9 11 22 11h209h5.5t10 -2t9.5 -6t1.5 -12t-11.5 -19z" />
    <glyph glyph-name="Y" unicode="Y" horiz-adv-x="680" 
d="M439 226q0 6 4 12l298 437h-122l-200 -292q-8 -12 -15.5 -16.5t-12.5 -2t-8.5 6.5t-5.5 8l-2 4l-119 292h-122l176 -442q2 -6 1 -12l-28 -196h127zM488 220l-32 -220q-1 -7 -6 -13t-11 -9t-12 -3h-177q-10 0 -16 8t-5 17l31 215l-188 473q0 1 -0.5 2.5t-1.5 5t-1.5 7t1 8
t4.5 7.5t9.5 5t15.5 2h178q15 0 20 -13l109 -265l182 265q9 13 23 13h178q0 -1 4.5 0t9.5 -1t9 -5t3 -11t-9 -20z" />
    <glyph glyph-name="Z" unicode="Z" horiz-adv-x="675" 
d="M701 595l11 80h-549l-13 -91h337q22 0 25.5 -10.5t-4.5 -20.5l-8 -10l-432 -438l-11 -80h568l13 91h-355q-22 0 -25.5 10.5t4.5 20.5l7 10zM741 570l-397 -404h326q5 0 9.5 -2.5t7.5 -6t4 -8t0 -8.5l-20 -141q-1 -7 -6 -13t-11 -9t-12 -3h-618q-10 0 -16 8t-5 17l16 114
q2 9 9 16l398 404h-308q-11 0 -17 8t-4 17l20 141q1 11 10.5 18t17.5 7h599q11 0 17 -8t5 -17l-17 -114q-1 -9 -8 -16z" />
    <glyph glyph-name="bracketleft" unicode="[" horiz-adv-x="362" 
d="M411 639l11 78h-224l-117 -816h224l11 78h-95q-9 0 -16 7t-5 18l87 610q2 9 10 17t19 8h95zM429 589h-95l-81 -560h95q11 0 17 -8t5 -17l-19 -128q-1 -11 -10.5 -18t-17.5 -7h-274q-11 0 -17 8t-5 17l125 866q1 11 10.5 18t18.5 7h274q10 0 16 -8t5 -17l-19 -128
q-1 -7 -5.5 -13t-11 -9t-11.5 -3z" />
    <glyph glyph-name="backslash" unicode="\" horiz-adv-x="455" 
d="M254 786h-92l179 -872h92zM300 819l190 -922l0.5 -1.5t0.5 -5v-6.5t-2 -7t-5 -6.5t-9 -4.5t-14 -2h-145q-8 0 -13.5 5t-7.5 12l-190 922q0 1 -0.5 3.5t-0.5 8t2.5 10t9.5 8t17 3.5h145q6 0 10.5 -2.5t7.5 -6t4 -8.5z" />
    <glyph glyph-name="bracketright" unicode="]" horiz-adv-x="433" 
d="M441 717h-224l-11 -78h95q9 0 16 -7t5 -18l-87 -610q-2 -9 -10 -17t-19 -8h-95l-11 -78h224zM495 742l-125 -866q-1 -11 -10.5 -18t-17.5 -7h-274q-11 0 -17 8t-5 17l19 128q1 7 5.5 13t11 9t11.5 3h95l81 560h-95q-11 0 -17 8t-5 17l19 128q1 5 4 10t7 8t8.5 5t9.5 2
h274q10 0 16 -8t5 -17z" />
    <glyph glyph-name="asciicircum" unicode="^" horiz-adv-x="575" 
d="M460 163h66l-113 337h-107l-211 -337h66l166 274q8 13 15.5 17.5t12.5 2.5t9.5 -6.5t6.5 -8.5l2 -5zM416 128l-76 239l-145 -239q-9 -15 -25 -15h-122h-2.5t-5 0.5t-7 1.5t-6.5 3.5t-4 6t1 10t7 14.5l242 387q9 14 24 14h139q16 0 21 -14l129 -387q1 -2 1.5 -4t1 -8.5
t-1.5 -11t-9 -8.5t-20 -4h-122q-16 0 -20 15z" />
    <glyph glyph-name="underscore" unicode="_" horiz-adv-x="583" 
d="M532 -179l7 44h-533l-7 -44h533zM550 -229h-583q-11 0 -17 8t-4 17l13 94q2 11 11 18t18 7h583q10 0 16 -8t5 -17l-13 -94q-1 -5 -4 -10t-7.5 -8t-9 -5t-8.5 -2z" />
    <glyph glyph-name="grave" unicode="`" 
d="M348 625l-55 113l-102 -34l79 -79h78zM386 575h-132q-9 0 -16 6l-113 113q-2 1 -3.5 3t-4.5 7.5t-3 10.5t6 11t19 11l164 55q4 1 8.5 1t8 -1.5t6.5 -4t5 -6.5l82 -168q0 -1 1.5 -3.5t2.5 -9.5t-1 -12t-9.5 -9t-20.5 -4z" />
    <glyph glyph-name="a" unicode="a" horiz-adv-x="600" 
d="M386 522q-105 0 -224 -49l19 -67q87 36 154 36q59 0 90 -29.5t24 -80.5l-1 -8q-2 -9 -10 -17t-19 -8h-142q-182 -1 -202 -138q-6 -43 7.5 -75t47.5 -50.5t84 -18.5q100 0 154 60q7 8 13 11t10 2t7.5 -3.5t6 -7t4 -8t1.5 -6.5l1 -3l-5 -37h119l47 327q11 81 -36 125.5
t-150 44.5zM393 572q119 0 181 -58.5t48 -161.5l-51 -352q-1 -7 -6 -13t-11 -9t-12 -3h-169q-10 0 -16 8t-5 17l1 5q-62 -38 -146 -38q-94 0 -144 54t-38 140q13 88 82.5 137.5t176.5 50.5h116q-4 43 -73 43q-66 0 -155 -42q-9 -5 -19.5 -2t-13.5 14l-32 114q-3 9 2 19
t15 14q145 63 269 63zM277 84q-44 0 -69 24.5t-19 64.5q6 41 37.5 62t77.5 21h109q9 0 16 -7t5 -18l-7 -48q0 -3 -1 -6q-11 -28 -34.5 -49.5t-53.5 -32.5t-61 -11zM284 134q33 0 58.5 15t35.5 37l3 20h-84q-33 0 -44 -7.5t-14 -25.5q-3 -19 7.5 -29t37.5 -10z" />
    <glyph glyph-name="b" unicode="b" horiz-adv-x="685" 
d="M483 520q-89 0 -151 -67q-7 -8 -13 -11t-10 -2t-7.5 3.5t-6 7t-3.5 8t-2 6.5l-1 3l36 249h-123l-99 -692h123l6 47q3 21 15 24.5t22 -2.5l10 -7q42 -68 136 -68q102 0 172.5 67t86.5 181q17 116 -35.5 184.5t-155.5 68.5zM490 570q125 0 189.5 -84.5t44.5 -218.5
q-19 -132 -106 -215t-210 -83q-81 0 -134 43l-2 -12q-1 -7 -6 -13t-11 -9t-12 -3h-173q-10 0 -16 8t-5 17l107 742q1 11 10.5 18t18.5 7h173q10 0 16 -8t5 -17l-31 -215q65 43 142 43zM381 106q-64 0 -97 47.5t-23 118.5q10 70 57 117.5t111 47.5q65 0 98.5 -47.5
t23.5 -117.5q-10 -71 -57.5 -118.5t-112.5 -47.5zM388 156q43 0 74 31t39 85q8 53 -14.5 84t-64.5 31q-41 0 -72 -31t-39 -84q-8 -54 14 -85t63 -31z" />
    <glyph glyph-name="c" unicode="c" horiz-adv-x="562" 
d="M379 520q-116 0 -195.5 -68.5t-95.5 -183.5q-17 -113 42.5 -181t174.5 -68q143 0 223 92l-76 49q-51 -53 -126 -53q-61 0 -92.5 46t-21.5 116q10 69 54.5 115t106.5 46q68 0 108 -48l90 50q-57 88 -192 88zM386 570q57 0 104.5 -15.5t83 -45.5t54.5 -72q4 -9 0.5 -19
t-13.5 -15l-135 -75q-9 -5 -18.5 -3t-13.5 9q-26 46 -82 46q-39 0 -68 -29.5t-36 -81.5q-8 -54 12 -83t60 -29q61 0 95 48q6 9 16.5 12t19.5 -2l115 -74q8 -6 9 -15.5t-5 -18.5q-46 -66 -121 -102t-165 -36q-135 0 -207.5 83t-52.5 216q19 134 116 218t232 84z" />
    <glyph glyph-name="d" unicode="d" horiz-adv-x="686" 
d="M690 717h-123l-36 -249q-3 -21 -14.5 -24.5t-21.5 2.5l-11 7q-42 68 -136 68q-67 0 -121.5 -30t-90.5 -86.5t-47 -132.5q-17 -117 35 -185.5t156 -68.5q90 0 152 68q16 16 25.5 12.5t13.5 -15.5l3 -12l-6 -46h123zM744 742l-107 -742q-1 -5 -4 -10t-7 -8t-9 -5t-9 -2
h-173q-10 0 -16 8t-5 17l2 11q-65 -43 -144 -43q-124 0 -188 85t-45 219q13 87 56.5 155t111 106t148.5 38q82 0 135 -44l31 215q1 7 6 13t11 9t12 3h173q10 0 16 -8t5 -17zM334 102q-65 0 -98.5 47.5t-23.5 118.5q11 71 57.5 118t111.5 47t98.5 -47t23 -118t-57 -118.5
t-111.5 -47.5zM341 152q42 0 73 31t38.5 85t-14 84.5t-64.5 30.5q-28 0 -51 -13.5t-39.5 -39.5t-21.5 -62t3.5 -62.5t28 -40t47.5 -13.5z" />
    <glyph glyph-name="e" unicode="e" horiz-adv-x="602" 
d="M467 198h-204q21 -50 83 -50q64 0 119 48zM498 198l2 -2l78 -89q6 -7 4.5 -17.5t-8.5 -17.5q-110 -103 -268 -103q-141 0 -214.5 82.5t-53.5 216.5q19 135 116.5 218.5t232.5 83.5q13 0 26 -1q138 -8 195 -102t26 -246q-1 -5 -4 -9t-7 -7t-8.5 -5t-8.5 -2h-108zM380 520
q-77 0 -139.5 -31t-102 -88t-50.5 -133q-17 -114 43 -181.5t182 -67.5q121 0 209 70l-48 55q-64 -46 -135 -46q-56 0 -91.5 31.5t-42.5 87.5q-1 11 2 18t10 9.5t10 3t7 0.5h355q20 131 -32.5 201.5t-176.5 70.5zM237 291q-12 0 -17.5 6t-4.5 12.5t1 10.5q12 37 34 66
t54 46.5t68 17.5q57 0 87.5 -37.5t22.5 -96.5q-2 -9 -10 -17t-19 -8h-216zM277 341h155q-5 59 -67 59q-57 0 -88 -59z" />
    <glyph glyph-name="f" unicode="f" horiz-adv-x="386" 
d="M418 588q-36 1 -41 -34l-2 -14h97q10 0 16 -8t5 -17l-16 -114q-2 -11 -11 -18t-18 -7h-97l-54 -376q-1 -7 -6 -13t-11 -9t-12 -3h-171q-10 0 -16 8t-5 17l54 376h-48q-10 0 -16 8t-5 17l16 114q2 11 11 18t18 7h48l3 25q15 98 89 154t173 56q93 0 157 -41q8 -5 9.5 -15.5
t-4.5 -17.5l-78 -121q-17 -27 -39 -9q-20 17 -46 17zM426 638q26 0 51 -12l48 75q-51 24 -114 24q-81 0 -137 -42t-67 -118l-7 -50q-1 -6 -4.5 -11.5t-10 -9.5t-13.5 -4h-48l-10 -64h48q9 0 16 -7t6 -18l-54 -376h121l54 376q1 6 4.5 11.5t10 9.5t13.5 4h97l10 64h-97
q-9 0 -16 7t-6 18l6 39q5 39 33.5 62t65.5 22z" />
    <glyph glyph-name="g" unicode="g" horiz-adv-x="647" 
d="M633 514h-122l-6 -41q-3 -21 -14.5 -24.5t-22.5 2.5l-10 7q-39 63 -130 62q-60 0 -110 -27.5t-83 -80t-43 -122.5q-16 -108 32.5 -172t140.5 -64q88 0 144 62q7 8 13 11t10 2t7.5 -3.5t5.5 -7t3.5 -8t2.5 -6.5l1 -3l-9 -57q-9 -62 -58 -99t-119 -37q-82 0 -151 43
l-48 -72q87 -55 200 -55q123 0 203.5 61t95.5 164zM687 539l-71 -490q-18 -125 -117.5 -200t-239.5 -75q-142 0 -243 75q-7 6 -7.5 15.5t4.5 16.5l77 117q5 9 14 13t23 -3q65 -50 146 -50q53 0 83.5 22.5t36.5 61.5q-61 -38 -135 -38q-114 0 -174 80t-42 206
q18 123 99.5 201.5t193.5 78.5q78 1 129 -39l1 8q1 11 10 18t18 7h172q11 0 17 -8t5 -17zM319 129q-62 0 -94.5 44.5t-22.5 111.5t55 112t107 45q61 0 92.5 -44.5t21.5 -112.5q-6 -43 -28 -78.5t-56.5 -56.5t-74.5 -21zM326 179q39 0 67 28.5t35 77.5q7 51 -12.5 79
t-59.5 28q-39 0 -68 -28.5t-36 -78.5q-5 -33 3 -57t26.5 -36.5t44.5 -12.5z" />
    <glyph glyph-name="h" unicode="h" horiz-adv-x="678" 
d="M503 522q-110 -1 -171 -85q-8 -9 -15 -11.5t-12 1.5t-9.5 9t-6.5 9l-2 5l38 267h-123l-99 -692h123l34 241q10 65 53 109t104 44q55 0 82.5 -35.5t19.5 -91.5l-38 -267h123l45 315q12 85 -27 133.5t-119 48.5zM510 572q100 0 152 -64t37 -168l-49 -340q-1 -7 -6 -13
t-11 -9t-12 -3h-173q-10 0 -16 8t-5 17l42 292q11 77 -59 77q-39 0 -66 -27.5t-34 -75.5l-38 -266q-1 -7 -6 -13t-11 -9t-12 -3h-173q-10 0 -16 8t-5 17l107 742q1 11 10.5 18t18.5 7h173q10 0 16 -8t5 -17l-32 -224q69 53 163 54z" />
    <glyph glyph-name="i" unicode="i" horiz-adv-x="311" 
d="M266 760q-30 0 -51 -18t-25 -48q-4 -31 11.5 -49t44.5 -18q15 0 28 4.5t23 13.5t16.5 21.5t8.5 27.5q3 20 -3 35t-20 23t-33 8zM272.5 810q49.5 0 78 -33t21.5 -83t-45 -83.5t-88 -33.5t-78 33.5t-21 83.5t45 83t87.5 33zM220 25l70 489h-122l-70 -489h122zM237 -25h-172
q-10 0 -16 8t-5 17l78 539q1 11 10 18t18 7h172q11 0 17 -8t5 -17l-78 -539q-1 -7 -6 -13t-11 -9t-12 -3z" />
    <glyph glyph-name="j" unicode="j" horiz-adv-x="319" 
d="M267 760q-34 0 -56.5 -18.5t-26.5 -48.5q-2 -14 1 -26.5t11.5 -21t21.5 -13.5t29 -5q34 0 56.5 18.5t26.5 47.5q4 30 -12.5 48.5t-50.5 18.5zM274 810q52 0 82.5 -33t23.5 -84q-5 -33 -25 -59.5t-50 -41.5t-65 -15q-52 0 -82.5 33t-23.5 83q7 51 47.5 84t92.5 33z
M293 514h-123l-75 -519q-5 -38 -30 -61.5t-60 -22.5q-23 0 -45 9l-38 -74q42 -22 101 -22q77 -1 130 41t64 119zM347 539l-80 -555q-15 -99 -86 -155t-166 -55q-85 0 -142 39q-16 10 -6 30l61 121q15 28 38 12q24 -15 47 -15q15 0 22 6.5t10 27.5l79 544q1 11 10 18t18 7
h173q11 0 17 -8t5 -17z" />
    <glyph glyph-name="k" unicode="k" horiz-adv-x="630" 
d="M319 225q27 25 40 -5l81 -195h146l-138 294q-8 16 7 30l182 165h-127l-197 -181q-18 -15 -27 -11.5t-12 16.5l-2 12l53 367h-123l-99 -692h123l17 122q2 10 10 17zM324 166l-32 -29l-20 -137q-1 -7 -6 -13t-11 -9t-12 -3h-173q-10 0 -16 8t-5 17l107 742q1 11 10.5 18
t18.5 7h173q10 0 16 -8t5 -17l-47 -329l155 143q8 8 19 8h196q2 0 5.5 -1t10 -4t9.5 -7t0.5 -12t-13.5 -18l-212 -193l148 -316q1 -1 2 -4t2 -9.5t-0.5 -11.5t-9 -9t-21.5 -4h-205q-14 0 -20 13z" />
    <glyph glyph-name="l" unicode="l" horiz-adv-x="321" 
d="M226 25l99 692h-123l-99 -692h123zM243 -25h-173q-10 0 -16 8t-5 17l107 742q1 11 10.5 18t18.5 7h173q10 0 16 -8t5 -17l-107 -742q-1 -7 -6 -13t-11 -9t-12 -3z" />
    <glyph glyph-name="m" unicode="m" horiz-adv-x="1037" 
d="M864 522q-121 -1 -182 -107q-13 -20 -23.5 -19.5t-16.5 10.5l-7 11q-10 50 -46.5 77.5t-94.5 27.5q-108 -1 -168 -85q-7 -9 -14.5 -11.5t-12.5 1.5t-9.5 9t-6.5 9l-2 5l9 64h-122l-70 -489h122l34 242q6 41 26.5 75.5t54 55.5t73.5 22q54 0 80.5 -35.5t18.5 -92.5
l-38 -267h123l34 242q10 64 51 107.5t101 45.5q54 0 81 -35.5t19 -92.5l-38 -267h122l45 315q12 85 -26 133.5t-117 48.5zM871 572q99 0 150 -64t36 -168l-49 -340q-1 -7 -6 -13t-11 -9t-12 -3h-172q-10 0 -16 8t-5 17l42 292q11 77 -56 78q-37 -1 -63 -28.5t-33 -74.5
l-38 -267q-1 -7 -6 -13t-11 -9t-12 -3h-173q-10 0 -16 8t-5 17l42 292q11 77 -55 78q-25 -1 -45.5 -13.5t-34 -35.5t-18.5 -54l-38 -267q-1 -7 -6 -13t-11 -9t-12 -3h-172q-10 0 -16 8t-5 17l78 539q1 11 10 18t18 7h172q11 0 17 -8t5 -17l-3 -20q68 52 160 53
q59 0 102.5 -24.5t65.5 -68.5q78 92 202 93z" />
    <glyph glyph-name="n" unicode="n" horiz-adv-x="673" 
d="M497 522q-109 -1 -170 -84q-14 -15 -23.5 -12t-15.5 14l-6 11l9 63h-123l-70 -489h123l37 260q0 1 1 3q14 57 55.5 94t97.5 37q54 0 82 -35.5t20 -91.5l-38 -267h122l45 315q12 85 -27 133.5t-119 48.5zM504 572q100 0 152 -64t37 -168l-49 -340q-1 -7 -6 -13t-11 -9
t-12 -3h-172q-10 0 -16 8t-5 17l42 292q6 38 -9.5 57.5t-49.5 19.5q-24 0 -43.5 -10t-33 -29.5t-20.5 -45.5l-41 -284q-1 -7 -6 -13t-11 -9t-12 -3h-173q-10 0 -16 8t-5 17l78 539q1 11 10 18t18 7h173q11 0 17 -8t5 -17l-3 -20q69 52 162 53z" />
    <glyph glyph-name="o" unicode="o" horiz-adv-x="637" 
d="M394 520q-124 0 -207 -68t-99.5 -182t47 -182.5t187.5 -68.5q123 0 205.5 68.5t99 182.5t-46.5 182t-186 68zM401 570q142 0 218.5 -82.5t57.5 -217.5t-120 -218t-242 -83q-142 0 -219.5 83t-58 218t120.5 217.5t243 82.5zM381 433q65 0 98.5 -47t23.5 -118
q-11 -71 -58 -118t-111 -47q-65 0 -99 47t-23 118q10 71 57 118t112 47zM374 383q-43 0 -74 -30.5t-38 -84.5q-6 -36 3 -62.5t28.5 -39.5t47.5 -13q42 0 73 30.5t39 84.5q7 54 -15 84.5t-64 30.5z" />
    <glyph glyph-name="p" unicode="p" horiz-adv-x="685" 
d="M483 520q-89 0 -151 -67q-7 -8 -13 -11t-10 -2t-7.5 3.5t-6 7t-3.5 8t-2 6.5l-1 3l7 46h-123l-98 -683h123l34 241q3 21 15 24.5t22 -2.5l10 -7q42 -68 136 -68q102 0 172.5 67t86.5 181q17 116 -35.5 184.5t-155.5 68.5zM490 570q125 0 189.5 -84.5t44.5 -218.5
q-19 -132 -106 -215t-210 -83q-81 0 -134 43l-30 -206q-1 -11 -10.5 -18t-18.5 -7h-173q-10 0 -16 8t-5 17l106 733q1 11 10 18t18 7h173q11 0 17 -8t5 -17l-2 -12q65 43 142 43zM381 106q-64 0 -97 47.5t-23 118.5q10 70 57 117.5t111 47.5q65 0 98.5 -47.5t23.5 -117.5
q-10 -71 -57.5 -118.5t-112.5 -47.5zM388 156q43 0 74 31t39 85q8 53 -14.5 84t-64.5 31q-41 0 -72 -31t-39 -84q-8 -54 14 -85t63 -31z" />
    <glyph glyph-name="q" unicode="q" horiz-adv-x="686" 
d="M661 514h-123l-7 -46q-3 -21 -14.5 -24.5t-21.5 2.5l-11 7q-42 68 -136 68q-67 0 -121.5 -30t-90.5 -86.5t-47 -132.5q-17 -117 35 -185.5t156 -68.5q90 0 152 68q16 16 25.5 12.5t13.5 -15.5l3 -12l-34 -240h123zM715 539l-106 -733q-1 -11 -10.5 -18t-18.5 -7h-173
q-10 0 -16 8t-5 17l30 205q-65 -43 -144 -43q-124 0 -188 85t-45 219q13 87 56.5 155t111 106t148.5 38q82 0 135 -44l2 12q1 11 10 18t18 7h173q11 0 17 -8t5 -17zM334 102q-65 0 -98.5 47.5t-23.5 118.5q11 71 57.5 118t111.5 47t98.5 -47t23 -118t-57 -118.5
t-111.5 -47.5zM341 152q42 0 73 31t38.5 85t-14 84.5t-64.5 30.5q-28 0 -51 -13.5t-39.5 -39.5t-21.5 -62t3.5 -62.5t28 -40t47.5 -13.5z" />
    <glyph glyph-name="r" unicode="r" horiz-adv-x="427" 
d="M291 514h-123l-70 -489h123l36 252q0 1 1 3q10 41 38 72t68 48t88 17l15 103q-87 -11 -141 -85q-7 -9 -14 -11.5t-12.5 1.5t-9.5 9t-6 9l-2 5zM345 539l-3 -22q69 54 157 55q10 0 16.5 -7t5.5 -18l-23 -156q-1 -10 -9 -18t-21 -7q-65 6 -107 -19.5t-54 -71.5l-40 -275
q-1 -7 -6 -13t-11 -9t-12 -3h-173q-10 0 -16 8t-5 17l78 539q1 11 10 18t18 7h173q11 0 17 -8t5 -17z" />
    <glyph glyph-name="s" unicode="s" horiz-adv-x="513" 
d="M337 522q-59 0 -105 -17t-74.5 -50t-35.5 -79q-6 -39 11 -66t46 -39t63.5 -23.5t64 -21t47.5 -29t13 -48.5q-4 -32 -32 -47t-60 -15q-90 0 -174 56l-42 -66q80 -59 202 -59q93 0 153 39.5t70 107.5q5 34 -7 58t-35 38t-52 24t-58 18.5t-52.5 18.5t-36.5 27.5t-10 41.5
q5 31 31 46.5t56 15.5q67 0 153 -45l46 68q-83 46 -182 46zM344 572q126 0 226 -64q8 -6 9 -16t-5 -18l-75 -112q-6 -9 -16.5 -12t-18.5 2q-88 51 -151 51q-28 0 -30 -12q0 -5 15 -10t39 -10.5t53 -13.5t57 -23.5t50 -36t32.5 -55t4.5 -77.5q-9 -63 -50.5 -108.5t-101 -67
t-129.5 -21.5q-151 0 -245 81q-7 6 -7 15.5t4 15.5l71 110q3 5 8.5 9t13.5 5.5t16 -5.5q80 -62 168 -62q34 0 35 12q1 6 -10 11t-30 8.5t-43 10.5t-49 16t-48 25t-39.5 36t-24 51t-1.5 69q9 63 49.5 108t98 66.5t124.5 21.5z" />
    <glyph glyph-name="t" unicode="t" horiz-adv-x="435" 
d="M383 116q-30 -10 -51 -10q-35 -1 -52 22t-12 62l31 211q1 6 4.5 11.5t10 9.5t13.5 4h116l10 64h-116q-9 0 -16 7t-6 18l18 124h-122l-18 -125q-1 -6 -4.5 -11.5t-10 -9.5t-14.5 -4h-50l-9 -63h50q9 0 16 -7t6 -18l-35 -238q-10 -71 26 -108.5t107 -37.5q62 0 118 25z
M430 156l16 -120q1 -8 -3.5 -16.5t-11.5 -12.5q-75 -40 -163 -40q-89 0 -139 52t-37 144l31 213h-50q-10 0 -16 8t-5 17l16 113q1 7 6 13t11 9t12 3h50l18 125q1 11 10 18t18 7h172q11 0 17 -8t5 -17l-18 -124h116q10 0 16 -8t5 -17l-16 -114q-2 -11 -11 -18t-18 -7h-116
l-27 -186q-3 -23 1 -28.5t19 -5.5q20 0 60 16q7 5 18.5 1.5t13.5 -17.5z" />
    <glyph glyph-name="u" unicode="u" horiz-adv-x="663" 
d="M643 514h-123l-35 -241q-9 -64 -50 -108t-102 -45q-52 0 -78 36t-18 92l38 266h-123l-45 -315q-13 -85 25.5 -133t116.5 -48q105 0 165 84q5 7 10.5 10t9.5 2t8 -3t7 -6t5.5 -7.5t3.5 -5.5l1 -3l-9 -64h123zM697 539l-78 -539q-1 -7 -6 -13t-11 -9t-12 -3h-173
q-10 0 -16 8t-5 17l3 19q-67 -51 -158 -51q-98 0 -148.5 64t-35.5 167l49 340q1 11 10 18t18 7h173q11 0 17 -8t5 -17l-42 -291q-11 -77 53 -78q25 1 45 13t33 35t17 55l39 266q1 11 10 18t18 7h173q11 0 17 -8t5 -17z" />
    <glyph glyph-name="v" unicode="v" horiz-adv-x="571" 
d="M361 25l255 489h-117l-164 -363q-11 -19 -21.5 -19t-18.5 9l-8 10l-58 363h-124l114 -489h142zM371 -25h-177q-17 0 -21 16l-125 539q0 2 -1 4t-0.5 8t2.5 10.5t9 8t18 3.5h178q8 0 14 -5t8 -13l48 -303l137 303q8 18 26 18h172q0 -1 4 0t8.5 -1t8 -5t3.5 -10t-5 -18
l-281 -539q-8 -16 -26 -16z" />
    <glyph glyph-name="w" unicode="w" horiz-adv-x="937" 
d="M733 25l249 489h-114l-155 -355q-8 -18 -20 -18t-20 9l-8 9l-55 355h-127l-154 -355q-8 -18 -20 -18t-20 9l-8 9l-55 355h-121l108 -489h136l147 324q9 19 21 19t19 -9l8 -10l54 -324h135zM743 -25h-171q-8 0 -14 5t-7 13l-44 265l-120 -265q-8 -18 -27 -18h-172
q-17 0 -21 16l-119 539q0 2 -1 4t-0.5 8t2.5 10.5t9 8t18 3.5h176q9 0 14.5 -5t7.5 -13l44 -291l127 291q7 18 26 18h165q9 0 14.5 -5t7.5 -13l44 -292l128 292q8 18 26 18h169q0 -1 4 0t8.5 -1t8 -5t3.5 -10t-5 -18l-275 -539q-8 -16 -26 -16z" />
    <glyph glyph-name="x" unicode="x" horiz-adv-x="606" 
d="M379 371q-9 -11 -16.5 -15t-12 -2t-8 6t-5.5 8l-1 3l-62 143h-138l115 -224q7 -14 -4 -28l-193 -237h130l125 158q15 16 24.5 16t13.5 -9l5 -8l68 -157h138l-123 238q-7 14 4 28l178 223h-129zM367 433l91 119q9 12 23 12h189h5t9.5 -2t10 -5.5t2 -11.5t-10.5 -20
l-198 -248l136 -263q1 -2 2 -4.5t2 -9t-0.5 -12t-9 -9.5t-21.5 -4h-199q-14 0 -19 12l-59 134l-107 -135q-9 -11 -23 -11h-190h-5t-9.5 2t-9.5 5.5t-1.5 12t10.5 19.5l213 262l-127 249q-1 2 -2 4.5t-2.5 9t0.5 12t9.5 9.5t20.5 4h198q15 0 20 -12z" />
    <glyph glyph-name="y" unicode="y" horiz-adv-x="580" 
d="M624 514h-117l-160 -341q-6 -12 -13 -16.5t-13 -2.5t-11 6t-8 8l-3 4l-76 342h-123l138 -492q3 -11 -3 -21l-17 -27q-36 -57 -98 -57q-33 0 -61 18l-57 -75q51 -37 118 -37q46 0 82.5 14t66.5 42.5t55 73.5zM687 530l-319 -595q-90 -162 -255 -162q-94 0 -163 60
q-7 6 -7 16t5 17l89 118q7 9 16 12t22 -5q26 -24 52 -24q31 0 49 29l10 17l-145 516q0 2 -1 4t-1 8t2 10.5t9 8.5t19 4h178q18 0 21 -16l66 -291l136 290q8 17 26 17h172q0 -1 4 0t8.5 -1t8.5 -5t3.5 -10.5t-5.5 -17.5z" />
    <glyph glyph-name="z" unicode="z" horiz-adv-x="553" 
d="M554 444l10 70h-421l-11 -80h230q22 0 25 -10.5t-5 -20.5l-8 -10l-301 -298l-10 -70h440l11 80h-248q-14 0 -20.5 4.5t-5.5 10.5t3.5 12t6.5 10l3 4zM594 419l-266 -264h218q11 0 17 -8t5 -17l-19 -130q-1 -7 -6 -13t-11 -9t-12 -3h-490q-10 0 -16 8t-5 17l15 104
q1 9 8 16l267 264h-200q-10 0 -16 8t-5 17l19 130q1 7 6 13t11 9t11 3h471q11 0 17 -8t5 -17l-15 -104q-2 -9 -9 -16z" />
    <glyph glyph-name="braceleft" unicode="{" horiz-adv-x="356" 
d="M308 551q12 82 101 89l11 78h-42q-91 0 -123.5 -23t-42.5 -91l-27 -186q-5 -37 -27 -54q-17 -14 -45 -14h-14l-11 -82h14q26 0 40 -14q17 -17 12 -55l-27 -185q-10 -68 16 -91.5t117 -23.5h42l12 79q-43 3 -62 26t-13 63l17 121q7 49 -3.5 68t-47.5 29q-7 1 -10 5t-3 8
t2 9t5 9.5t6 8.5t5 6l3 2q39 9 55 28t23 68zM358 551l-17 -122q-13 -86 -64 -120q41 -36 29 -121l-17 -121q-4 -16 -1.5 -25t14.5 -12t44 -3q11 0 17 -8t4 -17l-18 -128q-2 -11 -11 -18t-18 -7h-67q-103 0 -146 39t-30 126l27 185q2 14 0 18q-3 1 -10 1h-39q-10 0 -16 8
t-5 17l19 132q1 5 4 10t7 8t9 5t9 2h39q7 0 9 1q3 4 5 17l27 186q13 87 66.5 125.5t157.5 38.5h67q10 0 16 -8t5 -17l-18 -127q-1 -7 -6 -13t-11 -9t-12 -3q-31 0 -45 -4t-17.5 -10.5t-6.5 -25.5z" />
    <glyph glyph-name="bar" unicode="|" horiz-adv-x="299" 
d="M177 -85l124 863h-79l-124 -863h79zM195 -135h-129q-11 0 -17 8t-5 17l132 913q1 11 10 18t18 7h129q11 0 17 -8t5 -17l-132 -913q-1 -11 -10.5 -18t-17.5 -7z" />
    <glyph glyph-name="braceright" unicode="}" horiz-adv-x="391" 
d="M409 350h-13q-28 0 -42 14q-16 17 -11 54l27 186q10 68 -16 91t-118 23h-41l-11 -78q87 -7 75 -89l-17 -122q-6 -32 -2.5 -51.5t15.5 -29t38 -16.5q9 -2 11.5 -8t0 -12.5t-7 -13t-8.5 -10.5l-4 -4q-40 -9 -55.5 -28t-22.5 -68l-17 -121q-12 -82 -101 -89l-12 -79h41
q91 0 124 23.5t43 91.5l27 185q5 38 27 55q18 14 46 14h13zM463 375l-19 -132q-2 -11 -11 -18t-18 -7h-38q-7 0 -10 -1q-3 -4 -5 -18l-27 -185q-13 -87 -66.5 -126t-157.5 -39h-66q-10 0 -16 8t-5 17l18 128q1 7 6 13t11 9t12 3q31 0 45 4t17.5 11t6.5 25l17 121
q12 85 64 120q-42 35 -29 121l17 122q2 12 2.5 20t-5.5 12.5t-18 6t-36 1.5q-10 0 -16.5 8t-4.5 17l18 127q1 7 6 13t11 9t12 3h66q103 0 146 -38.5t30 -125.5l-27 -186q-2 -13 0 -17q3 -1 11 -1h38q10 0 16 -8t5 -17z" />
    <glyph glyph-name="asciitilde" unicode="~" horiz-adv-x="510" 
d="M225 387q-28 0 -47 -10.5t-34 -37.5t-24 -72h68q9 24 28 36q15 10 33 10q28 0 64.5 -25.5t65.5 -25.5q41 0 66 27t38 93h-67q-7 -20 -24 -33t-38 -13q-27 0 -64 25.5t-65 25.5zM232 437q35 0 65 -12.5t46.5 -25.5t18.5 -13h1q2 0 3 0.5t3 5.5t4 15q1 11 10 18t18 7h115
q11 0 17 -8t5 -17q-9 -60 -29.5 -103t-55.5 -67.5t-81 -24.5q-36 0 -65.5 13t-46 25.5t-18.5 12.5h-3q-5 -4 -7 -21q-2 -11 -11 -18t-18 -7h-116q-10 0 -16 8t-5 17q13 92 54.5 143.5t111.5 51.5z" />
    <glyph glyph-name="nbspace" unicode="&#xa0;" horiz-adv-x="232" 
 />
    <glyph glyph-name="exclamdown" unicode="&#xa1;" horiz-adv-x="254" 
d="M194 404q27 0 45 15.5t22 42.5q4 28 -10 44t-40 16q-27 0 -45 -16t-22 -44q-4 -27 9.5 -42.5t40.5 -15.5zM187 354q-47 0 -73.5 30.5t-19.5 77.5q6 47 41.5 78.5t82.5 31.5t73 -31.5t20 -78.5q-7 -47 -42.5 -77.5t-81.5 -30.5zM79 20l-22 -153h114l22 153l9 253h-59z
M30 24l69 277q3 9 11.5 15.5t17.5 6.5h104q9 0 15.5 -6.5t5.5 -15.5l-10 -277v-3l-26 -179q-1 -5 -4 -10t-7 -8t-8.5 -5t-8.5 -2h-164q-11 0 -17 8t-5 17l26 179q0 1 1 3z" />
    <glyph glyph-name="cent" unicode="&#xa2;" horiz-adv-x="559" 
d="M452 160q-51 -53 -126 -53q-61 0 -92.5 46t-21.5 116q10 69 54.5 115t106.5 46q68 0 108 -48l90 50q-41 62 -125 82q-8 1 -13 8t-3 16l19 136h-84l-19 -134q-1 -8 -8 -15.5t-16 -9.5q-94 -16 -157 -81.5t-77 -165.5q-15 -99 29 -164t134 -80q8 -2 13 -9t4 -16l-19 -128
h84l19 130q1 9 8 16t16 8q94 20 152 86zM465 215l115 -74q8 -6 9 -15.5t-5 -18.5q-66 -94 -185 -126l-19 -135q-2 -11 -11 -18t-18 -7h-134q-10 0 -16 8t-5 17l19 133q-98 24 -145.5 101.5t-31.5 187.5q16 111 86.5 189.5t174.5 102.5l20 139q1 7 6 13t11 9t11 3h134
q11 0 17 -8t5 -17l-21 -141q105 -31 146 -121q4 -9 0.5 -19t-13.5 -15l-135 -75q-9 -5 -18.5 -3t-13.5 9q-26 46 -82 46q-39 0 -68 -29.5t-36 -81.5q-8 -54 12 -83t60 -29q61 0 95 48q6 9 16.5 12t19.5 -2z" />
    <glyph glyph-name="sterling" unicode="&#xa3;" horiz-adv-x="557" 
d="M299 109q-9 0 -16 7t-6 18l21 147q2 9 10 17t19 8h142l10 68h-142q-9 0 -16 7t-6 18l11 71q7 52 39 83t80 31q60 0 113 -51l55 84q-67 66 -173 66q-104 0 -166 -53.5t-77 -155.5l-11 -75q0 -6 -4 -11.5t-10.5 -9.5t-13.5 -4h-51l-10 -68h51q9 0 16 -7t5 -18l-21 -147
q-1 -9 -9.5 -17t-18.5 -8h-51l-12 -84h463l12 84h-233zM331 159h233q7 0 12.5 -4t7.5 -9.5t1 -11.5l-19 -134q-1 -7 -6 -13t-11 -9t-12 -3h-513q-10 0 -16 8t-5 17l19 134q2 11 11 18t18 7h51l14 97h-51q-11 0 -17 8t-5 17l17 118q2 11 11 18t18 7h51l7 50q18 121 98 190
t203 69q65 0 121.5 -24t95.5 -69q11 -13 0 -29l-86 -130q0 -2 -1.5 -4t-6 -6.5t-9 -6t-11 0.5t-13.5 10q-48 59 -100 59q-28 0 -42.5 -14t-19.5 -50l-7 -46h142q11 0 17 -8t4 -17l-17 -118q0 -5 -3 -10t-7.5 -8t-9 -5t-8.5 -2h-142z" />
    <glyph glyph-name="currency" unicode="&#xa4;" horiz-adv-x="701" 
d="M633 321q9 63 -14 114q-7 17 8 31l93 81l-52 62l-92 -82q-16 -13 -31 -4q-52 32 -115 32t-122 -32q-18 -9 -30 4l-69 82l-71 -62l71 -81q12 -14 -1 -31q-38 -51 -47 -114q-9 -65 16 -118q7 -17 -8 -31l-97 -84l53 -62l99 87q15 13 30 4q49 -29 109 -29t119 29q18 9 29 -4
l73 -87l70 62l-72 84q-12 14 1 31q41 53 50 118zM683 321q-10 -68 -49 -127l76 -88q6 -9 4 -19t-9 -17l-111 -97q-8 -7 -18.5 -7t-17.5 7l-77 92q-63 -27 -126 -27q-62 0 -116 27l-104 -92q-10 -7 -20 -6.5t-16 6.5l-83 97q-6 9 -4 19t10 17l101 88q-21 59 -12 127
q10 65 46 122l-74 86q-7 7 -5.5 17.5t10.5 18.5l111 97q9 7 19.5 6.5t15.5 -6.5l74 -86q64 29 129 29q66 0 123 -29l98 86q8 7 18.5 7t16.5 -7l83 -97q6 -9 4 -19t-9 -17l-98 -85q20 -58 10 -123zM375 173q-41 0 -72.5 19.5t-47 54t-9.5 74.5q9 62 59.5 106t112.5 44
q63 0 101 -44t29 -106q-6 -40 -31.5 -74.5t-63 -54t-78.5 -19.5zM382 223q21 0 41 8t35.5 21t26 31t13.5 38q4 27 -6 50t-32 36.5t-49 13.5q-42 0 -75.5 -29.5t-39.5 -70.5q-3 -20 2.5 -38t17 -31t29 -21t37.5 -8z" />
    <glyph glyph-name="yen" unicode="&#xa5;" horiz-adv-x="665" 
d="M536 314q-20 0 -24.5 9t1.5 19l7 9l221 325h-122l-200 -294q-8 -12 -15.5 -16.5t-12.5 -2t-8.5 6.5t-5.5 8l-2 4l-119 294h-122l130 -325q6 -19 0 -27.5t-17 -8.5l-11 -1h-97l-2 -15h132q15 0 20 -13l21 -52q2 -6 1 -12l-2 -13q-1 -9 -9.5 -17t-18.5 -8h-160l-3 -16h160
q9 0 16 -7t6 -18l-17 -118h127l17 118q0 6 4 11.5t10.5 9.5t13.5 4h150l3 16h-150q-9 0 -16 7t-6 18l3 18q1 6 4 12l32 47q9 13 24 13h125l2 15h-90zM585 364h73q11 0 17 -8t5 -17l-10 -65q-1 -11 -10 -18t-18 -7h-135l-10 -15h143q10 0 16 -8t5 -17l-9 -66q-2 -11 -11 -18
t-18 -7h-150l-17 -118q-1 -7 -6 -13t-11 -9t-12 -3h-177q-10 0 -16 8t-5 17l17 118h-160q-11 0 -17 8t-4 17l9 66q1 7 6 13t11 9t12 3h150l-6 15h-142q-11 0 -17 8t-5 17l10 65q1 11 10.5 18t17.5 7h80l-129 325q0 1 -0.5 2.5t-1.5 5t-1.5 7t1 8t4.5 7.5t9.5 5t16.5 2h178
q14 0 20 -13l108 -267l182 267q9 13 24 13h178q0 -1 4 0t9 -1t9 -5t3 -11t-9 -20z" />
    <glyph glyph-name="brokenbar" unicode="&#xa6;" horiz-adv-x="299" 
d="M259 486l42 292h-79l-42 -292h79zM277 436h-129q-11 0 -17 8t-5 17l50 342q1 11 10 18t18 7h129q11 0 17 -8t5 -17l-50 -342q-1 -11 -10 -18t-18 -7zM177 -85l42 293h-79l-42 -293h79zM195 -135h-129q-11 0 -17 8t-5 17l50 343q1 11 10 18t18 7h129q11 0 17 -8t5 -17
l-50 -343q-1 -11 -10.5 -18t-17.5 -7z" />
    <glyph glyph-name="section" unicode="&#xa7;" horiz-adv-x="545" 
d="M378 669q-91 0 -147 -38t-64 -96q-3 -17 -0.5 -30.5t13.5 -25t34 -25.5q18 -12 15.5 -22t-13.5 -17l-12 -6q-93 -33 -104 -109q-5 -36 13 -62t49 -39t67.5 -26t67.5 -24t50 -32t15 -50q-2 -8 -5 -15.5t-8 -13.5t-11 -11t-13.5 -9t-15.5 -7t-16.5 -4.5t-17.5 -2.5t-18 -1
q-86 0 -173 56l-37 -61q88 -61 205 -61q95 0 153 38.5t66 96.5q5 20 1 34.5t-13 24t-29 21.5q-17 13 -14.5 23t13.5 16l11 6q41 16 67.5 45.5t31.5 64.5q5 36 -13 62.5t-49.5 39.5t-68.5 26t-69 24t-51 32t-15 51q3 21 18.5 36t36 21t43.5 6q65 0 151 -44l40 61
q-87 47 -184 47zM386 719q121 0 226 -64q8 -5 9 -15t-4 -18l-67 -106q-6 -9 -16.5 -12.5t-19.5 1.5q-89 50 -150 50q-39 0 -41 -13q-1 -6 8.5 -11.5t26.5 -10t38.5 -10.5t45 -14t47 -18.5t43.5 -26.5t35 -35.5t21 -47.5t1 -61q-6 -41 -31.5 -76.5t-64.5 -59.5q37 -37 28 -99
q-12 -83 -89.5 -134t-186.5 -51q-145 0 -248 82q-7 5 -7.5 14.5t3.5 15.5l65 107q16 27 38 11q84 -64 169 -64q18 0 30 3.5t14 7.5l3 3q1 6 -11 12t-32 11t-45.5 13t-51.5 17.5t-50.5 26t-42 36.5t-26 50t-3.5 67q13 87 99 135q-41 38 -32 100q8 55 45.5 97t95.5 64.5
t128 22.5zM313 378q51 0 86.5 -19.5t29.5 -60.5q-2 -12 -7 -21.5t-12.5 -17t-17.5 -13t-21.5 -9t-24 -5t-26.5 -1.5q-50 0 -85 20t-29 60q5 34 35.5 50.5t71.5 16.5zM306 328q-48 0 -50 -17q-1 -5 4.5 -11.5t23.5 -12.5t43 -6q49 0 52 17q1 4 -5 10.5t-24 13t-44 6.5z" />
    <glyph glyph-name="dieresis" unicode="&#xa8;" horiz-adv-x="368" 
d="M186 745q-24 0 -40.5 -14.5t-19.5 -38.5q-4 -25 8 -39t37 -14q16 0 28.5 6.5t20.5 18.5t11 28q3 24 -9 38.5t-36 14.5zM194 795q43 0 68 -29.5t19 -73.5q-7 -44 -40 -73.5t-77 -29.5q-29 0 -51 13.5t-31.5 37t-5.5 52.5q6 44 39.5 73.5t78.5 29.5zM379 745
q-16 0 -29 -6.5t-21 -18.5t-10 -28q-4 -25 8 -39t37 -14q24 0 40.5 14.5t20.5 38.5q2 16 -3 28t-16 18.5t-27 6.5zM387 795q43 0 68.5 -29.5t19.5 -73.5q-7 -44 -40.5 -73.5t-77.5 -29.5q-29 0 -51 13.5t-31.5 37t-5.5 52.5q6 44 39.5 73.5t78.5 29.5z" />
    <glyph glyph-name="copyright" unicode="&#xa9;" horiz-adv-x="725" 
d="M459 664q-132 0 -236.5 -93t-123.5 -223q-12 -85 18.5 -157t96.5 -114.5t152 -42.5q132 0 237 93t123 223q13 85 -18 157t-97 114.5t-152 42.5zM466 714q100 0 176.5 -49t112.5 -133t21 -182q-14 -98 -74 -182t-151.5 -134t-191.5 -50t-176.5 49.5t-112 133t-21.5 181.5
q11 73 49 140.5t93 117t127.5 79t147.5 29.5zM454 634q120 0 190 -83.5t53 -201t-112 -201.5t-215 -84q-119 0 -188.5 83.5t-52.5 201t111.5 201.5t213.5 84zM447 584q-99 0 -176.5 -69.5t-91.5 -166.5t43 -165.5t155 -68.5q99 0 177.5 69.5t92.5 166.5t-43.5 165.5
t-156.5 68.5zM440 490q-44 0 -81 -18.5t-60.5 -50.5t-29.5 -72q-6 -41 8.5 -73.5t45.5 -51t73 -18.5q53 0 104 36l-12 16q-44 -29 -84 -29q-50 0 -79 35.5t-21 86.5q7 50 46 84.5t89 34.5q42 0 76 -30l17 17q-40 33 -92 33zM447 540q41 0 78.5 -16.5t62.5 -46.5
q5 -7 4 -16.5t-8 -16.5l-56 -57q-22 -23 -38 0q-24 33 -58 33q-30 0 -52 -19.5t-26 -49.5q-5 -32 11.5 -52t45.5 -20q34 0 69 31q8 7 18.5 7t17.5 -8l40 -51q6 -8 4.5 -18t-9.5 -16q-34 -32 -77 -50t-86 -18q-83 0 -132 55.5t-37 137.5t77.5 136.5t150.5 54.5z" />
    <glyph glyph-name="ordfeminine" unicode="&#xaa;" horiz-adv-x="393" 
d="M257 674h31q-7 1 -15 1q-7 0 -16 -1zM151 655q-7 5 -8 12l-17 76q-2 7 0.5 13.5t7.5 11.5t11 7q96 35 176 35q79 0 122.5 -37.5t32.5 -104.5l-30 -210q-2 -11 -11 -18t-18 -7h-116q-15 0 -20 14q-38 -19 -85 -19q-61 0 -94.5 34.5t-25.5 90.5q10 70 75 102zM314 760
q-60 0 -134 -23l7 -29q10 3 19 5q43 12 74 12q39 0 61 -18.5t17 -52.5v-5q-2 -9 -10 -17t-19 -8h-87q-21 0 -39 -3q-37 -6 -55 -23t-22 -45q-3 -17 0.5 -30.5t13 -23.5t25.5 -15.5t38 -5.5q58 0 90 36q7 7 12.5 10.5t10 2.5t8 -3.5t5.5 -7t4 -8t2 -6.5l1 -3l-2 -16h66
l26 185q4 22 -1 38.5t-18.5 28.5t-37 18.5t-55.5 6.5zM247 501q-18 0 -32.5 7.5t-21.5 21.5t-4 32q4 28 26.5 43t50.5 15h62q9 0 16 -7t6 -18l-5 -34q-1 -7 -5 -13q-35 -47 -93 -47zM254 551q26 0 42 17v2h-37q-10 0 -15 -1.5t-5 -2v-4.5q-1 -3 -0.5 -5t1.5 -3.5t4.5 -2
t9.5 -0.5z" />
    <glyph glyph-name="guillemotleft" unicode="&#xab;" horiz-adv-x="502" 
d="M171 254q-6 12 3 24l106 147h-83l-127 -159l81 -159h83zM223 266l74 -172q1 -1 2 -3.5t2 -9t-1 -11.5t-9.5 -9t-20.5 -4h-140q-13 0 -19 11l-94 184q-7 14 4 28l147 184q9 11 22 11h140h5t9.5 -1.5t9.5 -5t2 -11.5t-9 -19zM392 253q-6 13 4 26l106 146h-83l-127 -159
l81 -159h83zM444 266l75 -171q1 -2 2 -4.5t2 -9t-1 -11.5t-9.5 -9t-20.5 -4h-140q-13 0 -19 11l-94 184q-7 14 4 28l147 184q9 11 22 11h140h5t9.5 -1.5t9.5 -5t2 -11.5t-9 -20z" />
    <glyph glyph-name="logicalnot" unicode="&#xac;" horiz-adv-x="578" 
d="M547 401h-431l-9 -59h332q9 0 16 -7t6 -18l-23 -155h74zM600 426l-41 -289q-1 -7 -6 -13t-11 -9t-12 -3h-124q-11 0 -17 8t-4 17l22 155h-332q-11 0 -17 8t-4 17l15 109q2 11 11 18t18 7h481q11 0 17 -8t4 -17z" />
    <glyph glyph-name="softhyphen" unicode="&#xad;" horiz-adv-x="374" 
d="M334 277l8 59h-214l-8 -59h214zM352 227h-264q-11 0 -17 8t-5 17l16 109q2 11 11 18t18 7h264q10 0 16 -8t5 -17l-16 -109q-1 -11 -10 -18t-18 -7z" />
    <glyph glyph-name="registered" unicode="&#xae;" horiz-adv-x="725" 
d="M459 664q-132 0 -236.5 -93t-123.5 -223q-12 -85 18.5 -157t96.5 -114.5t152 -42.5q132 0 237 93t123 223q13 85 -18 157t-97 114.5t-152 42.5zM466 714q100 0 176.5 -49t112.5 -133t21 -182q-14 -98 -74 -182t-151.5 -134t-191.5 -50t-176.5 49.5t-112 133t-21.5 181.5
q11 73 49 140.5t93 117t127.5 79t147.5 29.5zM370 64q-119 0 -188.5 83.5t-52.5 201t111.5 201.5t213.5 84q120 0 190 -83.5t53 -201t-112 -201.5t-215 -84zM377 114q99 0 177.5 69.5t92.5 166.5t-43.5 165.5t-156.5 68.5t-176.5 -69.5t-91.5 -166.5t43 -165.5t155 -68.5z
M539 409q6 42 -17 64t-79 22h-113l-39 -270h29l10 65q1 9 9.5 17t18.5 8h63q15 0 21 -13l29 -77h30l-33 66q-6 12 -0.5 22t15.5 14q47 23 56 82zM589 409q-10 -72 -65 -111l43 -84q1 -2 2 -4.5t2 -9t-0.5 -12t-9 -9.5t-21.5 -4h-91q-15 0 -20 13l-30 77h-23l-9 -65
q-1 -5 -4 -10t-7 -8t-9 -5t-9 -2h-79q-10 0 -16 8t-5 17l46 320q1 11 10.5 18t18.5 7h138q71 0 109 -36t29 -100zM360 327q-5 0 -10.5 3t-8.5 9t-2 13l15 107q1 6 5 11.5t10.5 9.5t13.5 4h59q35 0 55.5 -21.5t15 -56.5t-31.5 -57t-62 -22h-59zM392 377h34q13 0 20 3t11 9
t6 17q2 15 -4 21.5t-24 6.5h-34z" />
    <glyph glyph-name="macron" unicode="&#xaf;" 
d="M384 657l9 66h-228l-9 -66h228zM401 607h-278q-10 0 -16 8t-5 17l17 116q1 11 10.5 18t17.5 7h278q11 0 17 -8t5 -17l-17 -116q-1 -7 -6 -13t-11 -9t-12 -3z" />
    <glyph glyph-name="degree" unicode="&#xb0;" horiz-adv-x="374" 
d="M316 792q-38 0 -70 -27.5t-37.5 -65.5t18.5 -65.5t62 -27.5q39 0 70.5 27.5t37.5 65.5q3 25 -6 46.5t-29 34t-46 12.5zM323 842q60 0 96 -42t27.5 -101t-56.5 -101t-108 -42q-39 0 -69 19t-45 52t-9 72q4 29 19.5 55.5t37.5 45.5t50 30.5t57 11.5zM314 775q32 0 51 -22
t15 -54q-3 -21 -16 -38.5t-32 -27.5t-40 -10q-32 0 -51.5 22t-14.5 54q3 21 16 38.5t32 27.5t40 10zM306 725q-10 0 -19.5 -8t-10.5 -18q-1 -7 1.5 -13t8.5 -9.5t13 -3.5q11 0 20 7.5t10.5 18.5t-5 18.5t-18.5 7.5z" />
    <glyph glyph-name="plusminus" unicode="&#xb1;" horiz-adv-x="510" 
d="M514 428h-143q-6 0 -11 3t-8.5 9t-2.5 13l20 137h-59l-20 -137q-1 -6 -4.5 -11.5t-10 -9.5t-13.5 -4h-142l-8 -55h142q9 0 16 -7t5 -18l-19 -136h59l19 136q1 9 9.5 17t19.5 8h143zM567 453l-15 -105q-1 -11 -10.5 -18t-17.5 -7h-143l-20 -136q-2 -11 -11 -18t-18 -7
h-109q-10 0 -16 8t-5 17l20 136h-142q-11 0 -17 8t-5 17l15 105q1 5 4 10t7.5 8t9 5t8.5 2h142l20 137q1 11 10 18t18 7h109q11 0 17 -8t5 -17l-20 -137h143q11 0 17 -8t4 -17zM71 87l-9 -60h394l9 60h-394zM53 137h444q10 0 16 -8t5 -17l-16 -110q-1 -7 -6 -13t-11 -9
t-11 -3h-444q-11 0 -17 8t-5 17l16 110q2 11 11 18t18 7z" />
    <glyph glyph-name="twosuperior" unicode="&#xb2;" horiz-adv-x="389" 
d="M299 680q-74 0 -157 -47l16 -39q65 41 116 41q27 0 45 -14.5t14 -42.5q-5 -35 -57 -82l-169 -148l-6 -40h281l6 41h-151q-21 0 -24 10.5t5 21.5l8 11l94 81q86 72 93 122q3 23 -8.5 42.5t-39 31t-66.5 11.5zM306 730q74 0 120 -36.5t37 -98.5q-10 -71 -114 -158l-44 -38
h115q11 0 17 -8t5 -17l-13 -91q-2 -11 -11 -18t-18 -7h-331q-10 0 -16 8t-5 17l11 75q1 10 9 18l178 154q6 7 12.5 13.5t10.5 12t7.5 10.5t5 8t1.5 4v1t0.5 2.5t-4 2.5t-13.5 1q-44 0 -109 -47q-26 -20 -36 7l-34 84q-4 8 0 17.5t12 14.5q107 69 207 69z" />
    <glyph glyph-name="threesuperior" unicode="&#xb3;" horiz-adv-x="365" 
d="M285 508q-13 3 -18.5 8.5t-3.5 11t5 11t7 9.5l4 3l110 92l4 31h-245l-5 -35h132q22 0 24.5 -10.5t-5.5 -21.5l-8 -11l-98 -85l-4 -25h47q37 0 59 -18.5t17 -53.5q-5 -34 -32.5 -54t-63.5 -20q-55 0 -96 38l-28 -40q55 -35 129 -35q68 0 110.5 31.5t49.5 80.5
q5 37 -13.5 60t-57.5 29zM347 547q42 -14 64 -49t15 -83t-37.5 -85t-77.5 -57t-103 -20q-50 0 -96.5 15.5t-77.5 41.5q-6 6 -6.5 15.5t4.5 16.5l62 89q1 1 1.5 2t3 4t5 5t6.5 4t8 1.5t8.5 -3t8.5 -8.5q34 -46 83 -46q21 0 29 6t10 18q1 12 -5 17t-28 5h-72q-11 0 -17 8
t-5 17l9 61q2 11 10 18l58 49h-96q-11 0 -17 8t-5 17l13 85q1 11 10 18t18 7h295q11 0 17 -8t5 -17l-10 -67q-1 -11 -10 -18z" />
    <glyph glyph-name="acute" unicode="&#xb4;" 
d="M359 704l-92 34l-88 -113h78zM422 694l-146 -113q-8 -6 -17 -6h-132h-2.5t-6 0.5t-7.5 1.5t-6.5 4t-3.5 7t1.5 10.5t8.5 14.5l130 168q14 17 31 11l148 -55q2 -1 4.5 -2t7.5 -4.5t7 -8t-1.5 -12t-15.5 -16.5z" />
    <glyph glyph-name="mu" unicode="&#xb5;" horiz-adv-x="684" 
d="M664 514h-123l-35 -241q-6 -41 -25.5 -75.5t-52.5 -55.5t-74 -22q-52 0 -78 36t-18 92l38 266h-123l-98 -683h123l23 163q2 11 11 18t19 7l19 -1q105 0 165 84q5 7 10.5 10t9.5 2t8 -3t7 -6t5.5 -7.5t3.5 -5.5l1 -3l-9 -64h123zM718 539l-78 -539q-1 -7 -6 -13t-11 -9
t-12 -3h-173q-10 0 -16 8t-5 17l3 19q-65 -49 -153 -51l-23 -162q-1 -11 -10.5 -18t-18.5 -7h-173q-10 0 -16 8t-5 17l106 733q1 11 10 18t18 7h173q11 0 17 -8t5 -17l-42 -291q-11 -77 53 -78q38 1 63 28t32 75l39 266q0 5 3.5 10t7.5 8t8.5 5t8.5 2h173q11 0 17 -8t5 -17z
" />
    <glyph glyph-name="paragraph" unicode="&#xb6;" horiz-adv-x="650" 
d="M543 -82l115 799h-318q-59 0 -104.5 -15.5t-74 -43t-44.5 -59.5t-22 -70q-1 -23 -1.5 -47t9.5 -47.5t25.5 -42.5t46 -30.5t71.5 -11.5h27q9 0 16 -7t6 -18l-59 -407h78l105 727q1 9 9.5 17t19.5 8h100q8 0 15 -7t6 -18l-105 -727h79zM561 -132h-129q-11 0 -17 8t-4 17
l104 727h-50l-104 -727q-2 -11 -11 -18t-18 -7h-128q-11 0 -17 8t-4 17l58 407h-2q-43 0 -77.5 11t-55 29t-36 42t-20.5 49.5t-7.5 50.5t2.5 47q6 37 20 71t39.5 64.5t59.5 53t81.5 36t102.5 13.5h343q10 0 16 -8t5 -17l-122 -849q-2 -11 -11 -18t-18 -7z" />
    <glyph glyph-name="periodcentered" unicode="&#xb7;" horiz-adv-x="240" 
d="M169 346q-17 0 -30.5 -7t-22.5 -20t-11 -30q-4 -26 9 -41.5t38 -15.5q18 0 32 7t22.5 20t11.5 30q3 26 -10 41.5t-39 15.5zM176 396q46 0 72 -30.5t19.5 -76.5t-41.5 -76.5t-81 -30.5q-45 0 -71 30.5t-19 76.5q4 30 21.5 54.5t43.5 38.5t56 14z" />
    <glyph glyph-name="cedilla" unicode="&#xb8;" 
d="M83 -109h-2t-4 0.5t-5.5 1.5t-4.5 3.5t-2.5 6t1.5 10t7 14.5l61 98q9 14 25 14h97q0 -1 4 0t9 -1t9 -5t3 -11t-8 -19l-27 -41q25 -14 37 -38.5t8 -55.5q-8 -58 -56.5 -93t-111.5 -35q-57 0 -104 35q-7 5 -8 14.5t3 16.5l43 71q0 2 1.5 4t5.5 6.5t8.5 6.5t11.5 0.5
t13 -9.5q13 -13 31 -13q17 0 18 12q1 3 0.5 4.5t-5.5 4t-14 2.5q-10 0 -33 -4h-11zM208 -11h-41l-27 -44q27 -2 43.5 -18.5t12.5 -42.5q-2 -13 -8.5 -24.5t-16.5 -19.5t-23.5 -13t-27.5 -5q-18 0 -36 8l-15 -24q31 -16 61 -16q47 0 76.5 21.5t34.5 56.5q6 44 -41 57
q-29 8 -11 35z" />
    <glyph glyph-name="onesuperior" unicode="&#xb9;" horiz-adv-x="274" 
d="M158 308h72l53 367h-151l-6 -43h54q9 0 16 -7t5 -18zM105 283l43 299h-54q-11 0 -17 8t-5 17l14 93q1 11 10.5 18t17.5 7h201q11 0 17 -8t5 -17l-60 -417q-2 -11 -11 -18t-18 -7h-122q-10 0 -16 8t-5 17z" />
    <glyph glyph-name="ordmasculine" unicode="&#xba;" horiz-adv-x="413" 
d="M316 760q-76 0 -124.5 -38.5t-57.5 -102.5t28.5 -102t112.5 -38q76 0 124.5 38t57.5 102t-28.5 102.5t-112.5 38.5zM323 810q93 0 145 -52.5t39 -138.5q-12 -85 -79 -137.5t-160 -52.5t-144.5 52.5t-39.5 137.5q13 86 79.5 138.5t159.5 52.5zM309.5 719q40.5 0 62 -29
t15.5 -72t-36 -72t-70.5 -29t-62 29t-15.5 72t36 72t70.5 29zM302 669q-42 0 -49 -51t35 -51t49 51t-35 51z" />
    <glyph glyph-name="guillemotright" unicode="&#xbb;" horiz-adv-x="508" 
d="M203 278q5 -12 -4 -24l-105 -147h83l126 159l-80 159h-84zM150 266l-74 172l-0.5 1.5t-1.5 5.5t-1.5 7.5t0.5 8t4.5 7.5t10 5t15.5 2h140q14 0 20 -11l93 -184q7 -14 -4 -28l-146 -184q-9 -11 -23 -11h-140h-4.5t-9 1.5t-9.5 5t-2 11.5t9 19zM425 278q5 -12 -4 -24
l-105 -147h83l126 159l-80 159h-84zM372 266l-74 172l-0.5 1.5t-1.5 5.5t-1.5 7.5t0.5 8t4.5 7.5t10 5t15.5 2h140q14 0 20 -11l93 -184q7 -14 -4 -28l-146 -184q-9 -11 -23 -11h-140h-4.5t-9 1.5t-9.5 5t-2 11.5t9 19z" />
    <glyph glyph-name="onequarter" unicode="&#xbc;" horiz-adv-x="881" 
d="M119 25h101l558 651h-101zM49 15l601 701q9 10 22 10h162h5t9.5 -2.5t9.5 -6t1.5 -11.5t-11.5 -20l-601 -701q-9 -10 -22 -10h-162h-5t-9.5 2.5t-9.5 6t-1.5 11.5t11.5 20zM158 308h72l53 367h-151l-6 -43h54q9 0 16 -7t5 -18zM105 283l43 299h-54q-11 0 -17 8t-5 17
l14 93q1 11 10.5 18t17.5 7h201q11 0 17 -8t5 -17l-60 -417q-2 -11 -11 -18t-18 -7h-122q-10 0 -16 8t-5 17zM742 285h109q11 0 17 -8t4 -17l-9 -64h33q11 0 17 -8t5 -17l-12 -84q-2 -11 -11 -18t-18 -7h-33l-9 -62q-1 -7 -6 -13t-11 -9t-12 -3h-113q-10 0 -16 8t-5 17l9 62
h-182q-11 0 -17 8t-4 17l11 79q1 6 5 12l170 251q9 13 24 13h117q0 -1 4 0t9 -1t9 -5t3 -11t-8 -19zM705 229l-22 -33h17zM747 171q-1 -3 -2.5 -6.5t-4 -7t-6 -6t-8 -4t-8.5 -1.5h-83q-20 0 -24.5 9t1.5 18l6 9l138 210h-61l-157 -232l-7 -48h182q9 0 16 -7t6 -18l-9 -62h63
l9 62q1 9 9 17t19 8h33l5 34h-33q-9 0 -16 7t-5 18l9 64h-63z" />
    <glyph glyph-name="onehalf" unicode="&#xbd;" horiz-adv-x="902" 
d="M119 25h101l558 651h-101zM49 15l601 701q9 10 22 10h162h5t9.5 -2.5t9.5 -6t1.5 -11.5t-11.5 -20l-601 -701q-9 -10 -22 -10h-162h-5t-9.5 2.5t-9.5 6t-1.5 11.5t11.5 20zM158 308h72l53 367h-151l-6 -43h54q9 0 16 -7t5 -18zM105 283l43 299h-54q-11 0 -17 8t-5 17
l14 93q1 11 10.5 18t17.5 7h201q11 0 17 -8t5 -17l-60 -417q-2 -11 -11 -18t-18 -7h-122q-10 0 -16 8t-5 17zM771 397q-74 0 -157 -47l16 -39q67 41 116 41q27 0 45 -15t15 -42q-5 -34 -57 -83l-1 -1l-169 -146l-5 -40h281l5 40h-151q-22 0 -24.5 10.5t5.5 21.5l8 11l94 82
q86 72 93 121q5 37 -25 61.5t-89 24.5zM778 447q74 0 120 -36.5t37 -99.5q-10 -70 -113 -157l-45 -39h116q10 0 16 -8t5 -17l-13 -90q-1 -5 -4 -10t-7 -8t-9 -5t-9 -2h-331q-10 0 -16 8t-5 17l11 75q1 10 10 18l176 153q17 16 27.5 30t11.5 19q0 5 -7 6q-4 1 -10 1
q-43 0 -110 -48q-26 -18 -36 8l-34 84q-3 8 0.5 17.5t11.5 14.5q108 69 207 69z" />
    <glyph glyph-name="threequarters" unicode="&#xbe;" horiz-adv-x="940" 
d="M179 25h101l558 651h-101zM109 15l601 701q9 10 22 10h162h5t9.5 -2.5t9.5 -6t1.5 -11.5t-11.5 -20l-601 -701q-9 -10 -22 -10h-162h-5t-9.5 2.5t-9.5 6t-1.5 11.5t11.5 20zM285 508q-13 3 -18.5 8.5t-3.5 11t5 11t7 9.5l4 3l110 92l4 31h-245l-5 -35h132
q22 0 24.5 -10.5t-5.5 -21.5l-8 -11l-98 -85l-4 -25h47q37 0 59 -18.5t17 -53.5q-5 -34 -32.5 -54t-63.5 -20q-55 0 -96 38l-28 -40q55 -35 129 -35q68 0 110.5 31.5t49.5 80.5q5 37 -13.5 60t-57.5 29zM347 547q42 -14 64 -49t15 -83t-37.5 -85t-77.5 -57t-103 -20
q-50 0 -96.5 15.5t-77.5 41.5q-6 6 -6.5 15.5t4.5 16.5l62 89q1 1 1.5 2t3 4t5 5t6.5 4t8 1.5t8.5 -3t8.5 -8.5q34 -46 83 -46q21 0 29 6t10 18q1 12 -5 17t-28 5h-72q-11 0 -17 8t-5 17l9 61q2 11 10 18l58 49h-96q-11 0 -17 8t-5 17l13 85q1 11 10 18t18 7h295q11 0 17 -8
t5 -17l-10 -67q-1 -11 -10 -18zM801 285h109q11 0 17 -8t4 -17l-9 -64h33q11 0 17 -8t5 -17l-12 -84q-2 -11 -11 -18t-18 -7h-33l-9 -62q-1 -7 -6 -13t-11 -9t-12 -3h-113q-10 0 -16 8t-5 17l9 62h-182q-11 0 -17 8t-4 17l11 79q1 6 5 12l170 251q9 13 24 13h117q0 -1 4 0
t9 -1t9 -5t3 -11t-8 -19zM764 229l-22 -33h17zM806 171q-1 -4 -3.5 -8.5t-6 -8t-9 -6t-10.5 -2.5h-83q-20 0 -24.5 9t1.5 18l6 9l138 210h-61l-157 -232l-7 -48h182q9 0 16 -7t6 -18l-9 -62h63l9 62q1 9 9 17t19 8h33l5 34h-33q-9 0 -16 7t-5 18l9 64h-63z" />
    <glyph glyph-name="questiondown" unicode="&#xbf;" horiz-adv-x="472" 
d="M304 405q27 0 45 15.5t22 42.5t-9.5 43t-40.5 16t-45 -16t-22 -43t9.5 -42.5t40.5 -15.5zM297 355q-46 0 -73 30.5t-20 77.5t42.5 78t81.5 31q47 0 73.5 -31t19.5 -78q-4 -23 -15 -43t-27.5 -34.5t-37.5 -22.5t-44 -8zM364 39q-12 -42 -42.5 -66.5t-71.5 -24.5
q-43 0 -67.5 23t-18.5 66q5 32 20 58.5t35 45t40 36.5t37.5 43t24.5 55h-79q-11 -35 -33 -63.5t-46 -48.5t-47.5 -41t-41.5 -49t-23 -63q-10 -72 33.5 -110.5t136.5 -38.5q90 0 148.5 45.5t78.5 131.5zM349 89l133 -1q7 0 12 -3.5t7.5 -9.5t1.5 -12q-18 -117 -96 -184.5
t-193 -67.5q-109 0 -167.5 52t-45.5 147q7 48 28.5 87t48 63.5t52 46t45 45t22.5 48.5q2 11 11 18t18 7h129q10 0 16.5 -8t4.5 -17q-7 -48 -25 -86t-39.5 -61t-42.5 -41t-36.5 -37t-18.5 -38q-2 -15 1 -23t13 -12t29 -4q28 0 42.5 14t20.5 53q2 6 6 12t10.5 9t12.5 3z" />
    <glyph glyph-name="Agrave" unicode="&#xc0;" horiz-adv-x="770" 
d="M464 786h77l-55 113l-102 -34zM432 742l-114 113l-3 3t-5 7.5t-3 10.5t6 11t19 11l164 55q9 2 17 -1t11 -10l82 -168q1 -1 2 -3.5t2 -9.5t-0.5 -12t-9 -9t-21.5 -4h-132q-9 0 -15 6zM557 154q17 0 21 -16l28 -113h135l-180 650h-150l-374 -650h128l61 113q8 16 25 16h306
zM533 104h-272l-61 -113q-9 -16 -26 -16h-183q0 1 -4 0t-8.5 1t-8.5 5t-3.5 10.5t6.5 18.5l403 700q9 15 25 15h183q17 0 21 -15l194 -700q1 -2 1.5 -4t1 -8t-1.5 -10.5t-9.5 -8.5t-19.5 -4h-190q-17 0 -21 16zM546 273q4 -17 -3 -25.5t-16 -8.5h-10h-202q-17 0 -22 8.5
t0 17.5l4 8l139 259q13 20 23.5 20t16.5 -10l7 -10zM488 289l-40 165l-89 -165h129z" />
    <glyph glyph-name="Aacute" unicode="&#xc1;" horiz-adv-x="770" 
d="M535 786l102 79l-92 34l-87 -113h77zM537 736h-132h-2.5t-6 0.5t-7.5 1.5t-6.5 4t-3.5 7t1.5 10.5t8.5 14.5l131 168q13 17 31 11l148 -55q1 -1 3.5 -2t8 -4.5t7 -8t-2 -12t-14.5 -16.5l-147 -113q-8 -6 -17 -6zM557 154q17 0 21 -16l28 -113h135l-180 650h-150
l-374 -650h128l61 113q8 16 25 16h306zM533 104h-272l-61 -113q-9 -16 -26 -16h-183q0 1 -4 0t-8.5 1t-8.5 5t-3.5 10.5t6.5 18.5l403 700q9 15 25 15h183q17 0 21 -15l194 -700q1 -2 1.5 -4t1 -8t-1.5 -10.5t-9.5 -8.5t-19.5 -4h-190q-17 0 -21 16zM546 273q4 -17 -3 -25.5
t-16 -8.5h-10h-202q-17 0 -22 8.5t0 17.5l4 8l139 259q13 20 23.5 20t16.5 -10l7 -10zM488 289l-40 165l-89 -165h129z" />
    <glyph glyph-name="Acircumflex" unicode="&#xc2;" horiz-adv-x="770" 
d="M428 796l62 74q12 15 22.5 15t14.5 -8l4 -7l40 -74h61l-61 101h-113l-90 -101h60zM434 746h-124h-2.5t-6 1t-8 2.5t-6.5 4.5t-3.5 7t2.5 10.5t10 14.5l135 151q9 10 21 10h138q13 0 19 -10l91 -151q1 -1 1.5 -2.5t2 -5.5t2 -8t-0.5 -8.5t-4 -7.5t-9.5 -5.5t-17.5 -2.5
h-124q-13 0 -19 11l-29 55l-45 -55q-9 -11 -23 -11zM557 154q17 0 21 -16l28 -113h135l-180 650h-150l-374 -650h128l61 113q8 16 25 16h306zM533 104h-272l-61 -113q-9 -16 -26 -16h-183q0 1 -4 0t-8.5 1t-8.5 5t-3.5 10.5t6.5 18.5l403 700q9 15 25 15h183q17 0 21 -15
l194 -700q1 -2 1.5 -4t1 -8t-1.5 -10.5t-9.5 -8.5t-19.5 -4h-190q-17 0 -21 16zM546 273q4 -17 -3 -25.5t-16 -8.5h-10h-202q-17 0 -22 8.5t0 17.5l4 8l139 259q13 20 23.5 20t16.5 -10l7 -10zM488 289l-40 165l-89 -165h129z" />
    <glyph glyph-name="Atilde" unicode="&#xc3;" horiz-adv-x="770" 
d="M465 850q29 0 57.5 -23.5t52.5 -23.5t41 9t30.5 32.5t21.5 63.5h-57q-9 -21 -24 -32q-16 -10 -35 -10q-28 0 -57 23.5t-51 23.5q-25 0 -42 -9t-30.5 -33t-22.5 -64h58q9 23 26 34q15 9 32 9zM458 800h-2q-3 -5 -5 -18q-2 -11 -11 -18t-18 -7h-106q-11 0 -17 8t-4 17
q12 85 51.5 133t104.5 48q14 0 28 -2.5t24 -6.5t19 -9t15.5 -10.5t11 -9.5t7.5 -6.5l3 -2.5h3q4 5 5 17q2 11 11 18t18 7h105q11 0 17 -8t4 -17q-12 -85 -51 -132.5t-103 -47.5q-15 0 -29 2.5t-24.5 6.5t-19.5 9t-15.5 10.5t-11 9.5t-7 6.5t-3.5 2.5zM557 154q17 0 21 -16
l28 -113h135l-180 650h-150l-374 -650h128l61 113q8 16 25 16h306zM533 104h-272l-61 -113q-9 -16 -26 -16h-183q0 1 -4 0t-8.5 1t-8.5 5t-3.5 10.5t6.5 18.5l403 700q9 15 25 15h183q17 0 21 -15l194 -700q1 -2 1.5 -4t1 -8t-1.5 -10.5t-9.5 -8.5t-19.5 -4h-190
q-17 0 -21 16zM546 273q4 -17 -3 -25.5t-16 -8.5h-10h-202q-17 0 -22 8.5t0 17.5l4 8l139 259q13 20 23.5 20t16.5 -10l7 -10zM488 289l-40 165l-89 -165h129z" />
    <glyph glyph-name="Adieresis" unicode="&#xc4;" horiz-adv-x="770" 
d="M404 800q24 0 40.5 14t20.5 38q3 24 -9.5 38.5t-36.5 14.5q-15 0 -28 -6.5t-21.5 -18.5t-10.5 -28q-4 -24 8.5 -38t36.5 -14zM397 750q-44 0 -69.5 29t-18.5 73q4 29 21 53t42.5 37t54.5 13q43 0 68.5 -29.5t19.5 -73.5q-7 -44 -40.5 -73t-77.5 -29zM597 800
q24 0 40.5 14t20.5 38q3 24 -9.5 38.5t-36.5 14.5t-40.5 -14.5t-19.5 -38.5q-2 -16 2.5 -27.5t15.5 -18t27 -6.5zM590 750q-44 0 -69.5 29t-18.5 73q4 29 21 53t42.5 37t54.5 13q43 0 68.5 -29.5t19.5 -73.5q-7 -44 -40.5 -73t-77.5 -29zM557 154q17 0 21 -16l28 -113h135
l-180 650h-150l-374 -650h128l61 113q8 16 25 16h306zM533 104h-272l-61 -113q-9 -16 -26 -16h-183q0 1 -4 0t-8.5 1t-8.5 5t-3.5 10.5t6.5 18.5l403 700q9 15 25 15h183q17 0 21 -15l194 -700q1 -2 1.5 -4t1 -8t-1.5 -10.5t-9.5 -8.5t-19.5 -4h-190q-17 0 -21 16zM546 273
q4 -17 -3 -25.5t-16 -8.5h-10h-202q-17 0 -22 8.5t0 17.5l4 8l139 259q13 20 23.5 20t16.5 -10l7 -10zM488 289l-40 165l-89 -165h129z" />
    <glyph glyph-name="Aring" unicode="&#xc5;" horiz-adv-x="770" 
d="M557 154q17 0 21 -16l28 -113h135l-181 650q-4 15 9 27q28 27 34 66q6 42 -20 72t-70 30q-43 0 -77 -30t-40 -72q-6 -39 14 -67q9 -12 0 -26l-373 -650h128l61 113q8 16 25 16h306zM533 104h-272l-61 -113q-9 -16 -26 -16h-183q0 1 -4 0t-8.5 1t-8.5 5t-3.5 10.5
t6.5 18.5l386 671q-20 39 -13 87q9 63 60 107.5t115 44.5t102.5 -44.5t29.5 -107.5q-7 -49 -40 -87l186 -671q1 -2 1.5 -4t1 -8t-1.5 -10.5t-9.5 -8.5t-19.5 -4h-190q-17 0 -21 16zM510 847q33 0 53 -23t16 -56q-3 -16 -11 -30.5t-20.5 -25.5t-28 -17t-32.5 -6
q-33 0 -52.5 23t-15 56t31 56t59.5 23zM503 797q-12 0 -22 -8.5t-11.5 -20.5t5.5 -20.5t19 -8.5q14 0 23.5 8.5t11.5 20.5q1 8 -2 14.5t-9.5 10.5t-14.5 4zM546 273q4 -17 -3 -25.5t-16 -8.5h-10h-202q-17 0 -22 8.5t0 17.5l4 8l139 259q13 20 23.5 20t16.5 -10l7 -10z
M488 289l-40 165l-89 -165h129z" />
    <glyph glyph-name="AE" unicode="&#xc6;" horiz-adv-x="1102" 
d="M1049 115h-357q-9 0 -16 7t-6 18l21 142q0 6 4 11.5t10.5 9.5t13.5 4h310l13 89h-310q-5 0 -10.5 3t-8.5 9t-2 13l20 139q1 9 9.5 17t18.5 8h346l13 91h-515q-5 -1 -8 -1h-90l-463 -650h127l90 135q9 13 24 13h240q5 0 10.5 -3t8.5 -9t2 -13l-17 -123h509zM1102 140
l-20 -140q-1 -7 -6 -13t-11 -9t-12 -3h-559q-10 0 -16 8t-5 17l18 123h-200l-91 -135q-9 -13 -24 -13h-185q0 1 -4.5 0t-9.5 1.5t-9 5.5t-2.5 11t9.5 19l499 700q9 13 23 13h98l8 1h548q10 0 16 -8t5 -17l-20 -141q-2 -11 -11 -18t-18 -7h-346l-13 -89h310q11 0 17 -8t5 -17
l-20 -139q-2 -11 -11 -18t-18 -7h-310l-13 -92h357q10 0 16 -8t5 -17zM563 276q-2 -9 -10 -17t-19 -8h-172q-20 0 -24.5 9t1.5 19l6 9l194 288q9 13 24 13h20q9 0 16 -7t5 -18zM516 301l29 200l-134 -200h105z" />
    <glyph glyph-name="Ccedilla" unicode="&#xc7;" horiz-adv-x="692" 
d="M283 -109q0 1 -3.5 0.5t-7 1.5t-6.5 5t-1.5 10.5t8.5 18.5l30 48q-133 28 -203.5 132t-49.5 245q15 107 80 194t163.5 136t209.5 49q55 0 108 -15.5t97.5 -43.5t76.5 -67q6 -7 4.5 -16.5t-7.5 -16.5l-121 -122q-23 -23 -38 0q-26 38 -65.5 60t-79.5 22q-73 0 -129 -50.5
t-67 -127.5q-11 -78 30 -129.5t114 -51.5q25 0 54.5 9t59 26t55.5 39q8 8 18.5 8t17.5 -8l88 -110q6 -7 4 -17.5t-9 -16.5q-37 -33 -80 -59.5t-89 -44.5t-91 -26l-8 -11q25 -14 37 -38.5t8 -55.5q-8 -58 -56.5 -93t-111.5 -35q-57 0 -104 35q-7 5 -8 14.5t3 16.5l43 71
q0 2 1.5 4t5.5 6.5t8.5 6.5t11.5 0.5t13 -9.5q13 -13 31 -13q17 0 18 12q1 3 0.5 4.5t-5.5 4t-14 2.5q-10 0 -33 -4h-11zM604 195q-94 -72 -185 -72q-94 0 -147.5 67t-39.5 164q14 96 86.5 162t166.5 66q46 0 89 -20.5t75 -57.5l81 82q-43 44 -105.5 69.5t-128.5 25.5
q-150 0 -263 -94t-133 -235q-19 -132 51 -224.5t199 -107.5q17 -2 20.5 -11t-1.5 -17l-5 -8l-24 -39q27 -2 43.5 -18.5t12.5 -42.5q-3 -26 -25 -44t-51 -18q-18 0 -36 8l-15 -24q31 -16 61 -16q47 0 76.5 21.5t34.5 56.5q6 44 -41 57q-29 8 -11 35l31 47q7 12 20 14
q120 17 223 100z" />
    <glyph glyph-name="Egrave" unicode="&#xc8;" horiz-adv-x="674" 
d="M502 786l-55 113l-102 -34l80 -79h77zM540 736h-132q-9 0 -15 6l-114 113l-3 3t-5 7.5t-3 10.5t6 11t19 11l164 55q9 2 17 -1t11 -10l82 -168l0.5 -1t1.5 -3.5t1.5 -5t1 -6t-0.5 -6.5t-3 -6t-5.5 -5t-9 -3.5t-13.5 -1.5zM677 585l13 90h-498l-93 -650h509l13 90h-356
q-9 0 -16 7t-6 18l20 141q2 9 10 17t19 8h309l13 90h-309q-9 0 -16 7t-5 18l20 139q1 9 9.5 17t18.5 8h345zM695 535h-345l-13 -89h309q11 0 17 -8t5 -17l-21 -140q-1 -11 -10 -18t-18 -7h-309l-13 -91h356q10 0 16 -8t5 -17l-20 -140q-1 -5 -4 -10t-7 -8t-9 -5t-9 -2h-559
q-10 0 -16 8t-5 17l101 700q1 11 10.5 18t17.5 7h548q11 0 17 -8t5 -17l-20 -140q-1 -7 -6 -13t-11 -9t-12 -3z" />
    <glyph glyph-name="Eacute" unicode="&#xc9;" horiz-adv-x="674" 
d="M598 865l-92 34l-87 -113h77zM662 855l-147 -113q-8 -6 -17 -6h-132h-2.5t-6 0.5t-7.5 1.5t-6.5 4t-3.5 7t1.5 10.5t8.5 14.5l131 168q13 17 31 11l148 -55q1 -1 3.5 -2t8 -4.5t7 -8t-2 -12t-14.5 -16.5zM677 585l13 90h-498l-93 -650h509l13 90h-356q-9 0 -16 7t-6 18
l20 141q2 9 10 17t19 8h309l13 90h-309q-9 0 -16 7t-5 18l20 139q1 9 9.5 17t18.5 8h345zM695 535h-345l-13 -89h309q11 0 17 -8t5 -17l-21 -140q-1 -11 -10 -18t-18 -7h-309l-13 -91h356q10 0 16 -8t5 -17l-20 -140q-1 -5 -4 -10t-7 -8t-9 -5t-9 -2h-559q-10 0 -16 8t-5 17
l101 700q1 11 10.5 18t17.5 7h548q11 0 17 -8t5 -17l-20 -140q-1 -7 -6 -13t-11 -9t-12 -3z" />
    <glyph glyph-name="Ecircumflex" unicode="&#xca;" horiz-adv-x="674" 
d="M593 796l-61 101h-113l-90 -101h60l62 74q12 15 22.5 15t14.5 -8l4 -7l40 -74h61zM636 746h-124q-14 0 -20 11l-29 55l-45 -55q-9 -11 -22 -11h-124h-3.5t-6 1t-8 2.5t-6.5 4.5t-3.5 7t2.5 10.5t10 14.5l135 151q9 10 21 10h138q13 0 19 -10l91 -151q1 -1 1.5 -2.5
t2 -5.5t2 -8t-0.5 -8.5t-4 -7.5t-9.5 -5.5t-16.5 -2.5zM677 585l13 90h-498l-93 -650h509l13 90h-356q-9 0 -16 7t-6 18l20 141q2 9 10 17t19 8h309l13 90h-309q-9 0 -16 7t-5 18l20 139q1 9 9.5 17t18.5 8h345zM695 535h-345l-13 -89h309q11 0 17 -8t5 -17l-21 -140
q-1 -11 -10 -18t-18 -7h-309l-13 -91h356q10 0 16 -8t5 -17l-20 -140q-1 -5 -4 -10t-7 -8t-9 -5t-9 -2h-559q-10 0 -16 8t-5 17l101 700q1 11 10.5 18t17.5 7h548q11 0 17 -8t5 -17l-20 -140q-1 -7 -6 -13t-11 -9t-12 -3z" />
    <glyph glyph-name="Edieresis" unicode="&#xcb;" horiz-adv-x="674" 
d="M380 905q-24 0 -40.5 -14.5t-19.5 -38.5q-4 -24 8.5 -38t36.5 -14t40.5 14t20.5 38q1 10 0 18t-5 14.5t-9.5 11t-13.5 7t-18 2.5zM388 955q43 0 68.5 -29.5t19.5 -73.5q-7 -44 -40.5 -73t-77.5 -29t-69.5 29t-18.5 73q4 29 21 53t42.5 37t54.5 13zM573 905
q-24 0 -40.5 -14.5t-19.5 -38.5q-2 -16 2.5 -27.5t15.5 -18t27 -6.5q24 0 40.5 14t20.5 38q3 24 -9.5 38.5t-36.5 14.5zM581 955q43 0 68.5 -29.5t19.5 -73.5q-7 -44 -40.5 -73t-77.5 -29t-69.5 29t-18.5 73q4 29 21 53t42.5 37t54.5 13zM677 585l13 90h-498l-93 -650h509
l13 90h-356q-9 0 -16 7t-6 18l20 141q2 9 10 17t19 8h309l13 90h-309q-9 0 -16 7t-5 18l20 139q1 9 9.5 17t18.5 8h345zM695 535h-345l-13 -89h309q11 0 17 -8t5 -17l-21 -140q-1 -11 -10 -18t-18 -7h-309l-13 -91h356q10 0 16 -8t5 -17l-20 -140q-1 -5 -4 -10t-7 -8t-9 -5
t-9 -2h-559q-10 0 -16 8t-5 17l101 700q1 11 10.5 18t17.5 7h548q11 0 17 -8t5 -17l-20 -140q-1 -7 -6 -13t-11 -9t-12 -3z" />
    <glyph glyph-name="Igrave" unicode="&#xcc;" horiz-adv-x="318" 
d="M315 786l-55 113l-102 -34l80 -79h77zM353 736h-132q-9 0 -15 6l-114 113l-2 2t-3.5 4t-4 6t-1.5 7.5t2 8t8 7.5t15 8l164 55q9 2 17 -1t11 -10l82 -168l1 -1.5t2 -5.5t1.5 -7.5t-0.5 -8t-4.5 -8t-10 -5.5t-16.5 -2zM227 25l93 650h-128l-93 -650h128zM244 -25h-178
q-10 0 -16 8t-5 17l101 700q1 11 10.5 18t17.5 7h178q11 0 17 -8t5 -17l-101 -700q-1 -7 -6 -13t-11 -9t-12 -3z" />
    <glyph glyph-name="Iacute" unicode="&#xcd;" horiz-adv-x="318" 
d="M410 865l-92 34l-87 -113h77zM474 855l-147 -113q-8 -6 -17 -6h-132h-2.5t-6 0.5t-7.5 1.5t-6.5 4t-3.5 7t1.5 10.5t8.5 14.5l131 168q13 17 31 11l148 -55q1 -1 3.5 -2t8 -4.5t7 -8t-2 -12t-14.5 -16.5zM227 25l93 650h-128l-93 -650h128zM244 -25h-178q-10 0 -16 8
t-5 17l101 700q1 11 10.5 18t17.5 7h178q11 0 17 -8t5 -17l-101 -700q-1 -7 -6 -13t-11 -9t-12 -3z" />
    <glyph glyph-name="Icircumflex" unicode="&#xce;" horiz-adv-x="318" 
d="M406 796l-61 101h-113l-90 -101h60l62 74q12 15 22.5 15t14.5 -8l4 -7l40 -74h61zM448 746h-124q-13 0 -19 11l-29 55l-45 -55q-9 -11 -23 -11h-124h-2.5t-6 1t-8 2.5t-6.5 4.5t-3.5 7t2.5 10.5t10 14.5l135 151q9 10 21 10h138q13 0 19 -10l91 -151q1 -2 2.5 -4.5
t3 -9.5t0 -12t-9.5 -9.5t-22 -4.5zM227 25l93 650h-128l-93 -650h128zM244 -25h-178q-10 0 -16 8t-5 17l101 700q1 11 10.5 18t17.5 7h178q11 0 17 -8t5 -17l-101 -700q-1 -7 -6 -13t-11 -9t-12 -3z" />
    <glyph glyph-name="Idieresis" unicode="&#xcf;" horiz-adv-x="318" 
d="M193 905q-24 0 -40.5 -14.5t-19.5 -38.5q-4 -24 8.5 -38t36.5 -14q16 0 29 6.5t21.5 18t10.5 27.5q3 24 -9.5 38.5t-36.5 14.5zM201 955q43 0 68.5 -29.5t19.5 -73.5q-7 -44 -40.5 -73t-77.5 -29t-69.5 29t-18.5 73q4 29 21 53t42.5 37t54.5 13zM386 905q-15 0 -28 -6.5
t-21.5 -18.5t-10.5 -28q-4 -24 8.5 -38t36.5 -14t40.5 14t20.5 38q2 12 -0.5 22t-8.5 17t-15.5 10.5t-21.5 3.5zM394 955q43 0 68.5 -29.5t19.5 -73.5q-4 -29 -21 -52.5t-42.5 -36.5t-54.5 -13q-44 0 -69.5 29t-18.5 73q4 29 21 53t42.5 37t54.5 13zM227 25l93 650h-128
l-93 -650h128zM244 -25h-178q-10 0 -16 8t-5 17l101 700q1 11 10.5 18t17.5 7h178q11 0 17 -8t5 -17l-101 -700q-1 -7 -6 -13t-11 -9t-12 -3z" />
    <glyph glyph-name="Eth" unicode="&#xd0;" horiz-adv-x="799" 
d="M224 675l-40 -277q-1 -9 -9.5 -17t-18.5 -8h-77l-7 -44h77q9 0 16 -7t6 -18l-40 -279h269q159 0 269.5 90t130.5 235q14 96 -18.5 170t-105.5 114.5t-176 40.5h-276zM206 725h301q175 0 271 -104.5t72 -270.5q-23 -166 -151.5 -270.5t-306.5 -104.5h-294q-10 0 -16 8
t-5 17l40 279h-77q-10 0 -16 8t-5 17l13 94q2 11 11 18t18 7h77l40 277q1 11 10.5 18t17.5 7zM296 117q-9 0 -16 7t-6 18l24 162q1 6 4.5 11.5t10 9.5t13.5 4h134l7 44h-134q-6 0 -11 3t-8.5 9t-2.5 13l23 160q2 9 10 17t19 8h120q96 0 148.5 -66t37.5 -168
q-14 -101 -83 -166.5t-162 -65.5h-128zM328 167h103q71 0 123.5 49.5t64.5 132.5t-28 133.5t-115 50.5h-95l-16 -110h134q11 0 17 -8t4 -17l-13 -94q-1 -7 -6 -13t-11 -9t-12 -3h-134z" />
    <glyph glyph-name="Ntilde" unicode="&#xd1;" horiz-adv-x="786" 
d="M452 913q-25 0 -42 -9t-30.5 -33t-22.5 -64h58q9 23 26 34q15 9 32 9q29 0 57.5 -23.5t52.5 -23.5t41 9t30.5 32.5t21.5 63.5h-57q-9 -21 -24 -32q-16 -10 -35 -10q-28 0 -57 23.5t-51 23.5zM459 963q14 0 28 -2.5t24 -6.5t19 -9t15.5 -10.5t11 -9.5t7.5 -6.5l3 -2.5h3
q4 5 5 17q1 7 6 13t11.5 9t11.5 3h105q11 0 17 -8t4 -17q-12 -85 -51 -132.5t-103 -47.5q-15 0 -29 2.5t-24.5 6.5t-19.5 9t-15.5 10.5t-11 9.5t-7 6.5t-3.5 2.5h-2q-3 -5 -5 -18q-2 -11 -11 -18t-18 -7h-106q-11 0 -17 8t-4 17q12 85 51.5 133t104.5 48zM695 25l93 650
h-116l-58 -407q-3 -20 -15 -24t-22 3l-11 6l-254 422h-120l-93 -650h117l58 406q3 20 15 24t22 -3l10 -6l254 -421h120zM712 -25h-157q-12 0 -18 10l-224 371l-51 -356q-1 -5 -4 -10t-7 -8t-9 -5t-9 -2h-167q-10 0 -16 8t-5 17l101 700q1 11 10.5 18t17.5 7h157q13 0 19 -10
l224 -372l52 357q1 11 10.5 18t17.5 7h166q11 0 17 -8t5 -17l-101 -700q-1 -7 -6 -13t-11 -9t-12 -3z" />
    <glyph glyph-name="Ograve" unicode="&#xd2;" horiz-adv-x="805" 
d="M551 786l-55 113l-102 -34l80 -79h77zM589 736h-132q-9 0 -15 6l-114 113l-3 3t-5 7.5t-3 10.5t6 11t19 11l164 55q9 2 17 -1t11 -10l82 -168q1 -1 2 -3.5t2 -9.5t-0.5 -12t-9 -9t-21.5 -4zM500 681q-153 0 -266.5 -94t-133.5 -236q-21 -143 65.5 -238.5t238.5 -95.5
q153 0 267.5 95.5t135.5 238.5q20 142 -67 236t-240 94zM507 731q113 0 198.5 -49t126 -136.5t25.5 -194.5q-16 -108 -81.5 -196t-165.5 -138t-213 -50q-112 0 -197.5 50t-125.5 138t-24 196q15 108 80.5 195t165 136t211.5 49zM488 582q92 0 146 -67t39.5 -165t-87.5 -166
t-165 -68t-148 68t-41.5 166t89 165t167.5 67zM481 532q-72 0 -130 -52t-70 -130q-5 -38 4 -72.5t29 -59t50 -38.5t64 -14q70 0 127 52.5t68 131.5q8 52 -9 94t-52 65t-81 23z" />
    <glyph glyph-name="Oacute" unicode="&#xd3;" horiz-adv-x="805" 
d="M646 865l-92 34l-87 -113h77zM710 855l-147 -113q-8 -6 -17 -6h-132h-2.5t-6 0.5t-7.5 1.5t-6.5 4t-3.5 7t1.5 10.5t8.5 14.5l131 168q13 17 31 11l148 -55q1 -1 3.5 -2t8 -4.5t7 -8t-2 -12t-14.5 -16.5zM500 681q-153 0 -266.5 -94t-133.5 -236q-21 -143 65.5 -238.5
t238.5 -95.5q153 0 267.5 95.5t135.5 238.5q20 142 -67 236t-240 94zM507 731q113 0 198.5 -49t126 -136.5t25.5 -194.5q-16 -108 -81.5 -196t-165.5 -138t-213 -50q-112 0 -197.5 50t-125.5 138t-24 196q15 108 80.5 195t165 136t211.5 49zM488 582q92 0 146 -67t39.5 -165
t-87.5 -166t-165 -68t-148 68t-41.5 166t89 165t167.5 67zM481 532q-72 0 -130 -52t-70 -130q-5 -38 4 -72.5t29 -59t50 -38.5t64 -14q70 0 127 52.5t68 131.5q8 52 -9 94t-52 65t-81 23z" />
    <glyph glyph-name="Ocircumflex" unicode="&#xd4;" horiz-adv-x="805" 
d="M642 796l-61 101h-113l-90 -101h60l62 74q12 15 22.5 15t14.5 -8l4 -7l40 -74h61zM684 746h-124q-13 0 -19 11l-29 55l-45 -55q-9 -11 -23 -11h-124h-2.5t-6 1t-8 2.5t-6.5 4.5t-3.5 7t2.5 10.5t10 14.5l135 151q9 10 21 10h138q13 0 19 -10l91 -151q1 -1 1.5 -2.5
t2 -5.5t2 -8t-0.5 -8.5t-4 -7.5t-9.5 -5.5t-17.5 -2.5zM500 681q-153 0 -266.5 -94t-133.5 -236q-21 -143 65.5 -238.5t238.5 -95.5q153 0 267.5 95.5t135.5 238.5q20 142 -67 236t-240 94zM507 731q113 0 198.5 -49t126 -136.5t25.5 -194.5q-16 -108 -81.5 -196
t-165.5 -138t-213 -50q-112 0 -197.5 50t-125.5 138t-24 196q15 108 80.5 195t165 136t211.5 49zM488 582q92 0 146 -67t39.5 -165t-87.5 -166t-165 -68t-148 68t-41.5 166t89 165t167.5 67zM481 532q-72 0 -130 -52t-70 -130q-5 -38 4 -72.5t29 -59t50 -38.5t64 -14
q70 0 127 52.5t68 131.5q8 52 -9 94t-52 65t-81 23z" />
    <glyph glyph-name="Otilde" unicode="&#xd5;" horiz-adv-x="805" 
d="M454 913q-37 0 -59.5 -23.5t-35.5 -82.5h58q9 23 26 34q15 9 32 9q29 0 57.5 -23.5t52.5 -23.5t41 9t30.5 32.5t21.5 63.5h-57q-9 -21 -24 -32q-16 -10 -35 -10q-28 0 -57 23.5t-51 23.5zM461 963q14 0 28 -2.5t24 -6.5t19 -9t15.5 -10.5t11 -9.5t7.5 -6.5l3 -2.5h3
q4 5 5 17q2 11 11 18t18 7h105q11 0 17 -8t4 -17q-12 -85 -51 -132.5t-103 -47.5q-15 0 -29 2.5t-24.5 6.5t-19.5 9t-15.5 10.5t-11 9.5t-7 6.5t-3.5 2.5h-2q-3 -5 -5 -18q-2 -11 -11 -18t-18 -7h-106q-11 0 -17 8t-4 17q12 85 51.5 133t104.5 48zM500 681
q-153 0 -266.5 -94t-133.5 -236q-21 -143 65.5 -238.5t238.5 -95.5q153 0 267.5 95.5t135.5 238.5q20 142 -67 236t-240 94zM507 731q113 0 198.5 -49t126 -136.5t25.5 -194.5q-16 -108 -81.5 -196t-165.5 -138t-213 -50q-112 0 -197.5 50t-125.5 138t-24 196
q15 108 80.5 195t165 136t211.5 49zM488 582q92 0 146 -67t39.5 -165t-87.5 -166t-165 -68t-148 68t-41.5 166t89 165t167.5 67zM481 532q-72 0 -130 -52t-70 -130q-5 -38 4 -72.5t29 -59t50 -38.5t64 -14q70 0 127 52.5t68 131.5q8 52 -9 94t-52 65t-81 23z" />
    <glyph glyph-name="Odieresis" unicode="&#xd6;" horiz-adv-x="805" 
d="M429 905q-15 0 -28 -6.5t-21.5 -18.5t-10.5 -28q-4 -24 8.5 -38t36.5 -14t40.5 14t20.5 38q2 12 -0.5 22t-8.5 17t-15.5 10.5t-21.5 3.5zM437 955q43 0 68.5 -29.5t19.5 -73.5q-7 -44 -40.5 -73t-77.5 -29t-69.5 29t-18.5 73q4 29 21 53t42.5 37t54.5 13zM622 905
q-24 0 -40.5 -14.5t-19.5 -38.5q-2 -16 2.5 -27.5t15.5 -18t27 -6.5q24 0 40.5 14t20.5 38q3 24 -9.5 38.5t-36.5 14.5zM630 955q43 0 68.5 -29.5t19.5 -73.5q-7 -44 -40.5 -73t-77.5 -29t-69.5 29t-18.5 73q4 29 21 53t42.5 37t54.5 13zM500 681q-153 0 -266.5 -94
t-133.5 -236q-21 -143 65.5 -238.5t238.5 -95.5q153 0 267.5 95.5t135.5 238.5q20 142 -67 236t-240 94zM507 731q113 0 198.5 -49t126 -136.5t25.5 -194.5q-16 -108 -81.5 -196t-165.5 -138t-213 -50q-112 0 -197.5 50t-125.5 138t-24 196q15 108 80.5 195t165 136
t211.5 49zM488 582q92 0 146 -67t39.5 -165t-87.5 -166t-165 -68t-148 68t-41.5 166t89 165t167.5 67zM481 532q-72 0 -130 -52t-70 -130q-5 -38 4 -72.5t29 -59t50 -38.5t64 -14q70 0 127 52.5t68 131.5q8 52 -9 94t-52 65t-81 23z" />
    <glyph glyph-name="multiply" unicode="&#xd7;" horiz-adv-x="510" 
d="M359 309q-6 7 -4.5 17.5t9.5 18.5l115 100l-36 42l-115 -101q-7 -6 -17.5 -6.5t-17.5 6.5l-87 101l-47 -42l86 -100q7 -8 5.5 -18t-10.5 -18l-116 -101l36 -42l116 102q8 7 18.5 7t16.5 -7l86 -102l48 42zM414 327l86 -101q6 -8 4.5 -18.5t-9.5 -17.5l-88 -77
q-8 -7 -18.5 -7t-16.5 7l-86 102l-116 -102q-10 -7 -20 -6.5t-15 6.5l-66 77q-6 9 -4 19t9 17l116 101l-87 100q-6 7 -4.5 17.5t9.5 18.5l88 77q9 7 19.5 6.5t15.5 -6.5l87 -101l115 101q10 7 20 6.5t15 -6.5l66 -77q7 -9 4.5 -19t-9.5 -17z" />
    <glyph glyph-name="Oslash" unicode="&#xd8;" horiz-adv-x="805" 
d="M674 784h-47l-44 -90q-4 -8 -13 -13t-17 -4q-23 4 -53 4q-153 0 -266.5 -94t-133.5 -236q-15 -99 24 -177t119 -119q7 -4 9.5 -13t-1.5 -18l-55 -112h47l48 97q4 8 13 13t18 3q38 -8 82 -8q153 0 267.5 95.5t135.5 238.5q15 106 -31.5 187.5t-138.5 118.5q-9 3 -12 12.5
t2 18.5zM735 801l-53 -107q97 -46 144 -137t31 -206q-16 -108 -81.5 -196t-165.5 -138t-213 -50q-37 0 -71 6l-47 -94q-8 -17 -26 -17h-100h-3.5t-8.5 1t-8 4.5t-3.5 10t4.5 17.5l62 125q-83 50 -122.5 137t-23.5 194q15 108 80.5 195t165 136t211.5 49q21 0 40 -2l43 88
q8 17 26 17h100h4t8 -1t8 -4.5t4 -10t-5 -17.5zM231 350q15 98 89.5 165t167.5 67h4q17 0 22 -8.5t1 -16.5l-4 -8l-182 -369q-9 -17 -19.5 -19.5t-16.5 2.5l-6 6q-33 33 -48 80t-8 101zM281 350q-9 -64 22 -115l145 294q-62 -12 -109.5 -61.5t-57.5 -117.5zM421 116
q-16 0 -43 4q-12 2 -16.5 9.5t-3 13t3.5 10.5l191 387q14 29 38 14q48 -30 70 -84t12 -120q-14 -98 -87 -166t-165 -68zM428 166q70 0 127 52.5t68 131.5q13 89 -40 142l-161 -326h6z" />
    <glyph glyph-name="Ugrave" unicode="&#xd9;" horiz-adv-x="758" 
d="M535 786l-55 113l-102 -34l80 -79h77zM573 736h-132q-9 0 -15 6l-114 113l-3 3t-5 7.5t-3 10.5t6 11t19 11l164 55q9 2 17 -1t11 -10l82 -168q1 -1 2 -3.5t2 -9.5t-0.5 -12t-9 -9t-21.5 -4zM772 675h-127l-55 -381q-11 -80 -64 -129t-127 -49q-75 0 -116 49t-30 129
l55 381h-128l-55 -381q-18 -128 51 -202.5t207 -74.5t227 74t107 203zM826 700l-59 -406q-21 -149 -128 -238t-263 -89q-157 0 -239.5 89t-61.5 238l59 406q1 11 10.5 18t17.5 7h178q11 0 17 -8t5 -17l-59 -406q-8 -61 20 -94.5t83 -33.5q53 0 89.5 33.5t44.5 94.5l59 406
q1 7 6 13t11 9t11 3h177q11 0 17 -8t5 -17z" />
    <glyph glyph-name="Uacute" unicode="&#xda;" horiz-adv-x="758" 
d="M631 865l-92 34l-87 -113h77zM695 855l-147 -113q-8 -6 -17 -6h-132h-2.5t-6 0.5t-7.5 1.5t-6.5 4t-3.5 7t1.5 10.5t8.5 14.5l131 168q13 17 31 11l148 -55q1 -1 3.5 -2t8 -4.5t7 -8t-2 -12t-14.5 -16.5zM772 675h-127l-55 -381q-11 -80 -64 -129t-127 -49q-75 0 -116 49
t-30 129l55 381h-128l-55 -381q-18 -128 51 -202.5t207 -74.5t227 74t107 203zM826 700l-59 -406q-21 -149 -128 -238t-263 -89q-157 0 -239.5 89t-61.5 238l59 406q1 11 10.5 18t17.5 7h178q11 0 17 -8t5 -17l-59 -406q-8 -61 20 -94.5t83 -33.5q53 0 89.5 33.5t44.5 94.5
l59 406q1 7 6 13t11 9t11 3h177q11 0 17 -8t5 -17z" />
    <glyph glyph-name="Ucircumflex" unicode="&#xdb;" horiz-adv-x="758" 
d="M627 796l-61 101h-113l-90 -101h60l62 74q12 15 22.5 15t14.5 -8l4 -7l40 -74h61zM670 746h-124q-14 0 -20 11l-29 55l-45 -55q-9 -11 -22 -11h-124h-3.5t-6 1t-8 2.5t-6.5 4.5t-3.5 7t2.5 10.5t10 14.5l135 151q9 10 21 10h138q13 0 19 -10l91 -151q1 -1 1.5 -2.5
t2 -5.5t2 -8t-0.5 -8.5t-4 -7.5t-9.5 -5.5t-16.5 -2.5zM772 675h-127l-55 -381q-11 -80 -64 -129t-127 -49q-75 0 -116 49t-30 129l55 381h-128l-55 -381q-18 -128 51 -202.5t207 -74.5t227 74t107 203zM826 700l-59 -406q-21 -149 -128 -238t-263 -89q-157 0 -239.5 89
t-61.5 238l59 406q1 11 10.5 18t17.5 7h178q11 0 17 -8t5 -17l-59 -406q-8 -61 20 -94.5t83 -33.5q53 0 89.5 33.5t44.5 94.5l59 406q1 7 6 13t11 9t11 3h177q11 0 17 -8t5 -17z" />
    <glyph glyph-name="Udieresis" unicode="&#xdc;" horiz-adv-x="758" 
d="M414 905q-15 0 -28 -6.5t-21.5 -18.5t-10.5 -28q-4 -24 8.5 -38t36.5 -14t40.5 14t20.5 38q3 24 -9.5 38.5t-36.5 14.5zM422 955q43 0 68.5 -29.5t19.5 -73.5q-7 -44 -40.5 -73t-77.5 -29t-69.5 29t-18.5 73q4 29 21 53t42.5 37t54.5 13zM607 905q-24 0 -40.5 -14.5
t-19.5 -38.5q-2 -16 2.5 -27.5t15.5 -18t27 -6.5q24 0 40.5 14t20.5 38q3 24 -9.5 38.5t-36.5 14.5zM615 955q43 0 68.5 -29.5t19.5 -73.5q-7 -44 -40.5 -73t-77.5 -29t-69.5 29t-18.5 73q4 29 21 53t42.5 37t54.5 13zM772 675h-127l-55 -381q-11 -80 -64 -129t-127 -49
q-75 0 -116 49t-30 129l55 381h-128l-55 -381q-18 -128 51 -202.5t207 -74.5t227 74t107 203zM826 700l-59 -406q-21 -149 -128 -238t-263 -89q-157 0 -239.5 89t-61.5 238l59 406q1 11 10.5 18t17.5 7h178q11 0 17 -8t5 -17l-59 -406q-8 -61 20 -94.5t83 -33.5
q53 0 89.5 33.5t44.5 94.5l59 406q1 7 6 13t11 9t11 3h177q11 0 17 -8t5 -17z" />
    <glyph glyph-name="Yacute" unicode="&#xdd;" horiz-adv-x="680" 
d="M489 786l102 79l-92 34l-87 -113h77zM491 736h-132h-2.5t-6 0.5t-7.5 1.5t-6.5 4t-3.5 7t1.5 10.5t8.5 14.5l131 168q13 17 31 11l148 -55q1 -1 3.5 -2t8 -4.5t7 -8t-2 -12t-14.5 -16.5l-147 -113q-8 -6 -17 -6zM439 226q0 6 4 12l298 437h-122l-200 -292
q-8 -12 -15.5 -16.5t-12.5 -2t-8.5 6.5t-5.5 8l-2 4l-119 292h-122l176 -442q2 -6 1 -12l-28 -196h127zM488 220l-32 -220q-1 -7 -6 -13t-11 -9t-12 -3h-177q-10 0 -16 8t-5 17l31 215l-188 473q0 1 -0.5 2.5t-1.5 5t-1.5 7t1 8t4.5 7.5t9.5 5t15.5 2h178q15 0 20 -13
l109 -265l182 265q9 13 23 13h178q0 -1 4.5 0t9.5 -1t9 -5t3 -11t-9 -20z" />
    <glyph glyph-name="Thorn" unicode="&#xde;" horiz-adv-x="689" 
d="M332 583q-9 0 -16 7t-5 18l9 67h-128l-93 -650h128l12 87q1 6 5 11.5t10.5 9.5t13.5 4h122q130 0 209 61t95 169q14 101 -47.5 158.5t-192.5 57.5h-122zM364 633h97q147 0 224 -71t59 -195q-19 -129 -117 -204.5t-244 -75.5h-97l-13 -87q-1 -7 -6 -13t-11 -9t-12 -3h-178
q-10 0 -16 8t-5 17l101 700q1 11 10.5 18t17.5 7h178q11 0 17 -8t5 -17zM280 223q-9 0 -16 7t-5 18l32 224q1 9 9.5 17t19.5 8h115q66 0 100.5 -36t25.5 -99q-6 -43 -28.5 -74.5t-58 -48t-79.5 -16.5h-115zM312 273h90q50 0 76.5 22t32.5 67q6 43 -14 64t-70 21h-90z" />
    <glyph glyph-name="germandbls" unicode="&#xdf;" horiz-adv-x="662" 
d="M433 725q-115 0 -189.5 -62.5t-89.5 -170.5l-67 -467h122l69 479q9 64 47.5 102.5t97.5 38.5q52 0 78.5 -33t19.5 -87q-5 -33 -21.5 -59t-43 -42t-60.5 -21l-10 -73q65 -2 102.5 -31t29.5 -84t-52.5 -86t-108.5 -31h-16l-10 -73h24q118 0 193 52.5t87 136.5q8 54 -19 92
t-80 53q-12 3 -17 9.5t-2 12.5t7 11.5t9 8.5l4 4q27 14 49 36t36.5 50.5t18.5 58.5q12 79 -43.5 127t-164.5 48zM441 775q81 0 141 -27t89.5 -78.5t19.5 -119.5q-6 -46 -31 -88t-61 -72q48 -26 71 -71.5t15 -104.5q-16 -108 -110 -173.5t-228 -65.5h-49q-10 0 -16 8t-5 17
l18 123q1 11 10 18t18 7h41q94 0 104 67q4 31 -18 48t-79 17h-18q-10 0 -16 8t-5 17l18 122q1 11 10 18t18 7q29 0 48.5 8t30 24t14.5 41q2 19 0 32t-9 21.5t-18.5 12.5t-27.5 4q-75 0 -88 -91l-73 -504q-1 -5 -4 -10t-7 -8t-9 -5t-9 -2h-172q-10 0 -16 8t-5 17l71 492
q18 128 110.5 205.5t226.5 77.5z" />
    <glyph glyph-name="agrave" unicode="&#xe0;" horiz-adv-x="600" 
d="M354 625h78l-55 113l-102 -34zM322 581l-113 113q-2 1 -3.5 3t-4.5 7.5t-3 10.5t6 11t19 11l164 55q8 2 16 -1t12 -10l82 -168q0 -1 1.5 -3.5t2.5 -9.5t-1 -12t-9.5 -9t-20.5 -4h-132q-9 0 -16 6zM386 522q-105 0 -224 -49l19 -67q87 36 154 36q59 0 90 -29.5t24 -80.5
l-1 -8q-2 -9 -10 -17t-19 -8h-142q-182 -1 -202 -138q-6 -43 7.5 -75t47.5 -50.5t84 -18.5q100 0 154 60q7 8 13 11t10 2t7.5 -3.5t6 -7t4 -8t1.5 -6.5l1 -3l-5 -37h119l47 327q11 81 -36 125.5t-150 44.5zM393 572q119 0 181 -58.5t48 -161.5l-51 -352q-1 -7 -6 -13t-11 -9
t-12 -3h-169q-10 0 -16 8t-5 17l1 5q-62 -38 -146 -38q-94 0 -144 54t-38 140q13 88 82.5 137.5t176.5 50.5h116q-4 43 -73 43q-66 0 -155 -42q-9 -5 -19.5 -2t-13.5 14l-32 114q-3 9 2 19t15 14q145 63 269 63zM277 84q-44 0 -69 24.5t-19 64.5q6 41 37.5 62t77.5 21h109
q9 0 16 -7t5 -18l-7 -48q0 -3 -1 -6q-11 -28 -34.5 -49.5t-53.5 -32.5t-61 -11zM284 134q33 0 58.5 15t35.5 37l3 20h-84q-33 0 -44 -7.5t-14 -25.5q-3 -19 7.5 -29t37.5 -10z" />
    <glyph glyph-name="aacute" unicode="&#xe1;" horiz-adv-x="600" 
d="M426 625l102 79l-92 34l-88 -113h78zM428 575h-132h-2.5t-6 0.5t-7.5 1.5t-6.5 4t-3.5 7t1.5 10.5t8.5 14.5l130 168q14 17 31 11l148 -55q2 -1 4.5 -2t7.5 -4.5t7 -8t-1.5 -12t-15.5 -16.5l-146 -113q-8 -6 -17 -6zM386 522q-105 0 -224 -49l19 -67q87 36 154 36
q59 0 90 -29.5t24 -80.5l-1 -8q-2 -9 -10 -17t-19 -8h-142q-182 -1 -202 -138q-6 -43 7.5 -75t47.5 -50.5t84 -18.5q100 0 154 60q7 8 13 11t10 2t7.5 -3.5t6 -7t4 -8t1.5 -6.5l1 -3l-5 -37h119l47 327q11 81 -36 125.5t-150 44.5zM393 572q119 0 181 -58.5t48 -161.5
l-51 -352q-1 -7 -6 -13t-11 -9t-12 -3h-169q-10 0 -16 8t-5 17l1 5q-62 -38 -146 -38q-94 0 -144 54t-38 140q13 88 82.5 137.5t176.5 50.5h116q-4 43 -73 43q-66 0 -155 -42q-9 -5 -19.5 -2t-13.5 14l-32 114q-3 9 2 19t15 14q145 63 269 63zM277 84q-44 0 -69 24.5
t-19 64.5q6 41 37.5 62t77.5 21h109q9 0 16 -7t5 -18l-7 -48q0 -3 -1 -6q-11 -28 -34.5 -49.5t-53.5 -32.5t-61 -11zM284 134q33 0 58.5 15t35.5 37l3 20h-84q-33 0 -44 -7.5t-14 -25.5q-3 -19 7.5 -29t37.5 -10z" />
    <glyph glyph-name="acircumflex" unicode="&#xe2;" horiz-adv-x="600" 
d="M319 635l62 74q12 15 22 15t15 -8l4 -7l40 -74h61l-61 101h-113l-91 -101h61zM325 585h-124q-2 0 -5 0.5t-9.5 2.5t-10 6t-1.5 12t12 19l135 151q9 10 21 10h138q13 0 19 -10l91 -151q1 -2 2.5 -4.5t2.5 -9.5t-0.5 -12t-9 -9.5t-21.5 -4.5h-124q-13 0 -19 11l-29 55
l-45 -55q-9 -11 -23 -11zM386 522q-105 0 -224 -49l19 -67q87 36 154 36q59 0 90 -29.5t24 -80.5l-1 -8q-2 -9 -10 -17t-19 -8h-142q-182 -1 -202 -138q-6 -43 7.5 -75t47.5 -50.5t84 -18.5q100 0 154 60q7 8 13 11t10 2t7.5 -3.5t6 -7t4 -8t1.5 -6.5l1 -3l-5 -37h119
l47 327q11 81 -36 125.5t-150 44.5zM393 572q119 0 181 -58.5t48 -161.5l-51 -352q-1 -7 -6 -13t-11 -9t-12 -3h-169q-10 0 -16 8t-5 17l1 5q-62 -38 -146 -38q-94 0 -144 54t-38 140q13 88 82.5 137.5t176.5 50.5h116q-4 43 -73 43q-66 0 -155 -42q-9 -5 -19.5 -2t-13.5 14
l-32 114q-3 9 2 19t15 14q145 63 269 63zM277 84q-44 0 -69 24.5t-19 64.5q6 41 37.5 62t77.5 21h109q9 0 16 -7t5 -18l-7 -48q0 -3 -1 -6q-11 -28 -34.5 -49.5t-53.5 -32.5t-61 -11zM284 134q33 0 58.5 15t35.5 37l3 20h-84q-33 0 -44 -7.5t-14 -25.5q-3 -19 7.5 -29
t37.5 -10z" />
    <glyph glyph-name="atilde" unicode="&#xe3;" horiz-adv-x="600" 
d="M356 689q28 0 57 -23.5t53 -23.5t41 9t30 32.5t22 63.5h-57q-9 -21 -25 -32q-15 -10 -34 -10q-28 0 -57 23.5t-52 23.5q-37 0 -59.5 -23.5t-34.5 -82.5h58q8 23 26 34q15 9 32 9zM349 639h-2q-4 -5 -6 -18q0 -5 -3 -10t-7.5 -8t-9 -5t-8.5 -2h-106q-11 0 -17 8t-5 17
q13 85 52.5 133t104.5 48q14 0 27.5 -2.5t24 -6.5t19.5 -9.5t15.5 -10.5t11 -9t7 -6.5t3.5 -2.5h3q3 5 5 17q2 11 11 18t18 7h105q10 0 16.5 -8t4.5 -17q-12 -85 -51 -132.5t-104 -47.5q-15 0 -28.5 2.5t-24 6.5t-19.5 9t-15.5 10.5t-11 9.5t-7 6.5t-3.5 2.5zM386 522
q-105 0 -224 -49l19 -67q87 36 154 36q59 0 90 -29.5t24 -80.5l-1 -8q-2 -9 -10 -17t-19 -8h-142q-182 -1 -202 -138q-6 -43 7.5 -75t47.5 -50.5t84 -18.5q100 0 154 60q7 8 13 11t10 2t7.5 -3.5t6 -7t4 -8t1.5 -6.5l1 -3l-5 -37h119l47 327q11 81 -36 125.5t-150 44.5z
M393 572q119 0 181 -58.5t48 -161.5l-51 -352q-1 -7 -6 -13t-11 -9t-12 -3h-169q-10 0 -16 8t-5 17l1 5q-62 -38 -146 -38q-94 0 -144 54t-38 140q13 88 82.5 137.5t176.5 50.5h116q-4 43 -73 43q-66 0 -155 -42q-9 -5 -19.5 -2t-13.5 14l-32 114q-3 9 2 19t15 14
q145 63 269 63zM277 84q-44 0 -69 24.5t-19 64.5q6 41 37.5 62t77.5 21h109q9 0 16 -7t5 -18l-7 -48q0 -3 -1 -6q-11 -28 -34.5 -49.5t-53.5 -32.5t-61 -11zM284 134q33 0 58.5 15t35.5 37l3 20h-84q-33 0 -44 -7.5t-14 -25.5q-3 -19 7.5 -29t37.5 -10z" />
    <glyph glyph-name="adieresis" unicode="&#xe4;" horiz-adv-x="600" 
d="M295 639q24 0 40.5 14t20.5 38q3 24 -9.5 38.5t-36.5 14.5t-40.5 -14.5t-19.5 -38.5q-4 -24 8.5 -38t36.5 -14zM288 589q-44 0 -69.5 29t-18.5 73q4 29 21 53t42.5 37t53.5 13q44 0 69.5 -29.5t19.5 -73.5q-5 -29 -22 -52.5t-42 -36.5t-54 -13zM488 639q24 0 40.5 14
t20.5 38q3 24 -9.5 38.5t-36.5 14.5t-40.5 -14.5t-19.5 -38.5q-4 -24 8.5 -38t36.5 -14zM481 589q-44 0 -69.5 29t-18.5 73q4 29 21 53t42.5 37t53.5 13q44 0 69.5 -29.5t19.5 -73.5q-5 -29 -22 -52.5t-42 -36.5t-54 -13zM386 522q-105 0 -224 -49l19 -67q87 36 154 36
q59 0 90 -29.5t24 -80.5l-1 -8q-2 -9 -10 -17t-19 -8h-142q-182 -1 -202 -138q-6 -43 7.5 -75t47.5 -50.5t84 -18.5q100 0 154 60q7 8 13 11t10 2t7.5 -3.5t6 -7t4 -8t1.5 -6.5l1 -3l-5 -37h119l47 327q11 81 -36 125.5t-150 44.5zM393 572q119 0 181 -58.5t48 -161.5
l-51 -352q-1 -7 -6 -13t-11 -9t-12 -3h-169q-10 0 -16 8t-5 17l1 5q-62 -38 -146 -38q-94 0 -144 54t-38 140q13 88 82.5 137.5t176.5 50.5h116q-4 43 -73 43q-66 0 -155 -42q-9 -5 -19.5 -2t-13.5 14l-32 114q-3 9 2 19t15 14q145 63 269 63zM277 84q-44 0 -69 24.5
t-19 64.5q6 41 37.5 62t77.5 21h109q9 0 16 -7t5 -18l-7 -48q0 -3 -1 -6q-11 -28 -34.5 -49.5t-53.5 -32.5t-61 -11zM284 134q33 0 58.5 15t35.5 37l3 20h-84q-33 0 -44 -7.5t-14 -25.5q-3 -19 7.5 -29t37.5 -10z" />
    <glyph glyph-name="aring" unicode="&#xe5;" horiz-adv-x="600" 
d="M385 599q40 0 72 28t38 67q3 19 -2 36.5t-16 30.5t-28 20.5t-36 7.5q-26 0 -50 -13t-40 -34.5t-20 -47.5q-6 -39 18 -67t64 -28zM378.5 549q-60.5 0 -97.5 42.5t-28 102.5t57.5 102.5t109 42.5t97.5 -42.5t28 -102.5t-57.5 -102.5t-109 -42.5zM410 771q32 0 52 -22.5
t15 -54.5t-31 -54.5t-58 -22.5t-52 22.5t-15 54.5t31 54.5t58 22.5zM403 721q-11 0 -20.5 -8.5t-11.5 -18.5q-2 -11 5 -19t19 -8q8 0 15 3.5t11.5 10t5.5 13.5q2 10 -5.5 18.5t-18.5 8.5zM386 522q-105 0 -224 -49l19 -67q87 36 154 36q59 0 90 -29.5t24 -80.5l-1 -8
q-2 -9 -10 -17t-19 -8h-142q-182 -1 -202 -138q-6 -43 7.5 -75t47.5 -50.5t84 -18.5q100 0 154 60q7 8 13 11t10 2t7.5 -3.5t6 -7t4 -8t1.5 -6.5l1 -3l-5 -37h119l47 327q11 81 -36 125.5t-150 44.5zM393 572q119 0 181 -58.5t48 -161.5l-51 -352q-1 -7 -6 -13t-11 -9
t-12 -3h-169q-10 0 -16 8t-5 17l1 5q-62 -38 -146 -38q-94 0 -144 54t-38 140q13 88 82.5 137.5t176.5 50.5h116q-4 43 -73 43q-66 0 -155 -42q-9 -5 -19.5 -2t-13.5 14l-32 114q-3 9 2 19t15 14q145 63 269 63zM277 84q-44 0 -69 24.5t-19 64.5q6 41 37.5 62t77.5 21h109
q9 0 16 -7t5 -18l-7 -48q0 -3 -1 -6q-11 -28 -34.5 -49.5t-53.5 -32.5t-61 -11zM284 134q33 0 58.5 15t35.5 37l3 20h-84q-33 0 -44 -7.5t-14 -25.5q-3 -19 7.5 -29t37.5 -10z" />
    <glyph glyph-name="ae" unicode="&#xe6;" horiz-adv-x="966" 
d="M738 520q-94 0 -160 -51q-8 -6 -17.5 -6t-15.5 7q-49 52 -158 52q-100 0 -226 -48l13 -68q92 36 163 36q38 0 66 -13t41 -38t8 -59l-2 -15q-1 -6 -5 -11.5t-10.5 -9.5t-13.5 -4h-144q-183 -1 -202 -133q-9 -65 29.5 -103.5t120.5 -38.5q142 0 214 102q9 12 16 16t12 2
t8.5 -5.5t5.5 -7.5l2 -4q46 -101 187 -101q122 0 210 70l-48 55q-64 -46 -136 -46q-58 0 -94 35t-40 94q-1 13 5.5 20t12.5 8.5t11 1.5h364q16 122 -41.5 192.5t-175.5 70.5zM745 570h19q136 -7 200 -100t36 -239q-1 -7 -5.5 -12.5t-10.5 -8.5t-12 -3h-354q18 -59 85 -59
q65 0 120 48q8 7 18.5 6.5t16.5 -6.5l78 -89q6 -7 4.5 -17.5t-8.5 -17.5q-110 -103 -269 -103q-145 0 -209 94q-90 -96 -236 -96q-99 0 -152.5 52.5t-40.5 139.5q12 87 82 134.5t177 48.5h119q0 50 -74 50q-71 0 -167 -43q-7 -5 -18 -2t-14 17l-23 116q-2 9 3 18t15 13
q149 61 269 61q114 0 175 -52q78 50 176 50zM594 290q-17 0 -21 11.5t0 17.5q18 59 60 97t96 38q58 0 88.5 -40t21.5 -99q0 -6 -4 -11.5t-10.5 -9.5t-13.5 -4h-217zM633 340h157q-2 30 -19.5 47t-48.5 17q-57 0 -89 -64zM277 79q-44 0 -69 26t-19 68t39.5 64.5t78.5 22.5
h109q9 0 16 -7t6 -18l-9 -62q-1 -6 -5 -12q-56 -82 -147 -82zM285 129q57 0 95 51l4 30h-84q-56 0 -61 -37q-3 -21 8 -32.5t38 -11.5zM468 158q-3 -22 -14 -27t-20 1l-10 6l-4 4q-11 13 -5 22.5t19 15.5l13 7l5 -1q7 -2 12 -9t4 -16v-3z" />
    <glyph glyph-name="ccedilla" unicode="&#xe7;" horiz-adv-x="562" 
d="M198 -109q0 1 -3.5 0.5t-7 1.5t-6.5 5t-1.5 10.5t8.5 18.5l32 51q-100 23 -149 101t-33 189q19 134 116 218t232 84q57 0 104.5 -15.5t83 -45.5t54.5 -72q4 -9 0.5 -19t-13.5 -15l-135 -75q-9 -5 -18.5 -3t-13.5 9q-26 46 -82 46q-39 0 -68 -29.5t-36 -81.5
q-8 -54 12 -83t60 -29q61 0 95 48q6 9 16.5 12t19.5 -2l115 -74q8 -6 9 -16.5t-5 -17.5q-76 -108 -214 -132l-9 -13q25 -14 37 -38.5t8 -55.5q-8 -58 -56.5 -93t-111.5 -35q-57 0 -104 35q-7 5 -8 14.5t3 16.5l43 71q0 2 1.5 4t5.5 6.5t8.5 6.5t11.5 0.5t13 -9.5
q13 -13 31 -13q17 0 18 12q1 3 0.5 4.5t-5.5 4t-14 2.5q-10 0 -33 -4h-11zM452 160q-51 -53 -126 -53q-61 0 -92.5 46t-21.5 116q10 69 54.5 115t106.5 46q68 0 108 -48l90 50q-57 88 -192 88q-116 0 -195.5 -68.5t-95.5 -183.5q-15 -103 33 -168.5t145 -77.5
q17 -2 20.5 -11t-1.5 -17l-4 -8l-26 -41q27 -2 43.5 -18.5t12.5 -42.5q-3 -26 -25 -44t-51 -18q-18 0 -36 8l-15 -24q31 -16 61 -16q47 0 76.5 21.5t34.5 56.5q6 44 -41 57q-29 8 -11 35l32 49q8 12 21 14q106 14 171 88z" />
    <glyph glyph-name="egrave" unicode="&#xe8;" horiz-adv-x="602" 
d="M356 625h78l-55 113l-102 -34zM324 581l-113 113l-2 2t-3.5 4t-4 6t-1.5 7.5t2 8t7.5 7.5t15.5 8l164 55q4 1 8.5 1t8 -1.5t6.5 -4t5 -6.5l82 -168q0 -1 1.5 -3.5t2.5 -9.5t-1 -12t-9.5 -9t-20.5 -4h-132q-9 0 -16 6zM467 198h-204q21 -50 83 -50q64 0 119 48zM498 198
l2 -2l78 -89q6 -7 4.5 -17.5t-8.5 -17.5q-110 -103 -268 -103q-141 0 -214.5 82.5t-53.5 216.5q19 135 116.5 218.5t232.5 83.5q13 0 26 -1q138 -8 195 -102t26 -246q-1 -5 -4 -9t-7 -7t-8.5 -5t-8.5 -2h-108zM380 520q-77 0 -139.5 -31t-102 -88t-50.5 -133
q-17 -114 43 -181.5t182 -67.5q121 0 209 70l-48 55q-64 -46 -135 -46q-56 0 -91.5 31.5t-42.5 87.5q-1 11 2 18t10 9.5t10 3t7 0.5h355q20 131 -32.5 201.5t-176.5 70.5zM237 291q-12 0 -17.5 6t-4.5 12.5t1 10.5q12 37 34 66t54 46.5t68 17.5q57 0 87.5 -37.5t22.5 -96.5
q-2 -9 -10 -17t-19 -8h-216zM277 341h155q-5 59 -67 59q-57 0 -88 -59z" />
    <glyph glyph-name="eacute" unicode="&#xe9;" horiz-adv-x="602" 
d="M427 625l102 79l-92 34l-88 -113h78zM429 575h-132h-2.5t-6 0.5t-7.5 1.5t-6.5 4t-3.5 7t1.5 10.5t8.5 14.5l130 168q14 17 31 11l148 -55q2 -1 4.5 -2t7.5 -4.5t7 -8t-1.5 -12t-15.5 -16.5l-146 -113q-8 -6 -17 -6zM467 198h-204q21 -50 83 -50q64 0 119 48zM498 198
l2 -2l78 -89q6 -7 4.5 -17.5t-8.5 -17.5q-110 -103 -268 -103q-141 0 -214.5 82.5t-53.5 216.5q19 135 116.5 218.5t232.5 83.5q13 0 26 -1q138 -8 195 -102t26 -246q-1 -5 -4 -9t-7 -7t-8.5 -5t-8.5 -2h-108zM380 520q-77 0 -139.5 -31t-102 -88t-50.5 -133
q-17 -114 43 -181.5t182 -67.5q121 0 209 70l-48 55q-64 -46 -135 -46q-56 0 -91.5 31.5t-42.5 87.5q-1 11 2 18t10 9.5t10 3t7 0.5h355q20 131 -32.5 201.5t-176.5 70.5zM237 291q-12 0 -17.5 6t-4.5 12.5t1 10.5q12 37 34 66t54 46.5t68 17.5q57 0 87.5 -37.5t22.5 -96.5
q-2 -9 -10 -17t-19 -8h-216zM277 341h155q-5 59 -67 59q-57 0 -88 -59z" />
    <glyph glyph-name="ecircumflex" unicode="&#xea;" horiz-adv-x="602" 
d="M321 634l61 74q13 15 23 15t14 -8l5 -7l40 -74h60l-61 101h-113l-90 -101h61zM327 584h-124h-2.5t-6 1t-8 2.5t-6.5 4.5t-3.5 7t2.5 10.5t10 14.5l135 151q9 10 21 10h138q13 0 19 -10l91 -151q1 -2 2 -4.5t2.5 -9.5t0 -12t-9 -9.5t-21.5 -4.5h-124q-13 0 -19 11l-29 55
l-46 -55q-9 -11 -22 -11zM467 198h-204q21 -50 83 -50q64 0 119 48zM498 198l2 -2l78 -89q6 -7 4.5 -17.5t-8.5 -17.5q-110 -103 -268 -103q-141 0 -214.5 82.5t-53.5 216.5q19 135 116.5 218.5t232.5 83.5q13 0 26 -1q138 -8 195 -102t26 -246q-1 -5 -4 -9t-7 -7t-8.5 -5
t-8.5 -2h-108zM380 520q-77 0 -139.5 -31t-102 -88t-50.5 -133q-17 -114 43 -181.5t182 -67.5q121 0 209 70l-48 55q-64 -46 -135 -46q-56 0 -91.5 31.5t-42.5 87.5q-1 11 2 18t10 9.5t10 3t7 0.5h355q20 131 -32.5 201.5t-176.5 70.5zM237 291q-12 0 -17.5 6t-4.5 12.5
t1 10.5q12 37 34 66t54 46.5t68 17.5q57 0 87.5 -37.5t22.5 -96.5q-2 -9 -10 -17t-19 -8h-216zM277 341h155q-5 59 -67 59q-57 0 -88 -59z" />
    <glyph glyph-name="edieresis" unicode="&#xeb;" horiz-adv-x="602" 
d="M297 639q16 0 29 6.5t21 18t11 27.5q3 24 -9.5 38.5t-36.5 14.5t-40.5 -14.5t-19.5 -38.5q-4 -24 8.5 -38t36.5 -14zM290 589q-44 0 -69.5 29t-18.5 73q4 29 21 53t42.5 37t53.5 13q44 0 69.5 -29.5t19.5 -73.5q-5 -29 -22 -52.5t-42 -36.5t-54 -13zM490 639
q24 0 40.5 14t20.5 38q3 24 -9.5 38.5t-36.5 14.5t-40.5 -14.5t-19.5 -38.5q-4 -24 8.5 -38t36.5 -14zM483 589q-44 0 -69.5 29t-18.5 73q6 44 40 73.5t77.5 29.5t69 -29.5t19.5 -73.5q-5 -29 -22 -52.5t-42 -36.5t-54 -13zM467 198h-204q21 -50 83 -50q64 0 119 48z
M498 198l2 -2l78 -89q6 -7 4.5 -17.5t-8.5 -17.5q-110 -103 -268 -103q-141 0 -214.5 82.5t-53.5 216.5q19 135 116.5 218.5t232.5 83.5q13 0 26 -1q138 -8 195 -102t26 -246q-1 -5 -4 -9t-7 -7t-8.5 -5t-8.5 -2h-108zM380 520q-77 0 -139.5 -31t-102 -88t-50.5 -133
q-17 -114 43 -181.5t182 -67.5q121 0 209 70l-48 55q-64 -46 -135 -46q-56 0 -91.5 31.5t-42.5 87.5q-1 11 2 18t10 9.5t10 3t7 0.5h355q20 131 -32.5 201.5t-176.5 70.5zM237 291q-12 0 -17.5 6t-4.5 12.5t1 10.5q12 37 34 66t54 46.5t68 17.5q57 0 87.5 -37.5t22.5 -96.5
q-2 -9 -10 -17t-19 -8h-216zM277 341h155q-5 59 -67 59q-57 0 -88 -59z" />
    <glyph glyph-name="igrave" unicode="&#xec;" horiz-adv-x="311" 
d="M289 625l-55 113l-102 -34l79 -79h78zM327 575h-132q-9 0 -16 6l-113 113q-2 1 -3.5 3t-4.5 7.5t-3 10.5t6 11t19 11l164 55q8 2 16 -1t12 -10l82 -168q0 -1 1.5 -3.5t2.5 -9.5t-1 -12t-9.5 -9t-20.5 -4zM220 25l70 489h-122l-70 -489h122zM237 -25h-172q-10 0 -16 8
t-5 17l78 539q1 11 10 18t18 7h172q11 0 17 -8t5 -17l-78 -539q-1 -7 -6 -13t-11 -9t-12 -3z" />
    <glyph glyph-name="iacute" unicode="&#xed;" horiz-adv-x="311" 
d="M384 704l-92 34l-88 -113h78zM447 694l-146 -113q-8 -6 -17 -6h-132h-2.5t-6 0.5t-7.5 1.5t-6.5 4t-3.5 7t1.5 10.5t8.5 14.5l130 168q14 17 31 11l148 -55q2 -1 4.5 -2t7.5 -4.5t7 -8t-1.5 -12t-15.5 -16.5zM220 25l70 489h-122l-70 -489h122zM237 -25h-172q-10 0 -16 8
t-5 17l78 539q1 11 10 18t18 7h172q11 0 17 -8t5 -17l-78 -539q-1 -7 -6 -13t-11 -9t-12 -3z" />
    <glyph glyph-name="icircumflex" unicode="&#xee;" horiz-adv-x="311" 
d="M380 635l-61 101h-113l-91 -101h61l62 74q12 15 22 15t15 -8l4 -7l40 -74h61zM422 585h-124q-13 0 -19 11l-29 55l-45 -55q-9 -11 -23 -11h-124q-2 0 -5 0.5t-9.5 2.5t-10 6t-1.5 12t12 19l135 151q9 10 21 10h138q13 0 19 -10l91 -151q1 -2 2.5 -4.5t2.5 -9.5t-0.5 -12
t-9 -9.5t-21.5 -4.5zM220 25l70 489h-122l-70 -489h122zM237 -25h-172q-10 0 -16 8t-5 17l78 539q1 11 10 18t18 7h172q11 0 17 -8t5 -17l-78 -539q-1 -7 -6 -13t-11 -9t-12 -3z" />
    <glyph glyph-name="idieresis" unicode="&#xef;" horiz-adv-x="311" 
d="M167 744q-24 0 -40.5 -14.5t-19.5 -38.5q-4 -24 8.5 -38t36.5 -14t40.5 14t20.5 38q3 24 -9.5 38.5t-36.5 14.5zM174.5 794q43.5 0 69 -29.5t19.5 -73.5q-5 -29 -22 -52.5t-42 -36.5t-54 -13q-44 0 -69.5 29t-18.5 73q6 44 40 73.5t77.5 29.5zM360 744q-24 0 -40.5 -14.5
t-19.5 -38.5q-4 -24 8.5 -38t36.5 -14q16 0 29 6.5t21 18t11 27.5q3 24 -9.5 38.5t-36.5 14.5zM367 794q44 0 69.5 -29.5t19.5 -73.5q-5 -29 -22 -52.5t-42 -36.5t-54 -13q-44 0 -69.5 29t-18.5 73q4 29 21 53t42.5 37t53.5 13zM220 25l70 489h-122l-70 -489h122zM237 -25
h-172q-10 0 -16 8t-5 17l78 539q1 11 10 18t18 7h172q11 0 17 -8t5 -17l-78 -539q-1 -7 -6 -13t-11 -9t-12 -3z" />
    <glyph glyph-name="eth" unicode="&#xf0;" horiz-adv-x="604" 
d="M611 641l-7 32l-125 -40q-13 -4 -23 4q-55 50 -132 84l-72 -40q42 -24 80 -55q10 -8 12.5 -15.5t-1.5 -12t-9 -8.5t-10 -6l-5 -2l-94 -30l6 -32l146 46q15 4 24 -6q72 -81 89 -167q3 -13 -8.5 -19t-24.5 -6l-13 1q-16 22 -53 36.5t-81 14.5q-95 0 -156 -52t-74 -142
q-14 -96 41 -152.5t164 -56.5q83 0 149.5 32.5t108 93t53.5 141.5q23 159 -80 291q-10 16 -6.5 25t13.5 12l10 4zM645 601l-66 -21q90 -136 67 -296q-21 -143 -122 -230t-246 -87q-127 0 -196 71t-52 188q15 110 94.5 177t192.5 67q51 0 94 -16q-17 31 -41 59l-155 -49
q-10 -3 -19 1.5t-11 14.5l-14 80q-2 10 4.5 19.5t15.5 12.5l68 21q-35 25 -73 43q-2 1 -4.5 2.5t-7 6t-5.5 9.5t3.5 12t17.5 14l126 70q12 7 23 2q82 -35 144 -87l137 44q10 3 19 -2t10 -14l16 -80q1 -5 0 -10t-4 -9t-7 -7.5t-9 -5.5zM306 110q-56 0 -87 34.5t-23 89.5
q8 54 48.5 87.5t96.5 33.5q58 0 89.5 -34t24 -89t-49.5 -88.5t-99 -33.5zM313 160q40 0 63.5 19t27.5 53q5 34 -13 53.5t-57 19.5q-78 0 -88 -71q-4 -23 3 -39.5t23 -25.5t41 -9z" />
    <glyph glyph-name="ntilde" unicode="&#xf1;" horiz-adv-x="673" 
d="M410 689q28 0 57 -23.5t53 -23.5q37 0 58.5 23t34.5 82h-57q-9 -21 -25 -32q-15 -10 -34 -10q-28 0 -57 23.5t-52 23.5q-37 0 -59.5 -23.5t-34.5 -82.5h58q8 23 26 34q15 9 32 9zM403 639h-2q-4 -5 -6 -18q-1 -11 -10 -18t-18 -7h-106q-11 0 -17 8t-5 17q13 85 52.5 133
t104.5 48q11 0 22 -1.5t20 -4.5t17 -6.5t14.5 -7.5t12 -7.5t9 -7l6.5 -6.5l4.5 -4.5t2.5 -1.5h3q3 5 5 17q2 11 11 18t18 7h105q10 0 16.5 -8t4.5 -17q-12 -85 -51 -132.5t-104 -47.5q-15 0 -28.5 2.5t-24 6.5t-19.5 9t-15.5 10.5t-11 9.5t-7 6.5t-3.5 2.5zM497 522
q-109 -1 -170 -84q-14 -15 -23.5 -12t-15.5 14l-6 11l9 63h-123l-70 -489h123l37 260q0 1 1 3q14 57 55.5 94t97.5 37q54 0 82 -35.5t20 -91.5l-38 -267h122l45 315q12 85 -27 133.5t-119 48.5zM504 572q100 0 152 -64t37 -168l-49 -340q-1 -7 -6 -13t-11 -9t-12 -3h-172
q-10 0 -16 8t-5 17l42 292q6 38 -9.5 57.5t-49.5 19.5q-24 0 -43.5 -10t-33 -29.5t-20.5 -45.5l-41 -284q-1 -7 -6 -13t-11 -9t-12 -3h-173q-10 0 -16 8t-5 17l78 539q1 11 10 18t18 7h173q11 0 17 -8t5 -17l-3 -20q69 52 162 53z" />
    <glyph glyph-name="ograve" unicode="&#xf2;" horiz-adv-x="637" 
d="M452 625l-55 113l-102 -34l79 -79h78zM490 575h-132q-9 0 -16 6l-113 113q-2 1 -3.5 3t-4.5 7.5t-3 10.5t6 11t19 11l164 55q8 2 16 -1t12 -10l82 -168l0.5 -1.5t2 -5.5t2 -7.5t-1 -8t-4.5 -8t-9.5 -5.5t-16.5 -2zM394 520q-124 0 -207 -68t-99.5 -182t47 -182.5
t187.5 -68.5q123 0 205.5 68.5t99 182.5t-46.5 182t-186 68zM401 570q142 0 218.5 -82.5t57.5 -217.5t-120 -218t-242 -83q-142 0 -219.5 83t-58 218t120.5 217.5t243 82.5zM381 433q65 0 98.5 -47t23.5 -118q-11 -71 -58 -118t-111 -47q-65 0 -99 47t-23 118q10 71 57 118
t112 47zM374 383q-43 0 -74 -30.5t-38 -84.5q-6 -36 3 -62.5t28.5 -39.5t47.5 -13q42 0 73 30.5t39 84.5q7 54 -15 84.5t-64 30.5z" />
    <glyph glyph-name="oacute" unicode="&#xf3;" horiz-adv-x="637" 
d="M547 704l-92 34l-88 -113h78zM610 694l-146 -113q-8 -6 -17 -6h-132h-2.5t-6 0.5t-7.5 1.5t-6.5 4t-3.5 7t1.5 10.5t8.5 14.5l130 168q14 17 31 11l148 -55q2 -1 4.5 -2t7.5 -4.5t7 -8t-1.5 -12t-15.5 -16.5zM394 520q-124 0 -207 -68t-99.5 -182t47 -182.5t187.5 -68.5
q123 0 205.5 68.5t99 182.5t-46.5 182t-186 68zM401 570q142 0 218.5 -82.5t57.5 -217.5t-120 -218t-242 -83q-142 0 -219.5 83t-58 218t120.5 217.5t243 82.5zM381 433q65 0 98.5 -47t23.5 -118q-11 -71 -58 -118t-111 -47q-65 0 -99 47t-23 118q10 71 57 118t112 47z
M374 383q-43 0 -74 -30.5t-38 -84.5q-6 -36 3 -62.5t28.5 -39.5t47.5 -13q42 0 73 30.5t39 84.5q7 54 -15 84.5t-64 30.5z" />
    <glyph glyph-name="ocircumflex" unicode="&#xf4;" horiz-adv-x="637" 
d="M542 634l-61 101h-113l-90 -101h61l61 74q13 15 23 15t14 -8l5 -7l40 -74h60zM585 584h-124q-13 0 -19 11l-29 55l-46 -55q-9 -11 -22 -11h-124h-2.5t-6 1t-8 2.5t-6.5 4.5t-3.5 7t2.5 10.5t10 14.5l135 151q9 10 21 10h138q13 0 19 -10l91 -151q1 -2 2 -4.5t2.5 -9.5
t0 -12t-9 -9.5t-21.5 -4.5zM394 520q-124 0 -207 -68t-99.5 -182t47 -182.5t187.5 -68.5q123 0 205.5 68.5t99 182.5t-46.5 182t-186 68zM401 570q142 0 218.5 -82.5t57.5 -217.5t-120 -218t-242 -83q-142 0 -219.5 83t-58 218t120.5 217.5t243 82.5zM381 433q65 0 98.5 -47
t23.5 -118q-11 -71 -58 -118t-111 -47q-65 0 -99 47t-23 118q10 71 57 118t112 47zM374 383q-43 0 -74 -30.5t-38 -84.5q-6 -36 3 -62.5t28.5 -39.5t47.5 -13q42 0 73 30.5t39 84.5q7 54 -15 84.5t-64 30.5z" />
    <glyph glyph-name="otilde" unicode="&#xf5;" horiz-adv-x="637" 
d="M353 752q-37 0 -59.5 -23.5t-34.5 -82.5h58q8 23 26 34q15 9 32 9q28 0 57 -23.5t53 -23.5q37 0 58.5 23t34.5 82h-57q-9 -21 -25 -32q-15 -10 -34 -10q-28 0 -57 23.5t-52 23.5zM361 802q14 0 27.5 -2.5t24 -6.5t19.5 -9.5t15.5 -10.5t11 -9t7 -6.5t3.5 -2.5h3q3 5 5 17
q2 11 11 18t18 7h105q10 0 16.5 -8t4.5 -17q-12 -85 -51 -132.5t-104 -47.5q-15 0 -28.5 2.5t-24 6.5t-19.5 9t-15.5 10.5t-11 9.5t-7 6.5t-3.5 2.5h-2q-4 -5 -6 -18q-1 -11 -10 -18t-18 -7h-106q-11 0 -17 8t-5 17q13 85 52.5 133t104.5 48zM394 520q-124 0 -207 -68
t-99.5 -182t47 -182.5t187.5 -68.5q123 0 205.5 68.5t99 182.5t-46.5 182t-186 68zM401 570q142 0 218.5 -82.5t57.5 -217.5t-120 -218t-242 -83q-142 0 -219.5 83t-58 218t120.5 217.5t243 82.5zM381 433q65 0 98.5 -47t23.5 -118q-11 -71 -58 -118t-111 -47q-65 0 -99 47
t-23 118q10 71 57 118t112 47zM374 383q-43 0 -74 -30.5t-38 -84.5q-6 -36 3 -62.5t28.5 -39.5t47.5 -13q42 0 73 30.5t39 84.5q7 54 -15 84.5t-64 30.5z" />
    <glyph glyph-name="odieresis" unicode="&#xf6;" horiz-adv-x="637" 
d="M330 744q-24 0 -40.5 -14.5t-19.5 -38.5q-4 -24 8.5 -38t36.5 -14q16 0 29 6.5t21 18t11 27.5q3 24 -9.5 38.5t-36.5 14.5zM337.5 794q43.5 0 69 -29.5t19.5 -73.5q-5 -29 -22 -52.5t-42 -36.5t-54 -13q-44 0 -69.5 29t-18.5 73q6 44 40 73.5t77.5 29.5zM523 744
q-24 0 -40.5 -14.5t-19.5 -38.5q-4 -24 8.5 -38t36.5 -14t40.5 14t20.5 38q3 24 -9.5 38.5t-36.5 14.5zM530.5 794q43.5 0 69 -29.5t19.5 -73.5q-5 -29 -22 -52.5t-42 -36.5t-54 -13q-44 0 -69.5 29t-18.5 73q6 44 40 73.5t77.5 29.5zM394 520q-124 0 -207 -68t-99.5 -182
t47 -182.5t187.5 -68.5q123 0 205.5 68.5t99 182.5t-46.5 182t-186 68zM401 570q142 0 218.5 -82.5t57.5 -217.5t-120 -218t-242 -83q-142 0 -219.5 83t-58 218t120.5 217.5t243 82.5zM381 433q65 0 98.5 -47t23.5 -118q-11 -71 -58 -118t-111 -47q-65 0 -99 47t-23 118
q10 71 57 118t112 47zM374 383q-43 0 -74 -30.5t-38 -84.5q-6 -36 3 -62.5t28.5 -39.5t47.5 -13q42 0 73 30.5t39 84.5q7 54 -15 84.5t-64 30.5z" />
    <glyph glyph-name="divide" unicode="&#xf7;" horiz-adv-x="510" 
d="M328 559q-16 0 -29 -6.5t-21.5 -18.5t-10.5 -28q-3 -24 9 -38t36 -14q25 0 41 14t20 38q3 25 -9 39t-36 14zM335 609q44 0 69 -29.5t19 -73.5t-40 -73t-78 -29q-43 0 -68.5 29t-19.5 73q4 29 21 53t42.5 37t54.5 13zM495 297l8 59h-394l-8 -59h394zM513 247h-444
q-11 0 -17 8t-5 17l16 109q1 11 10.5 18t18.5 7h444q10 0 16 -8t5 -17l-16 -109q-1 -11 -10.5 -18t-17.5 -7zM276 202q-24 0 -40.5 -14.5t-20 -38.5t9 -38.5t36.5 -14.5q16 0 29 6.5t21 18.5t10 28q4 24 -8.5 38.5t-36.5 14.5zM283 252q45 0 70 -29.5t18.5 -73.5t-40 -73.5
t-77.5 -29.5t-69.5 29.5t-19 73.5t40.5 73.5t77 29.5z" />
    <glyph glyph-name="oslash" unicode="&#xf8;" horiz-adv-x="637" 
d="M544 646h-19l-52 -112q-9 -19 -29 -17q-24 3 -50 3q-124 0 -207 -68t-99 -182q-12 -86 21 -146.5t105 -86.5q8 -4 11.5 -13t-0.5 -19l-58 -122h19l57 122q2 5 6.5 9t10.5 6.5t12 1.5q24 -3 50 -3q123 0 205.5 68.5t99.5 182.5q6 43 0.5 80t-22 66.5t-42.5 51t-61 34.5
q-9 4 -12 13t1 19zM604 663l-57 -122q75 -36 109 -107t21 -164q-19 -135 -120 -218t-242 -83q-18 0 -36 1l-56 -120q-8 -17 -26 -17h-71h-4.5t-7.5 1.5t-7.5 5t-4 10t4.5 16.5l62 132q-76 36 -110.5 107t-20.5 165q19 135 120 217.5t243 82.5q18 0 35 -1l52 110q8 17 26 17
h71h4.5t8 -1.5t7.5 -5t3.5 -10t-4.5 -16.5zM201 268q11 78 61.5 128.5t120.5 50.5h2l14 -1q32 -2 17 -33l-132 -282q-8 -16 -18 -19t-17 2l-6 5q-57 49 -42 149zM251 268q-7 -47 7 -80l97 207q-40 -7 -68.5 -40t-35.5 -87zM315 90q-31 2 -17 33l133 282q5 10 11 15.5t11 5
t9.5 -2.5t6.5 -4l3 -3q56 -51 42 -148q-12 -78 -62 -128.5t-120 -50.5h-2zM359 141q40 7 68.5 40t36.5 87q6 45 -8 79z" />
    <glyph glyph-name="ugrave" unicode="&#xf9;" horiz-adv-x="663" 
d="M382 625h78l-55 113l-102 -34zM350 581l-113 113q-2 1 -3.5 3t-4.5 7.5t-3 10.5t6 11t19 11l164 55q8 2 16 -1t12 -10l82 -168l0.5 -1.5t2 -5.5t2 -7.5t-1 -8t-4.5 -8t-9.5 -5.5t-16.5 -2h-132q-9 0 -16 6zM643 514h-123l-35 -241q-9 -64 -50 -108t-102 -45q-52 0 -78 36
t-18 92l38 266h-123l-45 -315q-13 -85 25.5 -133t116.5 -48q105 0 165 84q5 7 10.5 10t9.5 2t8 -3t7 -6t5.5 -7.5t3.5 -5.5l1 -3l-9 -64h123zM697 539l-78 -539q-1 -7 -6 -13t-11 -9t-12 -3h-173q-10 0 -16 8t-5 17l3 19q-67 -51 -158 -51q-98 0 -148.5 64t-35.5 167l49 340
q1 11 10 18t18 7h173q11 0 17 -8t5 -17l-42 -291q-11 -77 53 -78q25 1 45 13t33 35t17 55l39 266q1 11 10 18t18 7h173q11 0 17 -8t5 -17z" />
    <glyph glyph-name="uacute" unicode="&#xfa;" horiz-adv-x="663" 
d="M453 625l102 79l-92 34l-88 -113h78zM455 575h-132h-2.5t-6 0.5t-7.5 1.5t-6.5 4t-3.5 7t1.5 10.5t8.5 14.5l130 168q14 17 31 11l148 -55q2 -1 4.5 -2t7.5 -4.5t7 -8t-1.5 -12t-15.5 -16.5l-146 -113q-8 -6 -17 -6zM643 514h-123l-35 -241q-9 -64 -50 -108t-102 -45
q-52 0 -78 36t-18 92l38 266h-123l-45 -315q-13 -85 25.5 -133t116.5 -48q105 0 165 84q5 7 10.5 10t9.5 2t8 -3t7 -6t5.5 -7.5t3.5 -5.5l1 -3l-9 -64h123zM697 539l-78 -539q-1 -7 -6 -13t-11 -9t-12 -3h-173q-10 0 -16 8t-5 17l3 19q-67 -51 -158 -51q-98 0 -148.5 64
t-35.5 167l49 340q1 11 10 18t18 7h173q11 0 17 -8t5 -17l-42 -291q-11 -77 53 -78q25 1 45 13t33 35t17 55l39 266q1 11 10 18t18 7h173q11 0 17 -8t5 -17z" />
    <glyph glyph-name="ucircumflex" unicode="&#xfb;" horiz-adv-x="663" 
d="M347 635l62 74q12 15 22 15t15 -8l4 -7l40 -74h61l-61 101h-113l-91 -101h61zM353 585h-124q-2 0 -5 0.5t-9.5 2.5t-10 6t-1.5 12t12 19l135 151q9 10 21 10h138q13 0 19 -10l91 -151q1 -2 2.5 -4.5t2.5 -9.5t-0.5 -12t-9 -9.5t-21.5 -4.5h-124q-13 0 -19 11l-29 55
l-45 -55q-9 -11 -23 -11zM643 514h-123l-35 -241q-9 -64 -50 -108t-102 -45q-52 0 -78 36t-18 92l38 266h-123l-45 -315q-13 -85 25.5 -133t116.5 -48q105 0 165 84q5 7 10.5 10t9.5 2t8 -3t7 -6t5.5 -7.5t3.5 -5.5l1 -3l-9 -64h123zM697 539l-78 -539q-1 -7 -6 -13t-11 -9
t-12 -3h-173q-10 0 -16 8t-5 17l3 19q-67 -51 -158 -51q-98 0 -148.5 64t-35.5 167l49 340q1 11 10 18t18 7h173q11 0 17 -8t5 -17l-42 -291q-11 -77 53 -78q25 1 45 13t33 35t17 55l39 266q1 11 10 18t18 7h173q11 0 17 -8t5 -17z" />
    <glyph glyph-name="udieresis" unicode="&#xfc;" horiz-adv-x="663" 
d="M323 639q16 0 29 6.5t21 18t11 27.5q3 24 -9.5 38.5t-36.5 14.5t-40.5 -14.5t-19.5 -38.5q-4 -24 8.5 -38t36.5 -14zM316 589q-44 0 -69.5 29t-18.5 73q4 29 21 53t42.5 37t53.5 13q44 0 69.5 -29.5t19.5 -73.5q-5 -29 -22 -52.5t-42 -36.5t-54 -13zM516 639
q24 0 40.5 14t20.5 38q3 24 -9.5 38.5t-36.5 14.5t-40.5 -14.5t-19.5 -38.5q-4 -24 8.5 -38t36.5 -14zM509 589q-44 0 -69.5 29t-18.5 73q6 44 40 73.5t77.5 29.5t69 -29.5t19.5 -73.5q-5 -29 -22 -52.5t-42 -36.5t-54 -13zM643 514h-123l-35 -241q-9 -64 -50 -108t-102 -45
q-52 0 -78 36t-18 92l38 266h-123l-45 -315q-13 -85 25.5 -133t116.5 -48q105 0 165 84q5 7 10.5 10t9.5 2t8 -3t7 -6t5.5 -7.5t3.5 -5.5l1 -3l-9 -64h123zM697 539l-78 -539q-1 -7 -6 -13t-11 -9t-12 -3h-173q-10 0 -16 8t-5 17l3 19q-67 -51 -158 -51q-98 0 -148.5 64
t-35.5 167l49 340q1 11 10 18t18 7h173q11 0 17 -8t5 -17l-42 -291q-11 -77 53 -78q25 1 45 13t33 35t17 55l39 266q1 11 10 18t18 7h173q11 0 17 -8t5 -17z" />
    <glyph glyph-name="yacute" unicode="&#xfd;" horiz-adv-x="580" 
d="M519 704l-92 34l-88 -113h78zM582 694l-146 -113q-8 -6 -17 -6h-132h-2.5t-6 0.5t-7.5 1.5t-6.5 4t-3.5 7t1.5 10.5t8.5 14.5l130 168q14 17 31 11l148 -55q2 -1 4.5 -2t7.5 -4.5t7 -8t-1.5 -12t-15.5 -16.5zM624 514h-117l-160 -341q-6 -12 -13 -16.5t-13 -2.5t-11 6
t-8 8l-3 4l-76 342h-123l138 -492q3 -11 -3 -21l-17 -27q-36 -57 -98 -57q-33 0 -61 18l-57 -75q51 -37 118 -37q46 0 82.5 14t66.5 42.5t55 73.5zM687 530l-319 -595q-90 -162 -255 -162q-94 0 -163 60q-7 6 -7 16t5 17l89 118q7 9 16 12t22 -5q26 -24 52 -24q31 0 49 29
l10 17l-145 516q0 2 -1 4t-1 8t2 10.5t9 8.5t19 4h178q18 0 21 -16l66 -291l136 290q8 17 26 17h172q0 -1 4 0t8.5 -1t8.5 -5t3.5 -10.5t-5.5 -17.5z" />
    <glyph glyph-name="thorn" unicode="&#xfe;" horiz-adv-x="685" 
d="M483 520q-89 0 -151 -67q-7 -8 -13 -11t-10 -2t-7.5 3.5t-6 7t-3.5 8t-2 6.5l-1 3l36 249h-123l-127 -886h123l34 241q3 21 15 24.5t22 -2.5l10 -7q42 -68 136 -68q102 0 172.5 67t86.5 181q17 116 -35.5 184.5t-155.5 68.5zM490 570q125 0 189.5 -84.5t44.5 -218.5
q-19 -132 -106 -215t-210 -83q-81 0 -134 43l-30 -206q-1 -11 -10.5 -18t-18.5 -7h-173q-10 0 -16 8t-5 17l135 936q1 11 10.5 18t18.5 7h173q10 0 16 -8t5 -17l-31 -215q65 43 142 43zM381 106q-64 0 -97 47.5t-23 118.5q10 70 57 117.5t111 47.5q65 0 98.5 -47.5
t23.5 -117.5q-10 -71 -57.5 -118.5t-112.5 -47.5zM388 156q43 0 74 31t39 85q8 53 -14.5 84t-64.5 31q-41 0 -72 -31t-39 -84q-8 -54 14 -85t63 -31z" />
    <glyph glyph-name="ydieresis" unicode="&#xff;" horiz-adv-x="580" 
d="M302 744q-24 0 -40.5 -14.5t-19.5 -38.5q-4 -24 8.5 -38t36.5 -14t40.5 14t20.5 38q3 24 -9.5 38.5t-36.5 14.5zM309 794q44 0 69.5 -29.5t19.5 -73.5q-5 -29 -22 -52.5t-42 -36.5t-54 -13q-44 0 -69.5 29t-18.5 73q4 29 21 53t42.5 37t53.5 13zM495 744
q-24 0 -40.5 -14.5t-19.5 -38.5q-4 -24 8.5 -38t36.5 -14t40.5 14t20.5 38q3 24 -9.5 38.5t-36.5 14.5zM502.5 794q43.5 0 69 -29.5t19.5 -73.5q-5 -29 -22 -52.5t-42 -36.5t-54 -13q-44 0 -69.5 29t-18.5 73q6 44 40 73.5t77.5 29.5zM624 514h-117l-160 -341
q-6 -12 -13 -16.5t-13 -2.5t-11 6t-8 8l-3 4l-76 342h-123l138 -492q3 -11 -3 -21l-17 -27q-36 -57 -98 -57q-33 0 -61 18l-57 -75q51 -37 118 -37q46 0 82.5 14t66.5 42.5t55 73.5zM687 530l-319 -595q-90 -162 -255 -162q-94 0 -163 60q-7 6 -7 16t5 17l89 118q7 9 16 12
t22 -5q26 -24 52 -24q31 0 49 29l10 17l-145 516q0 2 -1 4t-1 8t2 10.5t9 8.5t19 4h178q18 0 21 -16l66 -291l136 290q8 17 26 17h172q0 -1 4 0t8.5 -1t8.5 -5t3.5 -10.5t-5.5 -17.5z" />
    <glyph glyph-name="Amacron" unicode="&#x100;" horiz-adv-x="770" 
d="M617 818l9 66h-228l-9 -66h228zM635 768h-278q-11 0 -17 8t-5 17l17 116q1 7 6 13t11 9t12 3h278q10 0 16 -8t5 -17l-17 -116q-1 -11 -10 -18t-18 -7zM557 154q17 0 21 -16l28 -113h135l-180 650h-150l-374 -650h128l61 113q8 16 25 16h306zM533 104h-272l-61 -113
q-9 -16 -26 -16h-183q0 1 -4 0t-8.5 1t-8.5 5t-3.5 10.5t6.5 18.5l403 700q9 15 25 15h183q17 0 21 -15l194 -700q1 -2 1.5 -4t1 -8t-1.5 -10.5t-9.5 -8.5t-19.5 -4h-190q-17 0 -21 16zM546 273q4 -17 -3 -25.5t-16 -8.5h-10h-202q-17 0 -22 8.5t0 17.5l4 8l139 259
q13 20 23.5 20t16.5 -10l7 -10zM488 289l-40 165l-89 -165h129z" />
    <glyph glyph-name="amacron" unicode="&#x101;" horiz-adv-x="600" 
d="M508 657l9 66h-228l-9 -66h228zM525 607h-278q-10 0 -16 8t-5 17l17 116q1 11 10.5 18t17.5 7h278q11 0 17 -8t5 -17l-17 -116q-1 -11 -10.5 -18t-18.5 -7zM386 522q-105 0 -224 -49l19 -67q87 36 154 36q59 0 90 -29.5t24 -80.5l-1 -8q-2 -9 -10 -17t-19 -8h-142
q-182 -1 -202 -138q-6 -43 7.5 -75t47.5 -50.5t84 -18.5q100 0 154 60q7 8 13 11t10 2t7.5 -3.5t6 -7t4 -8t1.5 -6.5l1 -3l-5 -37h119l47 327q11 81 -36 125.5t-150 44.5zM393 572q119 0 181 -58.5t48 -161.5l-51 -352q-1 -7 -6 -13t-11 -9t-12 -3h-169q-10 0 -16 8t-5 17
l1 5q-62 -38 -146 -38q-94 0 -144 54t-38 140q13 88 82.5 137.5t176.5 50.5h116q-4 43 -73 43q-66 0 -155 -42q-9 -5 -19.5 -2t-13.5 14l-32 114q-3 9 2 19t15 14q145 63 269 63zM277 84q-44 0 -69 24.5t-19 64.5q6 41 37.5 62t77.5 21h109q9 0 16 -7t5 -18l-7 -48
q0 -3 -1 -6q-11 -28 -34.5 -49.5t-53.5 -32.5t-61 -11zM284 134q33 0 58.5 15t35.5 37l3 20h-84q-33 0 -44 -7.5t-14 -25.5q-3 -19 7.5 -29t37.5 -10z" />
    <glyph glyph-name="Abreve" unicode="&#x102;" horiz-adv-x="770" 
d="M498 787q37 0 67 13t51.5 37t33.5 58h-60q-7 -17 -19.5 -29.5t-29.5 -20.5t-35 -8q-28 0 -46 16t-22 42h-60q2 -25 10.5 -45t23.5 -34t37 -21.5t49 -7.5zM491 737q-80 0 -125 50.5t-38 131.5q1 10 9.5 18t19.5 8h108q10 0 16 -6.5t6 -16.5q-2 -35 26 -35t36 35
q1 7 5.5 12t10.5 8t12 3h108q10 0 17 -7.5t4 -18.5q-16 -81 -75.5 -131.5t-139.5 -50.5zM557 154q17 0 21 -16l28 -113h135l-180 650h-150l-374 -650h128l61 113q8 16 25 16h306zM533 104h-272l-61 -113q-9 -16 -26 -16h-183q0 1 -4 0t-8.5 1t-8.5 5t-3.5 10.5t6.5 18.5
l403 700q9 15 25 15h183q17 0 21 -15l194 -700q1 -2 1.5 -4t1 -8t-1.5 -10.5t-9.5 -8.5t-19.5 -4h-190q-17 0 -21 16zM546 273q4 -17 -3 -25.5t-16 -8.5h-10h-202q-17 0 -22 8.5t0 17.5l4 8l139 259q13 20 23.5 20t16.5 -10l7 -10zM488 289l-40 165l-89 -165h129z" />
    <glyph glyph-name="abreve" unicode="&#x103;" horiz-adv-x="600" 
d="M389 626q55 0 94.5 28.5t57.5 79.5h-60q-12 -25 -34.5 -41.5t-50 -16.5t-45.5 16t-23 42h-59q1 -25 10 -45t24 -34t37 -21.5t49 -7.5zM382 576q-80 0 -125 50.5t-38 131.5q1 6 4.5 12t10 10t14.5 4h108q10 0 16 -6.5t6 -16.5q-2 -35 26 -35t36 35q1 7 5.5 12t10.5 8t12 3
h108q10 0 16.5 -7.5t4.5 -18.5q-16 -81 -75.5 -131.5t-139.5 -50.5zM386 522q-105 0 -224 -49l19 -67q87 36 154 36q59 0 90 -29.5t24 -80.5l-1 -8q-2 -9 -10 -17t-19 -8h-142q-182 -1 -202 -138q-6 -43 7.5 -75t47.5 -50.5t84 -18.5q100 0 154 60q7 8 13 11t10 2t7.5 -3.5
t6 -7t4 -8t1.5 -6.5l1 -3l-5 -37h119l47 327q11 81 -36 125.5t-150 44.5zM393 572q119 0 181 -58.5t48 -161.5l-51 -352q-1 -7 -6 -13t-11 -9t-12 -3h-169q-10 0 -16 8t-5 17l1 5q-62 -38 -146 -38q-94 0 -144 54t-38 140q13 88 82.5 137.5t176.5 50.5h116q-4 43 -73 43
q-66 0 -155 -42q-9 -5 -19.5 -2t-13.5 14l-32 114q-3 9 2 19t15 14q145 63 269 63zM277 84q-44 0 -69 24.5t-19 64.5q6 41 37.5 62t77.5 21h109q9 0 16 -7t5 -18l-7 -48q0 -3 -1 -6q-11 -28 -34.5 -49.5t-53.5 -32.5t-61 -11zM284 134q33 0 58.5 15t35.5 37l3 20h-84
q-33 0 -44 -7.5t-14 -25.5q-3 -19 7.5 -29t37.5 -10z" />
    <glyph glyph-name="Aogonek" unicode="&#x104;" horiz-adv-x="770" 
d="M741 25l-180 651h-150l-374 -651h128l62 113q8 16 25 16h305q17 0 21 -16l29 -113h38q21 0 25 -9.5t-3 -19.5l-7 -10q-53 -66 -59 -106q-5 -31 11 -44.5t43 -13.5q46 0 83 40l-11 15q-22 -18 -45 -18q-16 0 -26 8q-17 13 -13 41q5 37 62 106q9 11 23 11h13zM771 -25h-37
q-35 -44 -41 -65q9 4 21 19q22 27 40 2l37 -51q9 -13 -2 -29q-27 -37 -64 -58t-77 -21q-43 0 -74 26.5t-23 81.5q6 43 42 95h-11q-17 0 -21 16l-28 113h-271l-62 -113q-9 -16 -26 -16h-183q0 1 -4 0t-8.5 1t-8.5 5t-3.5 10.5t6.5 18.5l403 701q9 15 26 15h183q16 0 20 -15
l194 -701q1 -2 1.5 -4t1 -8t-1.5 -10.5t-9.5 -8.5t-19.5 -4zM315 239q-17 0 -22 8.5t0 17.5l4 8l140 259q5 9 10.5 14t10 6t8.5 -0.5t7.5 -5t5.5 -6.5l4 -6l1 -2l64 -259q4 -17 -3 -25.5t-16 -8.5h-10h-204zM359 289h131l-41 166z" />
    <glyph glyph-name="aogonek" unicode="&#x105;" horiz-adv-x="605" 
d="M388 522q-106 0 -226 -49l19 -67q88 36 155 36q59 0 90.5 -28.5t25.5 -80.5l-1 -9q-2 -9 -10 -17t-19 -8h-144q-92 -1 -142.5 -36.5t-60.5 -101.5q-9 -65 27.5 -104.5t112.5 -39.5q101 0 155 60q7 8 13 11t10 2t7.5 -3.5t6 -7t4 -8t1.5 -6.5l1 -3l-5 -37h21q10 0 16 -2
t8 -5.5t2 -8t-2 -8.5t-4 -7.5t-4 -5.5l-2 -2q-52 -62 -58 -106q-5 -31 11 -44.5t43 -13.5q46 0 83 40l-11 15q-23 -18 -45 -18q-16 0 -27 8q-17 14 -13 41q5 35 63 106q9 11 23 11h16l47 327q11 81 -36 125.5t-151 44.5zM395 572q120 0 182 -58.5t48 -161.5l-51 -352
q-1 -7 -6 -13t-11 -9t-12 -3h-27q-36 -45 -42 -65q10 4 22 19q22 27 40 2l37 -51q9 -13 -2 -29q-18 -24 -40.5 -42t-48.5 -27.5t-52 -9.5q-43 0 -74 26.5t-23 81.5q6 44 41 95q-11 0 -17 8t-5 17l1 5q-63 -38 -147 -38q-95 0 -145 54t-38 140q13 88 83 137.5t177 50.5h117
q-5 43 -74 43q-66 0 -156 -42q-10 -5 -20 -2t-13 14l-32 114q-3 9 2 19t15 14q145 63 271 63zM416 256q9 0 16 -7t5 -18l-7 -50q0 -3 -2 -7q-11 -26 -35 -47t-54 -32t-61 -11q-44 0 -69.5 24.5t-19.5 64.5q6 41 37.5 62t78.5 21h111zM384 206h-86q-34 0 -45 -7.5t-14 -25.5
q-2 -12 1.5 -20.5t15 -13.5t29.5 -5q21 0 41 7.5t34.5 19t20.5 24.5z" />
    <glyph glyph-name="Cacute" unicode="&#x106;" horiz-adv-x="692" 
d="M635 865l-92 34l-87 -113h77zM699 855l-147 -113q-8 -6 -17 -6h-132h-2.5t-6 0.5t-7.5 1.5t-6.5 4t-3.5 7t1.5 10.5t8.5 14.5l131 168q13 17 31 11l148 -55q1 -1 3.5 -2t8 -4.5t7 -8t-2 -12t-14.5 -16.5zM496 681q-150 0 -263 -94t-133 -235q-21 -144 62.5 -239.5
t231.5 -95.5q66 0 137.5 28t131.5 76l-59 74q-94 -72 -185 -72q-94 0 -147.5 67t-39.5 164q14 96 86.5 162t166.5 66q46 0 89 -20.5t75 -57.5l81 82q-43 44 -105.5 69.5t-128.5 25.5zM503 731q55 0 108 -15.5t97.5 -43.5t76.5 -67q6 -7 4.5 -16.5t-7.5 -16.5l-121 -122
q-23 -23 -38 0q-26 38 -65.5 60t-79.5 22q-73 0 -129 -50.5t-67 -127.5q-11 -78 30 -129.5t114 -51.5q25 0 54.5 9t59 26t55.5 39q8 8 18.5 8t17.5 -8l88 -110q6 -7 4 -17.5t-9 -16.5q-70 -62 -157.5 -99t-169.5 -37q-110 0 -193 50.5t-121.5 138.5t-22.5 196q15 107 80 194
t163.5 136t209.5 49z" />
    <glyph glyph-name="cacute" unicode="&#x107;" horiz-adv-x="562" 
d="M521 704l-92 34l-88 -113h78zM584 694l-146 -113q-8 -6 -17 -6h-132h-2.5t-6 0.5t-7.5 1.5t-6.5 4t-3.5 7t1.5 10.5t8.5 14.5l130 168q14 17 31 11l148 -55q2 -1 4.5 -2t7.5 -4.5t7 -8t-1.5 -12t-15.5 -16.5zM379 520q-116 0 -195.5 -68.5t-95.5 -183.5
q-17 -113 42.5 -181t174.5 -68q143 0 223 92l-76 49q-51 -53 -126 -53q-61 0 -92.5 46t-21.5 116q10 69 54.5 115t106.5 46q68 0 108 -48l90 50q-57 88 -192 88zM386 570q57 0 104.5 -15.5t83 -45.5t54.5 -72q4 -9 0.5 -19t-13.5 -15l-135 -75q-9 -5 -18.5 -3t-13.5 9
q-26 46 -82 46q-39 0 -68 -29.5t-36 -81.5q-8 -54 12 -83t60 -29q61 0 95 48q6 9 16.5 12t19.5 -2l115 -74q8 -6 9 -15.5t-5 -18.5q-46 -66 -121 -102t-165 -36q-135 0 -207.5 83t-52.5 216q19 134 116 218t232 84z" />
    <glyph glyph-name="Ccaron" unicode="&#x10c;" horiz-adv-x="692" 
d="M362 897l67 -114h125l101 114h-72l-66 -81q-8 -10 -15 -13.5t-11.5 -1.5t-8 5t-5.5 7l-1 3l-42 81h-72zM319 947h135q14 0 20 -11l31 -61l49 61q9 11 22 11h135q2 0 5.5 -0.5t10 -2.5t9.5 -5.5t1.5 -12t-11.5 -19.5l-145 -164q-9 -10 -21 -10h-150q-13 0 -19 10l-97 164
q-1 1 -1.5 2.5t-2 5.5t-2 8t0.5 8.5t4 7.5t9.5 5.5t16.5 2.5zM496 681q-150 0 -263 -94t-133 -235q-21 -144 62.5 -239.5t231.5 -95.5q66 0 137.5 28t131.5 76l-59 74q-94 -72 -185 -72q-94 0 -147.5 67t-39.5 164q14 96 86.5 162t166.5 66q46 0 89 -20.5t75 -57.5l81 82
q-43 44 -105.5 69.5t-128.5 25.5zM503 731q55 0 108 -15.5t97.5 -43.5t76.5 -67q6 -7 4.5 -16.5t-7.5 -16.5l-121 -122q-23 -23 -38 0q-26 38 -65.5 60t-79.5 22q-73 0 -129 -50.5t-67 -127.5q-11 -78 30 -129.5t114 -51.5q25 0 54.5 9t59 26t55.5 39q8 8 18.5 8t17.5 -8
l88 -110q6 -7 4 -17.5t-9 -16.5q-70 -62 -157.5 -99t-169.5 -37q-110 0 -193 50.5t-121.5 138.5t-22.5 196q15 107 80 194t163.5 136t209.5 49z" />
    <glyph glyph-name="ccaron" unicode="&#x10d;" horiz-adv-x="562" 
d="M248 735l68 -114h125l100 114h-72l-65 -81q-6 -7 -11.5 -11t-9.5 -4.5t-7.5 0.5t-6 4t-4 5t-2.5 4l-1 2l-42 81h-72zM206 785h135q14 0 19 -11l32 -61l49 61q9 11 22 11h135h3t6 -1t7.5 -2.5t6.5 -4.5t4 -7t-2 -10.5t-11 -14.5l-144 -164q-9 -10 -22 -10h-150
q-12 0 -18 10l-98 164q-1 2 -2 4.5t-2.5 9.5t0 12t9 9.5t21.5 4.5zM379 520q-116 0 -195.5 -68.5t-95.5 -183.5q-17 -113 42.5 -181t174.5 -68q143 0 223 92l-76 49q-51 -53 -126 -53q-61 0 -92.5 46t-21.5 116q10 69 54.5 115t106.5 46q68 0 108 -48l90 50q-57 88 -192 88z
M386 570q57 0 104.5 -15.5t83 -45.5t54.5 -72q4 -9 0.5 -19t-13.5 -15l-135 -75q-9 -5 -18.5 -3t-13.5 9q-26 46 -82 46q-39 0 -68 -29.5t-36 -81.5q-8 -54 12 -83t60 -29q61 0 95 48q6 9 16.5 12t19.5 -2l115 -74q8 -6 9 -15.5t-5 -18.5q-46 -66 -121 -102t-165 -36
q-135 0 -207.5 83t-52.5 216q19 134 116 218t232 84z" />
    <glyph glyph-name="Dcaron" unicode="&#x10e;" horiz-adv-x="767" 
d="M337 897l67 -114h125l101 114h-72l-66 -81q-8 -10 -15 -13.5t-11.5 -1.5t-8 5t-5.5 7l-1 3l-42 81h-72zM294 947h135q14 0 20 -11l31 -61l49 61q9 11 22 11h135q2 0 5.5 -0.5t10 -2.5t9.5 -5.5t1.5 -12t-11.5 -19.5l-145 -164q-9 -10 -21 -10h-150q-13 0 -19 10l-97 164
q-1 1 -1.5 2.5t-2 5.5t-2 8t0.5 8.5t4 7.5t9.5 5.5t16.5 2.5zM192 675l-93 -650h269q159 0 269.5 90t130.5 235q14 96 -18.5 170t-105.5 114.5t-176 40.5h-276zM174 725h301q175 0 271 -104.5t72 -270.5q-23 -166 -151.5 -270.5t-306.5 -104.5h-294q-10 0 -16 8t-5 17
l101 700q1 11 10.5 18t17.5 7zM303 558q2 9 10 17t19 8h119q96 0 148.5 -66t37.5 -168q-14 -101 -83 -166.5t-162 -65.5h-127q-9 0 -16 7t-6 18zM350 533l-53 -366h102q71 0 123.5 49.5t64.5 132.5t-28 133.5t-115 50.5h-94z" />
    <glyph glyph-name="dcaron" unicode="&#x10f;" horiz-adv-x="786" 
d="M567 717l-36 -249q-3 -21 -14.5 -24.5t-21.5 2.5l-11 7q-42 68 -136 68q-67 0 -121.5 -30t-90.5 -86.5t-47 -132.5q-17 -117 35 -185.5t156 -68.5q90 0 152 68q16 16 25.5 12.5t13.5 -15.5l3 -12l-6 -46h123l99 692h-123zM550 767h173q10 0 16 -8t5 -17l-107 -742
q-1 -5 -4 -10t-7 -8t-9 -5t-9 -2h-173q-10 0 -16 8t-5 17l2 11q-65 -43 -144 -43q-124 0 -188 85t-45 219q13 87 56.5 155t111 106t148.5 38q82 0 135 -44l31 215q1 7 6 13t11 9t12 3zM839 652q-26 0 -44.5 -15.5t-21.5 -41.5q-5 -30 15 -44q6 -5 8 -13.5t-3 -17.5l-41 -72
h31l79 95q22 28 26 52q4 28 -10 42.5t-39 14.5zM846 702q28 0 50.5 -12.5t34 -37t7.5 -57.5q-6 -40 -38 -80l-88 -106q-10 -11 -23 -11h-82q0 1 -4 0t-8.5 1t-8.5 4.5t-3.5 10.5t6.5 19l51 90q-24 29 -17 72q6 46 41.5 76.5t81.5 30.5zM334 102q-65 0 -98.5 47.5
t-23.5 118.5q11 71 57.5 118t111.5 47t98.5 -47t23 -118t-57 -118.5t-111.5 -47.5zM341 152q42 0 73 31t38.5 85t-14 84.5t-64.5 30.5q-28 0 -51 -13.5t-39.5 -39.5t-21.5 -62t3.5 -62.5t28 -40t47.5 -13.5z" />
    <glyph glyph-name="Dcroat" unicode="&#x110;" horiz-adv-x="767" 
d="M590 818l9 66h-228l-9 -66h228zM608 768h-278q-11 0 -17 8t-5 17l17 116q1 7 6 13t11 9t12 3h278q10 0 16 -8t5 -17l-17 -116q-1 -5 -4 -10t-7 -8t-8.5 -5t-8.5 -2zM192 675l-93 -650h269q159 0 269.5 90t130.5 235q14 96 -18.5 170t-105.5 114.5t-176 40.5h-276z
M174 725h301q175 0 271 -104.5t72 -270.5q-23 -166 -151.5 -270.5t-306.5 -104.5h-294q-10 0 -16 8t-5 17l101 700q1 11 10.5 18t17.5 7zM303 558q2 9 10 17t19 8h119q96 0 148.5 -66t37.5 -168q-14 -101 -83 -166.5t-162 -65.5h-127q-9 0 -16 7t-6 18zM350 533l-53 -366
h102q71 0 123.5 49.5t64.5 132.5t-28 133.5t-115 50.5h-94z" />
    <glyph glyph-name="dcroat" unicode="&#x111;" horiz-adv-x="686" 
d="M741 620l6 39h-40q-9 0 -16 7t-5 18l4 33h-123l-4 -33q-2 -9 -10 -17t-19 -8h-60l-6 -39h60q9 0 16 -7t6 -18l-19 -127q-3 -21 -14.5 -24.5t-21.5 2.5l-11 7q-42 68 -136 68q-67 0 -121.5 -30t-90.5 -86.5t-47 -132.5q-17 -117 35 -185.5t156 -68.5q90 0 152 68
q16 16 25.5 12.5t13.5 -15.5l3 -12l-6 -46h123l82 570q1 9 9.5 17t18.5 8h40zM759 570h-40l-82 -570q-1 -5 -4 -10t-7 -8t-9 -5t-9 -2h-173q-10 0 -16 8t-5 17l2 11q-65 -43 -144 -43q-124 0 -188 85t-45 219q13 87 56.5 155t111 106t148.5 38q82 0 135 -44l6 43h-60
q-11 0 -17 8t-4 17l13 89q1 11 10 18t18 7h60l5 33q1 7 6 13t11 9t12 3h173q10 0 16 -8t5 -17l-5 -33h40q11 0 17 -8t5 -17l-13 -89q-1 -7 -6 -13t-11 -9t-12 -3zM334 102q-65 0 -98.5 47.5t-23.5 118.5q11 71 57.5 118t111.5 47t98.5 -47t23 -118t-57 -118.5t-111.5 -47.5z
M341 152q42 0 73 31t38.5 85t-14 84.5t-64.5 30.5q-28 0 -51 -13.5t-39.5 -39.5t-21.5 -62t3.5 -62.5t28 -40t47.5 -13.5z" />
    <glyph glyph-name="Emacron" unicode="&#x112;" horiz-adv-x="674" 
d="M578 818l9 66h-228l-9 -66h228zM596 768h-278q-11 0 -17 8t-5 17l17 116q1 7 6 13t11 9t12 3h278q10 0 16 -8t5 -17l-17 -116q-1 -11 -10 -18t-18 -7zM677 585l13 90h-498l-93 -650h509l13 90h-356q-9 0 -16 7t-6 18l20 141q2 9 10 17t19 8h309l13 90h-309q-9 0 -16 7
t-5 18l20 139q1 9 9.5 17t18.5 8h345zM695 535h-345l-13 -89h309q11 0 17 -8t5 -17l-21 -140q-1 -11 -10 -18t-18 -7h-309l-13 -91h356q10 0 16 -8t5 -17l-20 -140q-1 -5 -4 -10t-7 -8t-9 -5t-9 -2h-559q-10 0 -16 8t-5 17l101 700q1 11 10.5 18t17.5 7h548q11 0 17 -8
t5 -17l-20 -140q-1 -7 -6 -13t-11 -9t-12 -3z" />
    <glyph glyph-name="emacron" unicode="&#x113;" horiz-adv-x="602" 
d="M510 657l9 66h-228l-9 -66h228zM527 607h-278q-10 0 -16 8t-5 17l17 116q1 11 10.5 18t17.5 7h278q11 0 17 -8t5 -17l-17 -116q-1 -7 -6 -13t-11 -9t-12 -3zM467 198h-204q21 -50 83 -50q64 0 119 48zM498 198l2 -2l78 -89q6 -7 4.5 -17.5t-8.5 -17.5
q-110 -103 -268 -103q-141 0 -214.5 82.5t-53.5 216.5q19 135 116.5 218.5t232.5 83.5q13 0 26 -1q138 -8 195 -102t26 -246q-1 -5 -4 -9t-7 -7t-8.5 -5t-8.5 -2h-108zM380 520q-77 0 -139.5 -31t-102 -88t-50.5 -133q-17 -114 43 -181.5t182 -67.5q121 0 209 70l-48 55
q-64 -46 -135 -46q-56 0 -91.5 31.5t-42.5 87.5q-1 11 2 18t10 9.5t10 3t7 0.5h355q20 131 -32.5 201.5t-176.5 70.5zM237 291q-12 0 -17.5 6t-4.5 12.5t1 10.5q12 37 34 66t54 46.5t68 17.5q57 0 87.5 -37.5t22.5 -96.5q-2 -9 -10 -17t-19 -8h-216zM277 341h155
q-5 59 -67 59q-57 0 -88 -59z" />
    <glyph glyph-name="Edotaccent" unicode="&#x116;" horiz-adv-x="674" 
d="M479 921q-30 0 -50.5 -18t-25.5 -48q-4 -31 11.5 -49t45 -18t50.5 18t25 49q5 30 -10.5 48t-45.5 18zM486 971q24 0 44.5 -9t33.5 -24t19 -37t2 -46q-7 -50 -45 -83.5t-87.5 -33.5t-78 33.5t-21.5 83.5q5 33 24 59.5t47.5 41.5t61.5 15zM677 585l13 90h-498l-93 -650h509
l13 90h-356q-9 0 -16 7t-6 18l20 141q2 9 10 17t19 8h309l13 90h-309q-9 0 -16 7t-5 18l20 139q1 9 9.5 17t18.5 8h345zM695 535h-345l-13 -89h309q11 0 17 -8t5 -17l-21 -140q-1 -11 -10 -18t-18 -7h-309l-13 -91h356q10 0 16 -8t5 -17l-20 -140q-1 -5 -4 -10t-7 -8t-9 -5
t-9 -2h-559q-10 0 -16 8t-5 17l101 700q1 11 10.5 18t17.5 7h548q11 0 17 -8t5 -17l-20 -140q-1 -7 -6 -13t-11 -9t-12 -3z" />
    <glyph glyph-name="edotaccent" unicode="&#x117;" horiz-adv-x="602" 
d="M391 627q15 0 28 4.5t23 13.5t16.5 21.5t8.5 27.5q4 30 -11.5 48t-45 18t-50.5 -18t-25 -48q-4 -31 11.5 -49t44.5 -18zM384 577q-50 0 -78 33.5t-21 83.5q5 33 24 59.5t47.5 41.5t61.5 15q49 0 77.5 -33t21.5 -83t-45 -83.5t-88 -33.5zM467 198h-204q21 -50 83 -50
q64 0 119 48zM498 198l2 -2l78 -89q6 -7 4.5 -17.5t-8.5 -17.5q-110 -103 -268 -103q-141 0 -214.5 82.5t-53.5 216.5q19 135 116.5 218.5t232.5 83.5q13 0 26 -1q138 -8 195 -102t26 -246q-1 -5 -4 -9t-7 -7t-8.5 -5t-8.5 -2h-108zM380 520q-77 0 -139.5 -31t-102 -88
t-50.5 -133q-17 -114 43 -181.5t182 -67.5q121 0 209 70l-48 55q-64 -46 -135 -46q-56 0 -91.5 31.5t-42.5 87.5q-1 11 2 18t10 9.5t10 3t7 0.5h355q20 131 -32.5 201.5t-176.5 70.5zM237 291q-12 0 -17.5 6t-4.5 12.5t1 10.5q12 37 34 66t54 46.5t68 17.5q57 0 87.5 -37.5
t22.5 -96.5q-2 -9 -10 -17t-19 -8h-216zM277 341h155q-5 59 -67 59q-57 0 -88 -59z" />
    <glyph glyph-name="Eogonek" unicode="&#x118;" horiz-adv-x="678" 
d="M683 589l12 86h-503l-93 -650h384q21 0 25 -9.5t-3 -19.5l-7 -10q-52 -63 -58 -106q-5 -31 10.5 -44.5t42.5 -13.5q46 0 83 40l-11 15q-22 -18 -45 -18q-15 0 -25 8q-18 14 -14 41q5 38 62 106q9 11 23 11h46l12 86h-360q-9 0 -16 7t-5 18l21 149q1 9 9.5 17t19.5 8h314
l12 86h-314q-9 0 -16 7t-5 18l20 143q2 9 10 17t19 8h350zM701 539h-350l-14 -93h314q11 0 17 -8t5 -17l-20 -136q-1 -11 -10.5 -18t-18.5 -7h-314l-14 -99h360q11 0 17 -8t5 -17l-20 -136q-1 -7 -6 -13t-11 -9t-12 -3h-57q-35 -44 -41 -65q9 4 21 19q22 27 40 3l38 -51
q10 -14 -2 -30q-28 -37 -65 -58t-77 -21q-43 0 -73.5 27t-22.5 81q6 44 41 95h-365q-10 0 -16 8t-5 17l101 700q1 11 10.5 18t17.5 7h553q11 0 17 -8t5 -17l-20 -136q-1 -7 -6 -13t-11 -9t-11 -3z" />
    <glyph glyph-name="eogonek" unicode="&#x119;" horiz-adv-x="602" 
d="M467 198h-203q21 -51 82 -51q63 0 119 49zM381 520q-120 -1 -198 -69.5t-94 -181.5q-17 -115 42.5 -182.5t179.5 -67.5q45 0 87 20q10 5 16 3t8.5 -8.5t3 -13.5t-0.5 -12v-6q-62 -71 -69 -121q-5 -31 11 -45t43 -14q46 0 82 40l-11 15q-22 -18 -44 -18q-20 0 -31 14.5
t-8 35.5q4 26 26 60.5t43.5 59t55.5 58.5l-49 57q-65 -47 -135 -47q-56 0 -91 32t-42 87q-1 10 1.5 16.5t6 9.5t9 4.5t7.5 1.5h5h354q20 128 -31 199t-167 73h-10zM498 198l2 -2l78 -89q6 -8 4.5 -17.5t-8.5 -16.5q-44 -45 -83 -93t-43 -70q9 5 20 19q22 27 40 2l37 -51
q9 -13 -2 -29q-57 -79 -140 -79q-43 0 -74 27t-23 82q6 42 37 91q-20 -3 -39 -3q-139 0 -212 82.5t-53 217.5q19 133 114 216t235 85q15 0 30 -1q133 -8 190 -102.5t26 -245.5q-2 -6 -6.5 -11.5t-10.5 -8.5t-11 -3h-108zM373 450q37 0 64 -17.5t38.5 -48t6.5 -68.5
q-2 -9 -10 -17t-19 -8h-216q-15 0 -19.5 9t-1.5 19q11 38 33.5 67.5t54.5 46.5t69 17zM366 400q-59 0 -90 -59h156q-1 14 -6 25t-13.5 18.5t-20.5 11.5t-26 4z" />
    <glyph glyph-name="Ecaron" unicode="&#x11a;" horiz-adv-x="674" 
d="M325 897l67 -114h125l101 114h-72l-66 -81q-8 -10 -15 -13.5t-11.5 -1.5t-8 5t-5.5 7l-1 3l-42 81h-72zM282 947h135q14 0 20 -11l31 -61l49 61q9 11 22 11h135q2 0 5.5 -0.5t10 -2.5t9.5 -5.5t1.5 -12t-11.5 -19.5l-145 -164q-9 -10 -21 -10h-150q-13 0 -19 10l-97 164
q-1 2 -2.5 4.5t-3 9.5t0 12t9.5 9.5t21 4.5zM677 585l13 90h-498l-93 -650h509l13 90h-356q-9 0 -16 7t-6 18l20 141q2 9 10 17t19 8h309l13 90h-309q-9 0 -16 7t-5 18l20 139q1 9 9.5 17t18.5 8h345zM695 535h-345l-13 -89h309q11 0 17 -8t5 -17l-21 -140q-1 -11 -10 -18
t-18 -7h-309l-13 -91h356q10 0 16 -8t5 -17l-20 -140q-1 -5 -4 -10t-7 -8t-9 -5t-9 -2h-559q-10 0 -16 8t-5 17l101 700q1 11 10.5 18t17.5 7h548q11 0 17 -8t5 -17l-20 -140q-1 -7 -6 -13t-11 -9t-12 -3z" />
    <glyph glyph-name="ecaron" unicode="&#x11b;" horiz-adv-x="602" 
d="M323 621h125l100 114h-72l-65 -81q-6 -7 -11.5 -11t-9.5 -4.5t-7.5 0.5t-6 4t-4 5t-2.5 4l-1 2l-42 81h-72zM285 581l-98 164q-1 2 -2 4.5t-2.5 9.5t0 12t9 9.5t21.5 4.5h135q14 0 19 -11l32 -61l49 61q9 11 22 11h135h3t6 -1t7.5 -2.5t6.5 -4.5t4 -7t-2 -10.5t-11 -14.5
l-144 -164q-9 -10 -22 -10h-150q-12 0 -18 10zM467 198h-204q21 -50 83 -50q64 0 119 48zM498 198l2 -2l78 -89q6 -7 4.5 -17.5t-8.5 -17.5q-110 -103 -268 -103q-141 0 -214.5 82.5t-53.5 216.5q19 135 116.5 218.5t232.5 83.5q13 0 26 -1q138 -8 195 -102t26 -246
q-1 -5 -4 -9t-7 -7t-8.5 -5t-8.5 -2h-108zM380 520q-77 0 -139.5 -31t-102 -88t-50.5 -133q-17 -114 43 -181.5t182 -67.5q121 0 209 70l-48 55q-64 -46 -135 -46q-56 0 -91.5 31.5t-42.5 87.5q-1 11 2 18t10 9.5t10 3t7 0.5h355q20 131 -32.5 201.5t-176.5 70.5zM237 291
q-12 0 -17.5 6t-4.5 12.5t1 10.5q12 37 34 66t54 46.5t68 17.5q57 0 87.5 -37.5t22.5 -96.5q-2 -9 -10 -17t-19 -8h-216zM277 341h155q-5 59 -67 59q-57 0 -88 -59z" />
    <glyph glyph-name="Gbreve" unicode="&#x11e;" horiz-adv-x="743" 
d="M505.5 787q36.5 0 66.5 13t51.5 37t33.5 58h-60q-7 -17 -19.5 -29.5t-29.5 -20.5t-35 -8q-28 0 -46 16t-22 42h-60q2 -33 16.5 -57.5t41 -37.5t63 -13zM498 737q-80 0 -125 50.5t-38 131.5q1 10 9.5 18t19.5 8h108q10 0 16 -6.5t6 -16.5q-2 -35 26 -35t36 35q1 7 5.5 12
t10.5 8t12 3h108q10 0 17 -7.5t4 -18.5q-16 -81 -75.5 -131.5t-139.5 -50.5zM608 331l-23 -156q-2 -15 -17 -22q-78 -37 -140 -37q-98 0 -154.5 67.5t-42.5 166.5q15 98 90 165t172 67q98 0 174 -66l80 83q-45 38 -108.5 60t-130.5 22q-156 0 -272 -94.5t-137 -236.5
q-13 -94 21 -170t108 -119.5t172 -43.5q65 0 142 22t136 57l34 235h-104zM590 381h154q11 0 17 -8t4 -17l-39 -273q-2 -13 -14 -20q-66 -43 -153.5 -69.5t-165.5 -26.5q-111 0 -195.5 50t-124 137.5t-24 195t82 195t167.5 137t216 49.5q83 0 160 -29.5t127 -80.5q7 -7 6 -17
t-8 -18l-118 -121q-7 -8 -17.5 -9t-18.5 7q-30 32 -73.5 50.5t-86.5 18.5q-76 0 -134.5 -52t-70.5 -130q-11 -79 33 -131.5t121 -52.5q43 0 102 25l24 165q2 11 11 18t18 7z" />
    <glyph glyph-name="gbreve" unicode="&#x11f;" horiz-adv-x="647" 
d="M414 626q36 0 66.5 13t52 37t33.5 58h-60q-12 -25 -34.5 -41.5t-50 -16.5t-45.5 16t-23 42h-59q1 -25 10 -45t24 -34t37 -21.5t49 -7.5zM407 576q-80 0 -125 50.5t-38 131.5q1 4 2.5 7.5t4 7t6 6t7.5 4t9 1.5h108q10 0 16 -6.5t6 -16.5q-2 -35 26 -35t36 35q1 7 5.5 12
t10.5 8t12 3h108q10 0 16.5 -7.5t4.5 -18.5q-16 -81 -75.5 -131.5t-139.5 -50.5zM633 514h-122l-6 -41q-3 -21 -14.5 -24.5t-22.5 2.5l-10 7q-39 63 -130 62q-60 0 -110 -27.5t-83 -80t-43 -122.5q-16 -108 32.5 -172t140.5 -64q88 0 144 62q7 8 13 11t10 2t7.5 -3.5t5.5 -7
t3.5 -8t2.5 -6.5l1 -3l-9 -57q-9 -62 -58 -99t-119 -37q-82 0 -151 43l-48 -72q87 -55 200 -55q123 0 203.5 61t95.5 164zM687 539l-71 -490q-18 -125 -117.5 -200t-239.5 -75q-142 0 -243 75q-7 6 -7.5 15.5t4.5 16.5l77 117q5 9 14 13t23 -3q65 -50 146 -50
q53 0 83.5 22.5t36.5 61.5q-61 -38 -135 -38q-114 0 -174 80t-42 206q18 123 99.5 201.5t193.5 78.5q78 1 129 -39l1 8q1 11 10 18t18 7h172q11 0 17 -8t5 -17zM319 129q-62 0 -94.5 44.5t-22.5 111.5t55 112t107 45q61 0 92.5 -44.5t21.5 -112.5q-6 -43 -28 -78.5
t-56.5 -56.5t-74.5 -21zM326 179q39 0 67 28.5t35 77.5q7 51 -12.5 79t-59.5 28q-39 0 -68 -28.5t-36 -78.5q-5 -33 3 -57t26.5 -36.5t44.5 -12.5z" />
    <glyph glyph-name="Gcommaaccent" unicode="&#x122;" horiz-adv-x="743" 
d="M608 331l-23 -156q-2 -15 -17 -22q-78 -37 -140 -37q-98 0 -154.5 67.5t-42.5 166.5q15 98 90 165t172 67q98 0 174 -66l80 83q-45 38 -108.5 60t-130.5 22q-156 0 -272 -94.5t-137 -236.5q-13 -94 21 -170t108 -119.5t172 -43.5q65 0 142 22t136 57l34 235h-104z
M590 381h154q11 0 17 -8t4 -17l-39 -273q-2 -13 -14 -20q-66 -43 -153.5 -69.5t-165.5 -26.5q-111 0 -195.5 50t-124 137.5t-24 195t82 195t167.5 137t216 49.5q83 0 160 -29.5t127 -80.5q7 -7 6 -17t-8 -18l-118 -121q-7 -8 -17.5 -9t-18.5 7q-30 32 -73.5 50.5t-86.5 18.5
q-76 0 -134.5 -52t-70.5 -130q-11 -79 33 -131.5t121 -52.5q43 0 102 25l24 165q2 11 11 18t18 7zM388 -66q-26 0 -44 -15.5t-22 -42.5q-4 -29 16 -44q15 -12 4 -31l-40 -71h31l79 95q22 26 25 52q4 28 -9.5 42.5t-39.5 14.5zM396 -16q44 0 71 -29t20 -78q-6 -42 -38 -80
l-88 -106q-9 -11 -22 -11h-82q0 1 -4 0t-9 1t-8.5 4.5t-3 10.5t6.5 19l51 89q-24 29 -18 72q5 31 22.5 55.5t44 38.5t57.5 14z" />
    <glyph glyph-name="gcommaaccent" unicode="&#x123;" horiz-adv-x="647" 
d="M404 605q26 0 44.5 15.5t22.5 42.5q4 29 -16 44q-15 12 -5 31l41 71h-31l-80 -95q-21 -26 -25 -52q-4 -28 10 -42.5t39 -14.5zM397 555q-44 0 -71.5 29t-20.5 78q6 42 38 80l89 106q9 11 22 11h82q0 -1 4 0t8.5 -1t8.5 -4.5t3.5 -10.5t-6.5 -19l-51 -89q24 -29 18 -72
q-7 -47 -42.5 -77.5t-81.5 -30.5zM633 514h-122l-6 -41q-3 -21 -14.5 -24.5t-22.5 2.5l-10 7q-39 63 -130 62q-60 0 -110 -27.5t-83 -80t-43 -122.5q-16 -108 32.5 -172t140.5 -64q88 0 144 62q7 8 13 11t10 2t7.5 -3.5t5.5 -7t3.5 -8t2.5 -6.5l1 -3l-9 -57q-9 -62 -58 -99
t-119 -37q-82 0 -151 43l-48 -72q87 -55 200 -55q123 0 203.5 61t95.5 164zM687 539l-71 -490q-18 -125 -117.5 -200t-239.5 -75q-142 0 -243 75q-7 6 -7.5 15.5t4.5 16.5l77 117q5 9 14 13t23 -3q65 -50 146 -50q53 0 83.5 22.5t36.5 61.5q-61 -38 -135 -38q-114 0 -174 80
t-42 206q18 123 99.5 201.5t193.5 78.5q78 1 129 -39l1 8q1 11 10 18t18 7h172q11 0 17 -8t5 -17zM319 129q-62 0 -94.5 44.5t-22.5 111.5t55 112t107 45q61 0 92.5 -44.5t21.5 -112.5q-6 -43 -28 -78.5t-56.5 -56.5t-74.5 -21zM326 179q39 0 67 28.5t35 77.5q7 51 -12.5 79
t-59.5 28q-39 0 -68 -28.5t-36 -78.5q-5 -33 3 -57t26.5 -36.5t44.5 -12.5z" />
    <glyph glyph-name="hbar" unicode="&#x127;" horiz-adv-x="743" 
d="M471 569q19 3 39 3q100 0 152 -64t37 -168l-49 -340q-1 -7 -6 -13t-11 -9t-12 -3h-173q-10 0 -16 8t-5 17l42 292q11 77 -59 77q-39 0 -66 -27.5t-34 -75.5l-38 -266q-1 -7 -6 -13t-11 -9t-12 -3h-173q-10 0 -16 8t-5 17l79 551h-54q-10 0 -16 8t-5 17l14 94q1 7 5.5 13
t11 9t11.5 3h54l7 47q1 11 10.5 18t18.5 7h173q10 0 16 -8t5 -17l-7 -47h93q11 0 17 -8t5 -17l-14 -94q0 -3 -2 -7zM503 522q-32 0 -60 -8q-68 -18 -111 -77q-8 -9 -15 -11.5t-12 1.5t-9.5 9t-6.5 9l-2 5l18 126q1 9 9.5 17t19.5 8h93l6 44h-93q-9 0 -16 7t-5 18l6 47h-123
l-6 -47q-2 -9 -10 -17t-19 -8h-54l-6 -44h54q8 0 15.5 -7t5.5 -18l-79 -551h123l34 241q10 65 53 109t104 44q55 0 82.5 -35.5t19.5 -91.5l-38 -267h123l45 315q12 85 -27 133.5t-119 48.5zM403 551h-52l-4 -33q26 20 56 33z" />
    <glyph glyph-name="Itilde" unicode="&#x128;" horiz-adv-x="318" 
d="M218 913q-37 0 -59.5 -23.5t-35.5 -82.5h58q9 23 26 34q15 9 32 9q29 0 57.5 -23.5t52.5 -23.5t41 9t30.5 32.5t21.5 63.5h-57q-9 -21 -24 -32q-16 -10 -35 -10q-28 0 -57 23.5t-51 23.5zM225 963q14 0 28 -2.5t24 -6.5t19 -9t15.5 -10.5t11 -9.5t7.5 -6.5l3 -2.5h3
q4 5 5 17q2 11 11 18t18 7h105q11 0 17 -8t4 -17q-8 -56 -27 -95.5t-51.5 -62t-75.5 -22.5q-15 0 -29 2.5t-24.5 6.5t-19.5 9t-15.5 10.5t-11 9.5t-7 6.5t-3.5 2.5h-2q-3 -5 -5 -18q-2 -11 -11 -18t-18 -7h-106q-11 0 -17 8t-4 17q12 85 51.5 133t104.5 48zM227 25l93 650
h-128l-93 -650h128zM244 -25h-178q-10 0 -16 8t-5 17l101 700q1 11 10.5 18t17.5 7h178q11 0 17 -8t5 -17l-101 -700q-1 -7 -6 -13t-11 -9t-12 -3z" />
    <glyph glyph-name="itilde" unicode="&#x129;" horiz-adv-x="311" 
d="M190 752q-37 0 -59.5 -23.5t-34.5 -82.5h58q8 23 26 34q15 9 32 9q28 0 57 -23.5t53 -23.5q37 0 58.5 23t34.5 82h-57q-9 -21 -25 -32q-15 -10 -34 -10q-28 0 -57 23.5t-52 23.5zM198 802q14 0 27.5 -2.5t24 -6.5t19.5 -9.5t15.5 -10.5t11 -9t7 -6.5t3.5 -2.5h3q3 5 5 17
q1 7 6 13t11 9t12 3h105q10 0 16.5 -8t4.5 -17q-12 -85 -51 -132.5t-104 -47.5q-15 0 -28.5 2.5t-24 6.5t-19.5 9t-15.5 10.5t-11 9.5t-7 6.5t-3.5 2.5h-2q-4 -5 -6 -18q-1 -11 -10 -18t-18 -7h-106q-11 0 -17 8t-5 17q13 85 52.5 133t104.5 48zM220 25l70 489h-122
l-70 -489h122zM237 -25h-172q-10 0 -16 8t-5 17l78 539q1 11 10 18t18 7h172q11 0 17 -8t5 -17l-78 -539q-1 -7 -6 -13t-11 -9t-12 -3z" />
    <glyph glyph-name="Imacron" unicode="&#x12a;" horiz-adv-x="318" 
d="M391 818l9 66h-228l-9 -66h228zM409 768h-278q-11 0 -17 8t-5 17l17 116q1 7 6 13t11 9t12 3h278q10 0 16 -8t5 -17l-17 -116q-1 -11 -10 -18t-18 -7zM227 25l93 650h-128l-93 -650h128zM244 -25h-178q-10 0 -16 8t-5 17l101 700q1 11 10.5 18t17.5 7h178q11 0 17 -8
t5 -17l-101 -700q-1 -7 -6 -13t-11 -9t-12 -3z" />
    <glyph glyph-name="imacron" unicode="&#x12b;" horiz-adv-x="311" 
d="M364 657l9 66h-228l-9 -66h228zM381 607h-278q-10 0 -16 8t-5 17l17 116q1 11 10.5 18t17.5 7h278q11 0 17 -8t5 -17l-17 -116q-1 -11 -10.5 -18t-18.5 -7zM220 25l70 489h-122l-70 -489h122zM237 -25h-172q-10 0 -16 8t-5 17l78 539q1 11 10 18t18 7h172q11 0 17 -8
t5 -17l-78 -539q-1 -7 -6 -13t-11 -9t-12 -3z" />
    <glyph glyph-name="Iogonek" unicode="&#x12e;" horiz-adv-x="318" 
d="M213 -123q-23 -18 -46 -18q-16 0 -27 9q-16 14 -12 40q5 35 63 106q9 11 23 11h13l93 651h-128l-93 -651h31q21 0 25 -9.5t-3 -19.5l-7 -10q-52 -64 -58 -106q-5 -31 11 -44.5t43 -13.5q46 0 83 40zM240 -69l37 -51q9 -13 -2 -29q-27 -37 -64 -58t-77 -21q-43 0 -74 26.5
t-23 81.5q6 43 41 95h-12q-10 0 -16 8t-5 17l101 701q2 11 11 18t18 7h178q10 0 16 -8t5 -17l-101 -701q-1 -7 -6 -13t-11 -9t-12 -3h-24q-36 -45 -42 -65q10 4 22 19q22 27 40 2z" />
    <glyph glyph-name="iogonek" unicode="&#x12f;" horiz-adv-x="290" 
d="M256 760q-31 0 -52 -18.5t-25 -48.5t11.5 -48t45.5 -18q31 0 52 18t25 48q3 20 -3 35.5t-20 23.5t-34 8zM263 810q50 0 78.5 -33.5t21.5 -83.5t-45.5 -83t-88.5 -33t-78.5 33t-21.5 83t45.5 83.5t88.5 33.5zM211 25l70 489h-122l-70 -489h23q21 0 25 -9.5t-3 -19.5
l-7 -10q-52 -64 -58 -106q-9 -58 54 -58q46 0 83 40l-11 15q-23 -18 -45 -18q-16 0 -27 8q-17 14 -13 41q5 35 63 106q9 11 23 11h15zM228 -25h-26q-36 -45 -42 -65q10 4 22 19q22 27 40 2l37 -51q9 -13 -2 -29q-27 -37 -64 -58t-77 -21q-43 0 -74 26.5t-23 81.5q6 43 41 95
h-4q-10 0 -16 8t-5 17l78 539q1 11 10 18t18 7h172q11 0 17 -8t5 -17l-78 -539q-1 -5 -4 -10t-7 -8t-9 -5t-9 -2z" />
    <glyph glyph-name="Idotaccent" unicode="&#x130;" horiz-adv-x="318" 
d="M292 921q-30 0 -50.5 -18t-25.5 -48q-4 -31 11.5 -49t45 -18t50.5 18t25 49q5 30 -10.5 48t-45.5 18zM299 971q24 0 44.5 -9t33.5 -24t19 -37t2 -46q-7 -50 -45 -83.5t-87.5 -33.5t-78 33.5t-21.5 83.5t45 83t88 33zM227 25l93 650h-128l-93 -650h128zM244 -25h-178
q-10 0 -16 8t-5 17l101 700q1 11 10.5 18t17.5 7h178q11 0 17 -8t5 -17l-101 -700q-1 -7 -6 -13t-11 -9t-12 -3z" />
    <glyph glyph-name="dotlessi" unicode="&#x131;" horiz-adv-x="311" 
d="M220 25l70 489h-122l-70 -489h122zM237 -25h-172q-10 0 -16 8t-5 17l78 539q1 11 10 18t18 7h172q11 0 17 -8t5 -17l-78 -539q-1 -7 -6 -13t-11 -9t-12 -3z" />
    <glyph glyph-name="IJ" unicode="&#x132;" horiz-adv-x="853" 
d="M868 676h-369l-13 -94h215q9 0 16 -7t5 -18l-47 -326q-7 -50 -38.5 -80.5t-77.5 -30.5q-69 0 -133 65l-66 -79q74 -89 196 -89q104 0 168.5 54.5t79.5 155.5zM922 701l-68 -474q-18 -121 -100.5 -190.5t-204.5 -69.5q-154 0 -242 121q-11 14 2 30l100 119q21 25 39 3
q19 -23 41 -39.5t41.5 -23.5t35.5 -7q26 0 40 13.5t19 47.5l44 301h-215q-11 0 -17 8t-5 17l21 144q2 11 11 18t18 7h419q10 0 16 -8t5 -17zM227 25l93 650h-128l-93 -650h128zM244 -25h-178q-10 0 -16 8t-5 17l101 700q1 11 10.5 18t17.5 7h178q11 0 17 -8t5 -17l-101 -700
q-1 -7 -6 -13t-11 -9t-12 -3z" />
    <glyph glyph-name="ij" unicode="&#x133;" horiz-adv-x="630" 
d="M266 760q-30 0 -51 -18t-25 -48q-4 -31 11.5 -49t44.5 -18q15 0 28 4.5t23 13.5t16.5 21.5t8.5 27.5q3 20 -3 35t-20 23t-33 8zM272.5 810q49.5 0 78 -33t21.5 -83t-45 -83.5t-88 -33.5t-78 33.5t-21 83.5t45 83t87.5 33zM578 760q-34 0 -56.5 -18.5t-26.5 -48.5
q-4 -29 13 -47.5t50 -18.5q34 0 56.5 18.5t26.5 47.5q3 20 -3.5 35t-22 23.5t-37.5 8.5zM585 810q52 0 82.5 -33t23.5 -84q-7 -50 -47 -83t-93 -33q-52 0 -82.5 33t-23.5 83q7 51 47.5 84t92.5 33zM220 25l70 489h-122l-70 -489h122zM237 -25h-172q-10 0 -16 8t-5 17l78 539
q1 11 10 18t18 7h172q11 0 17 -8t5 -17l-78 -539q-1 -7 -6 -13t-11 -9t-12 -3zM604 514h-123l-75 -519q-5 -38 -30 -61.5t-60 -22.5q-23 0 -45 9l-38 -74q42 -22 101 -22q77 -1 130 41t64 119zM658 539l-80 -555q-15 -99 -86 -155t-166 -55q-85 0 -142 39q-16 10 -6 30
l61 121q15 28 38 12q24 -15 47 -15q10 0 15.5 2t10 9.5t6.5 22.5l79 544q1 11 10 18t18 7h173q11 0 17 -8t5 -17z" />
    <glyph glyph-name="Jcircumflex" unicode="&#x134;" horiz-adv-x="536" 
d="M513 796l-61 101h-113l-90 -101h60l62 74q12 15 22.5 15t14.5 -8l4 -7l40 -74h61zM556 746h-124q-14 0 -20 11l-29 55l-45 -55q-9 -11 -22 -11h-124h-3.5t-6 1t-8 2.5t-6.5 4.5t-3.5 7t2.5 10.5t10 14.5l135 151q9 10 21 10h138q13 0 19 -10l91 -151q1 -1 1.5 -2.5
t2 -5.5t2 -8t-0.5 -8.5t-4 -7.5t-9.5 -5.5t-16.5 -2.5zM550 676h-369l-13 -94h215q9 0 16 -7t5 -18l-47 -326q-7 -50 -38.5 -80.5t-77.5 -30.5q-69 0 -133 65l-66 -79q74 -89 196 -89q104 0 168.5 54.5t79.5 155.5zM604 701l-68 -474q-18 -121 -100.5 -190.5t-204.5 -69.5
q-154 0 -242 121q-11 14 2 30l100 119q21 25 39 3q19 -23 41 -39.5t41.5 -23.5t35.5 -7q26 0 40 13.5t19 47.5l44 301h-215q-11 0 -17 8t-5 17l21 144q2 11 11 18t18 7h419q10 0 16 -8t5 -17z" />
    <glyph glyph-name="jcircumflex" unicode="&#x135;" horiz-adv-x="308" 
d="M375 635l-61 101h-113l-91 -101h61l62 74q12 15 22 15t15 -8l4 -7l40 -74h61zM417 585h-124q-13 0 -19 11l-29 55l-45 -55q-9 -11 -23 -11h-124q-2 0 -5 0.5t-9.5 2.5t-10 6t-1.5 12t12 19l135 151q9 10 21 10h138q13 0 19 -10l91 -151q1 -2 2.5 -4.5t2.5 -9.5t-0.5 -12
t-9 -9.5t-21.5 -4.5zM293 514h-123l-73 -509q-6 -43 -31.5 -70t-64.5 -26q-25 0 -48 9l-34 -71q46 -22 109 -23q79 -1 128 40t60 116zM347 539l-81 -559q-14 -95 -81.5 -151t-164.5 -55q-88 2 -149 38q-7 4 -9 13.5t2 16.5l57 119q14 29 38 14q25 -16 49 -16q17 0 26 8.5
t13 37.5l77 534q1 11 10 18t18 7h173q11 0 17 -8t5 -17z" />
    <glyph glyph-name="Kcommaaccent" unicode="&#x136;" horiz-adv-x="747" 
d="M696 25l-198 371q-8 16 7 31l258 248h-138l-303 -295q-19 -15 -28 -11.5t-11 16.5l-3 12l40 278h-128l-93 -650h128l21 147q1 10 9 17l107 103q25 24 39 -3l140 -264h153zM735 -25h-213q-13 0 -19 11l-131 248l-76 -72l-23 -162q-1 -7 -6 -13t-11 -9t-12 -3h-178
q-10 0 -16 8t-5 17l101 700q1 11 10.5 18t17.5 7h178q11 0 17 -8t5 -17l-34 -237l261 254q8 8 19 8h206q2 0 3.5 -0.5t6 -1.5t8 -3t6.5 -5t3.5 -7t-3 -10.5t-11.5 -14.5l-287 -275l210 -394q1 -2 2 -4.5t2 -9t-0.5 -12t-9 -9.5t-21.5 -4zM360 -66q-26 0 -44 -15.5t-22 -42.5
q-4 -29 16 -44q15 -12 4 -31l-40 -71h31l79 95q22 26 25 52q4 28 -9.5 42.5t-39.5 14.5zM368 -16q44 0 71 -29t20 -78q-6 -42 -38 -80l-88 -106q-9 -11 -22 -11h-82q0 1 -4 0t-9 1t-8.5 4.5t-3 10.5t6.5 19l51 89q-24 29 -18 72q5 31 22.5 55.5t44 38.5t57.5 14z" />
    <glyph glyph-name="kcedilla" unicode="&#x137;" horiz-adv-x="630" 
d="M319 225q27 25 40 -5l81 -195h146l-138 294q-8 16 7 30l182 165h-127l-197 -181q-18 -15 -27 -11.5t-12 16.5l-2 12l53 367h-123l-99 -692h5q12 0 18.5 -3.5t6.5 -9t-1.5 -11t-4.5 -8.5l-2 -4l-24 -37q25 -2 41 -18.5t13 -44.5q-3 -29 -26 -47t-52 -18q-18 0 -35 8
l-14 -25q30 -16 59 -16q49 0 78 22t35 59q2 18 -9 33.5t-33 21.5q-29 7 -10 36l33 49q9 13 24 13h21l17 122q2 10 10 17zM324 166l-32 -29l-20 -137q-1 -7 -6 -13t-11 -9t-12 -3h-31l-7 -11q24 -14 36.5 -38.5t8.5 -53.5q-6 -39 -30 -69t-60.5 -46t-79.5 -16q-57 0 -103 36
q-15 11 -4 30l42 71q0 1 1.5 3.5t5.5 7t8.5 6.5t11.5 0.5t14 -9.5q11 -12 28 -12q19 0 21 14q1 7 -2.5 10.5t-15.5 3.5q-16 0 -31 -3q-2 0 -5 -0.5t-10.5 0.5t-11.5 4t-3.5 11.5t8.5 20.5l27 42q-14 6 -12 23l107 742q1 11 10.5 18t18.5 7h173q10 0 16 -8t5 -17l-47 -329
l155 143q8 8 19 8h196q2 0 5.5 -1t10 -4t9.5 -7t0.5 -12t-13.5 -18l-212 -193l148 -316q1 -1 2 -4t2 -9.5t-0.5 -11.5t-9 -9t-21.5 -4h-205q-14 0 -20 13z" />
    <glyph glyph-name="kgreenlandic" unicode="&#x138;" horiz-adv-x="624" 
d="M313 225q27 25 40 -5l81 -195h146l-138 294q-8 16 7 30l182 165h-127l-197 -181q-18 -15 -27 -11.5t-12 16.5l-2 12l24 164h-122l-70 -489h122l17 122q2 10 10 17zM318 166l-32 -29l-20 -137q-1 -7 -6 -13t-11 -9t-12 -3h-172q-10 0 -16 8t-5 17l78 539q1 11 10 18t18 7
h172q11 0 17 -8t5 -17l-18 -126l155 143q8 8 19 8h196q2 0 5.5 -1t10 -4t9.5 -7t0.5 -12t-13.5 -18l-212 -193l148 -316q1 -1 2 -4t2 -9.5t-0.5 -11.5t-9 -9t-21.5 -4h-205q-14 0 -20 13z" />
    <glyph glyph-name="Lacute" unicode="&#x139;" horiz-adv-x="560" 
d="M407 865l-92 34l-87 -113h77zM471 855l-147 -113q-8 -6 -17 -6h-132h-2.5t-6 0.5t-7.5 1.5t-6.5 4t-3.5 7t1.5 10.5t8.5 14.5l131 168q13 17 31 11l148 -55q1 -1 3.5 -2t8 -4.5t7 -8t-2 -12t-14.5 -16.5zM266 124q-9 0 -16 7t-6 18l76 526h-128l-93 -650h425l14 99h-272z
M298 174h272q11 0 17 -8t4 -17l-21 -149q-1 -7 -6 -13t-11 -9t-12 -3h-475q-10 0 -16 8t-5 17l101 700q1 11 10.5 18t17.5 7h178q11 0 17 -8t5 -17z" />
    <glyph glyph-name="lacute" unicode="&#x13a;" horiz-adv-x="321" 
d="M418 907l-92 34l-87 -113h77zM482 897l-147 -113q-8 -6 -17 -6h-132h-2.5t-6 0.5t-7.5 1.5t-6.5 4t-3.5 7t1.5 10.5t8.5 14.5l131 168q13 17 31 11l148 -55q1 -1 4 -2t8 -4.5t6.5 -8t-2 -12t-14.5 -16.5zM226 25l99 692h-123l-99 -692h123zM243 -25h-173q-10 0 -16 8
t-5 17l107 742q1 11 10.5 18t18.5 7h173q10 0 16 -8t5 -17l-107 -742q-1 -7 -6 -13t-11 -9t-12 -3z" />
    <glyph glyph-name="Lcommaaccent" unicode="&#x13b;" horiz-adv-x="560" 
d="M538 124h-272q-9 0 -16 7t-6 18l76 526h-128l-93 -650h425zM591 149l-21 -149q-1 -7 -6 -13t-11 -9t-12 -3h-475q-10 0 -16 8t-5 17l101 700q1 11 10.5 18t17.5 7h178q11 0 17 -8t5 -17l-76 -526h272q11 0 17 -8t4 -17zM287 -66q-26 0 -44 -15.5t-22 -42.5q-4 -29 16 -44
q15 -12 4 -31l-40 -71h31l79 95q22 26 25 52q4 28 -9.5 42.5t-39.5 14.5zM295 -16q44 0 71 -29t20 -78q-6 -42 -38 -80l-88 -106q-9 -11 -22 -11h-82q0 1 -4 0t-9 1t-8.5 4.5t-3 10.5t6.5 19l51 89q-24 29 -18 72q7 47 42.5 77.5t81.5 30.5z" />
    <glyph glyph-name="lcommaaccent" unicode="&#x13c;" horiz-adv-x="321" 
d="M226 25l99 692h-123l-99 -692h123zM243 -25h-173q-10 0 -16 8t-5 17l107 742q1 11 10.5 18t18.5 7h173q10 0 16 -8t5 -17l-107 -742q-1 -7 -6 -13t-11 -9t-12 -3zM158 -66q-17 0 -31 -7t-23 -20t-12 -31q-4 -29 16 -44q15 -12 4 -31l-40 -71h31l79 95q22 26 25 52
q4 28 -9.5 42.5t-39.5 14.5zM166 -16q44 0 71 -29t20 -78q-6 -42 -38 -80l-88 -106q-9 -11 -22 -11h-82q0 1 -4 0t-9 1t-8.5 4.5t-3 10.5t6.5 19l51 89q-24 29 -18 72q7 47 42.5 77.5t81.5 30.5z" />
    <glyph glyph-name="Lcaron" unicode="&#x13d;" horiz-adv-x="560" 
d="M538 124h-272q-9 0 -16 7t-6 18l76 526h-128l-93 -650h425zM591 149l-21 -149q-1 -7 -6 -13t-11 -9t-12 -3h-475q-10 0 -16 8t-5 17l101 700q1 11 10.5 18t17.5 7h178q11 0 17 -8t5 -17l-76 -526h272q11 0 17 -8t4 -17zM457 440h31l79 95q22 28 26 52q4 28 -10 42.5
t-39 14.5q-18 0 -32 -7t-23 -20t-11 -30q-5 -30 15 -44q6 -5 8 -13.5t-3 -17.5zM394 425l51 90q-24 29 -17 72q6 46 41.5 76.5t81.5 30.5q44 0 71.5 -29t20.5 -78q-6 -40 -38 -80l-89 -106q-9 -11 -22 -11h-82q0 1 -4 0t-8.5 1t-8.5 4.5t-3.5 10.5t6.5 19z" />
    <glyph glyph-name="lcaron" unicode="&#x13e;" horiz-adv-x="406" 
d="M202 717l-99 -692h123l99 692h-123zM185 767h173q10 0 16 -8t5 -17l-107 -742q-1 -7 -6 -13t-11 -9t-12 -3h-173q-10 0 -16 8t-5 17l107 742q1 11 10.5 18t18.5 7zM459 652q-17 0 -31.5 -7t-23.5 -20t-11 -30q-5 -30 15 -44q6 -5 8 -13.5t-3 -17.5l-41 -72h31l79 95
q22 28 26 52q4 28 -10 42.5t-39 14.5zM466 702q28 0 50.5 -12.5t34 -37t7.5 -57.5q-6 -40 -38 -80l-88 -106q-10 -11 -23 -11h-82q0 1 -4 0t-8.5 1t-8.5 4.5t-3.5 10.5t6.5 19l51 90q-24 29 -17 72q6 46 41.5 76.5t81.5 30.5z" />
    <glyph glyph-name="Ldot" unicode="&#x13f;" horiz-adv-x="560" 
d="M266 124q-9 0 -16 7t-6 18l76 526h-128l-93 -650h425l14 99h-272zM298 174h272q11 0 17 -8t4 -17l-21 -149q-1 -7 -6 -13t-11 -9t-12 -3h-475q-10 0 -16 8t-5 17l101 700q1 11 10.5 18t17.5 7h178q11 0 17 -8t5 -17zM490 537q-25 0 -42.5 -15.5t-21.5 -41.5t9.5 -41.5
t38.5 -15.5q26 0 44 15.5t22 41.5t-9.5 41.5t-40.5 15.5zM498 587q46 0 72.5 -30.5t20 -76.5t-42 -76.5t-81.5 -30.5q-30 0 -52.5 14t-32.5 38.5t-6 54.5q7 46 41.5 76.5t80.5 30.5z" />
    <glyph glyph-name="ldot" unicode="&#x140;" horiz-adv-x="393" 
d="M226 25l99 692h-123l-99 -692h123zM243 -25h-173q-10 0 -16 8t-5 17l107 742q1 11 10.5 18t18.5 7h173q10 0 16 -8t5 -17l-107 -742q-1 -7 -6 -13t-11 -9t-12 -3zM400 370q-27 0 -44.5 -15.5t-21.5 -42.5t9.5 -42.5t40.5 -15.5q26 0 43.5 15.5t21.5 42.5t-9.5 42.5
t-39.5 15.5zM408 420q46 0 72 -31t19 -77t-42 -77t-81 -31t-72.5 30.5t-19.5 77.5q2 13 6.5 25.5t11 23t15 20t19 16.5t22 12.5t24 8t26.5 2.5z" />
    <glyph glyph-name="Lslash" unicode="&#x141;" horiz-adv-x="580" 
d="M557 124h-272q-9 0 -16 7t-6 18l34 235q3 19 22 24l155 43l-7 57l-125 -35q-15 -4 -22.5 1.5t-6.5 13t1 9.5l25 178h-128l-33 -229q-2 -19 -21 -24l-82 -23l8 -56l51 14q15 4 22.5 -1.5t6 -13t-0.5 -9.5l-44 -308h425zM610 149l-21 -149q-1 -7 -6 -13t-11 -9t-12 -3h-475
q-10 0 -16 8t-5 17l43 300l-43 -12q-5 -2 -9.5 -1t-8.5 3t-6.5 6t-3.5 9l-14 104q-1 10 5.5 19t15.5 12l88 25l34 235q1 11 10.5 18t17.5 7h178q11 0 17 -8t5 -17l-25 -170l117 33q10 3 18.5 -2t10.5 -15l14 -105q1 -10 -6 -19t-16 -12l-161 -45l-28 -191h272q11 0 17 -8
t4 -17z" />
    <glyph glyph-name="lslash" unicode="&#x142;" horiz-adv-x="343" 
d="M301 402q3 19 21 24l91 25l-7 57l-60 -17q-16 -4 -23 1.5t-6 13t0 9.5l29 202h-123l-36 -252q-3 -19 -22 -24l-109 -30l8 -56l78 21q16 4 23 -1.5t6 -13t0 -9.5l-47 -327h123zM348 383l-55 -383q-1 -7 -6 -13t-11 -9t-12 -3h-173q-10 0 -16 8t-5 17l46 319l-70 -19
q-10 -3 -18.5 2.5t-9.5 14.5l-15 104q-2 10 4.5 19t16.5 12l116 32l37 258q1 11 10.5 18t18.5 7h173q10 0 16 -8t5 -17l-28 -194l52 15q10 3 18.5 -2t10.5 -15l14 -105q1 -10 -6 -19t-16 -12z" />
    <glyph glyph-name="Nacute" unicode="&#x143;" horiz-adv-x="786" 
d="M645 865l-92 34l-87 -113h77zM709 855l-147 -113q-8 -6 -17 -6h-132h-2.5t-6 0.5t-7.5 1.5t-6.5 4t-3.5 7t1.5 10.5t8.5 14.5l131 168q13 17 31 11l148 -55q1 -1 3.5 -2t8 -4.5t7 -8t-2 -12t-14.5 -16.5zM695 25l93 650h-116l-58 -407q-3 -20 -15 -24t-22 3l-11 6
l-254 422h-120l-93 -650h117l58 406q3 20 15 24t22 -3l10 -6l254 -421h120zM712 -25h-157q-12 0 -18 10l-224 371l-51 -356q-1 -5 -4 -10t-7 -8t-9 -5t-9 -2h-167q-10 0 -16 8t-5 17l101 700q1 11 10.5 18t17.5 7h157q13 0 19 -10l224 -372l52 357q1 11 10.5 18t17.5 7h166
q11 0 17 -8t5 -17l-101 -700q-1 -7 -6 -13t-11 -9t-12 -3z" />
    <glyph glyph-name="nacute" unicode="&#x144;" horiz-adv-x="673" 
d="M480 625l102 79l-92 34l-88 -113h78zM482 575h-132h-2.5t-6 0.5t-7.5 1.5t-6.5 4t-3.5 7t1.5 10.5t8.5 14.5l130 168q14 17 31 11l148 -55q2 -1 4.5 -2t7.5 -4.5t7 -8t-1.5 -12t-15.5 -16.5l-146 -113q-8 -6 -17 -6zM497 522q-109 -1 -170 -84q-14 -15 -23.5 -12
t-15.5 14l-6 11l9 63h-123l-70 -489h123l37 260q0 1 1 3q14 57 55.5 94t97.5 37q54 0 82 -35.5t20 -91.5l-38 -267h122l45 315q12 85 -27 133.5t-119 48.5zM504 572q100 0 152 -64t37 -168l-49 -340q-1 -7 -6 -13t-11 -9t-12 -3h-172q-10 0 -16 8t-5 17l42 292
q6 38 -9.5 57.5t-49.5 19.5q-24 0 -43.5 -10t-33 -29.5t-20.5 -45.5l-41 -284q-1 -7 -6 -13t-11 -9t-12 -3h-173q-10 0 -16 8t-5 17l78 539q1 11 10 18t18 7h173q11 0 17 -8t5 -17l-3 -20q69 52 162 53z" />
    <glyph glyph-name="Ncommaaccent" unicode="&#x145;" horiz-adv-x="786" 
d="M788 675h-116l-58 -407q-3 -20 -15 -24t-22 3l-11 6l-254 422h-120l-93 -650h117l58 406q3 20 15 24t22 -3l10 -6l254 -421h120zM842 700l-101 -700q-1 -7 -6 -13t-11 -9t-12 -3h-157q-12 0 -18 10l-224 371l-51 -356q-1 -5 -4 -10t-7 -8t-9 -5t-9 -2h-167q-10 0 -16 8
t-5 17l101 700q1 11 10.5 18t17.5 7h157q13 0 19 -10l224 -372l52 357q1 11 10.5 18t17.5 7h166q11 0 17 -8t5 -17zM390 -66q-26 0 -44 -15.5t-22 -42.5q-4 -29 16 -44q15 -12 4 -31l-40 -71h31l79 95q22 26 25 52q4 28 -9.5 42.5t-39.5 14.5zM398 -16q44 0 71 -29t20 -78
q-6 -42 -38 -80l-88 -106q-9 -11 -22 -11h-82q0 1 -4 0t-9 1t-8.5 4.5t-3 10.5t6.5 19l51 89q-24 29 -18 72q5 31 22.5 55.5t44 38.5t57.5 14z" />
    <glyph glyph-name="ncommaaccent" unicode="&#x146;" horiz-adv-x="673" 
d="M497 522q-109 -1 -170 -84q-14 -15 -23.5 -12t-15.5 14l-6 11l9 63h-123l-70 -489h123l37 260q0 1 1 3q14 57 55.5 94t97.5 37q54 0 82 -35.5t20 -91.5l-38 -267h122l45 315q12 85 -27 133.5t-119 48.5zM504 572q100 0 152 -64t37 -168l-49 -340q-1 -7 -6 -13t-11 -9
t-12 -3h-172q-10 0 -16 8t-5 17l42 292q6 38 -9.5 57.5t-49.5 19.5q-24 0 -43.5 -10t-33 -29.5t-20.5 -45.5l-41 -284q-1 -7 -6 -13t-11 -9t-12 -3h-173q-10 0 -16 8t-5 17l78 539q1 11 10 18t18 7h173q11 0 17 -8t5 -17l-3 -20q69 52 162 53zM338 -66q-26 0 -44 -15.5
t-22 -42.5q-4 -29 16 -44q15 -12 4 -31l-40 -71h31l79 95q22 26 25 52q4 28 -9.5 42.5t-39.5 14.5zM346 -16q44 0 71 -29t20 -78q-6 -42 -38 -80l-88 -106q-9 -11 -22 -11h-82q0 1 -4 0t-9 1t-8.5 4.5t-3 10.5t6.5 19l51 89q-24 29 -18 72q3 23 14.5 43t28 34.5t37.5 22.5
t44 8z" />
    <glyph glyph-name="Ncaron" unicode="&#x147;" horiz-adv-x="786" 
d="M372 897l67 -114h125l101 114h-72l-66 -81q-8 -10 -15 -13.5t-11.5 -1.5t-8 5t-5.5 7l-1 3l-42 81h-72zM329 947h135q14 0 20 -11l31 -61l49 61q9 11 22 11h135q2 0 5.5 -0.5t10 -2.5t9.5 -5.5t1.5 -12t-11.5 -19.5l-145 -164q-9 -10 -21 -10h-150q-13 0 -19 10l-97 164
q-1 2 -2.5 4.5t-3 9.5t0 12t9.5 9.5t21 4.5zM695 25l93 650h-116l-58 -407q-3 -20 -15 -24t-22 3l-11 6l-254 422h-120l-93 -650h117l58 406q3 20 15 24t22 -3l10 -6l254 -421h120zM712 -25h-157q-12 0 -18 10l-224 371l-51 -356q-1 -5 -4 -10t-7 -8t-9 -5t-9 -2h-167
q-10 0 -16 8t-5 17l101 700q1 11 10.5 18t17.5 7h157q13 0 19 -10l224 -372l52 357q1 11 10.5 18t17.5 7h166q11 0 17 -8t5 -17l-101 -700q-1 -7 -6 -13t-11 -9t-12 -3z" />
    <glyph glyph-name="ncaron" unicode="&#x148;" horiz-adv-x="673" 
d="M376 622h125l101 114h-73l-65 -81q-6 -7 -11 -11t-9.5 -4.5t-8 0.5t-5.5 4t-4 5t-3 4v2l-42 81h-72zM338 582l-98 164q-1 2 -2 4.5t-2.5 9.5t0 12t9 9.5t21.5 4.5h135q14 0 19 -11l32 -61l49 61q9 11 22 11h135h3t6.5 -1t7.5 -2.5t6.5 -4.5t4 -7t-2.5 -10.5t-10 -14.5
l-145 -164q-9 -10 -22 -10h-150q-12 0 -18 10zM497 522q-109 -1 -170 -84q-14 -15 -23.5 -12t-15.5 14l-6 11l9 63h-123l-70 -489h123l37 260q0 1 1 3q14 57 55.5 94t97.5 37q54 0 82 -35.5t20 -91.5l-38 -267h122l45 315q12 85 -27 133.5t-119 48.5zM504 572q100 0 152 -64
t37 -168l-49 -340q-1 -7 -6 -13t-11 -9t-12 -3h-172q-10 0 -16 8t-5 17l42 292q6 38 -9.5 57.5t-49.5 19.5q-24 0 -43.5 -10t-33 -29.5t-20.5 -45.5l-41 -284q-1 -7 -6 -13t-11 -9t-12 -3h-173q-10 0 -16 8t-5 17l78 539q1 11 10 18t18 7h173q11 0 17 -8t5 -17l-3 -20
q69 52 162 53z" />
    <glyph glyph-name="Omacron" unicode="&#x14c;" horiz-adv-x="805" 
d="M627 818l9 66h-228l-9 -66h228zM645 768h-278q-11 0 -17 8t-5 17l17 116q1 7 6 13t11 9t12 3h278q10 0 16 -8t5 -17l-17 -116q-1 -5 -4 -10t-7 -8t-8.5 -5t-8.5 -2zM500 681q-153 0 -266.5 -94t-133.5 -236q-21 -143 65.5 -238.5t238.5 -95.5q153 0 267.5 95.5
t135.5 238.5q20 142 -67 236t-240 94zM507 731q113 0 198.5 -49t126 -136.5t25.5 -194.5q-16 -108 -81.5 -196t-165.5 -138t-213 -50q-112 0 -197.5 50t-125.5 138t-24 196q15 108 80.5 195t165 136t211.5 49zM488 582q92 0 146 -67t39.5 -165t-87.5 -166t-165 -68t-148 68
t-41.5 166t89 165t167.5 67zM481 532q-72 0 -130 -52t-70 -130q-5 -38 4 -72.5t29 -59t50 -38.5t64 -14q70 0 127 52.5t68 131.5q8 52 -9 94t-52 65t-81 23z" />
    <glyph glyph-name="omacron" unicode="&#x14d;" horiz-adv-x="637" 
d="M527 657l9 66h-228l-9 -66h228zM544 607h-278q-10 0 -16 8t-5 17l17 116q1 11 10.5 18t17.5 7h278q11 0 17 -8t5 -17l-17 -116q-1 -11 -10.5 -18t-18.5 -7zM394 520q-124 0 -207 -68t-99.5 -182t47 -182.5t187.5 -68.5q123 0 205.5 68.5t99 182.5t-46.5 182t-186 68z
M401 570q142 0 218.5 -82.5t57.5 -217.5t-120 -218t-242 -83q-142 0 -219.5 83t-58 218t120.5 217.5t243 82.5zM381 433q65 0 98.5 -47t23.5 -118q-11 -71 -58 -118t-111 -47q-65 0 -99 47t-23 118q10 71 57 118t112 47zM374 383q-43 0 -74 -30.5t-38 -84.5q-6 -36 3 -62.5
t28.5 -39.5t47.5 -13q42 0 73 30.5t39 84.5q7 54 -15 84.5t-64 30.5z" />
    <glyph glyph-name="Ohungarumlaut" unicode="&#x150;" horiz-adv-x="805" 
d="M523 871l-75 29l-74 -115h73zM582 868l-107 -123q-9 -10 -22 -10h-126q0 1 -4.5 0t-9 1t-8.5 5t-3 11t8 19l109 171q6 9 15.5 12.5t17.5 -0.5l124 -48q30 -11 6 -38zM717 871l-75 29l-74 -115h73zM776 868l-107 -123q-9 -10 -22 -10h-126q0 1 -4.5 0t-9 1t-8.5 5t-3 11
t8 19l109 171q6 9 15.5 12.5t17.5 -0.5l124 -48q30 -11 6 -38zM500 681q-153 0 -266.5 -94t-133.5 -236q-21 -143 65.5 -238.5t238.5 -95.5q153 0 267.5 95.5t135.5 238.5q20 142 -67 236t-240 94zM507 731q113 0 198.5 -49t126 -136.5t25.5 -194.5q-16 -108 -81.5 -196
t-165.5 -138t-213 -50q-112 0 -197.5 50t-125.5 138t-24 196q15 108 80.5 195t165 136t211.5 49zM488 582q92 0 146 -67t39.5 -165t-87.5 -166t-165 -68t-148 68t-41.5 166t89 165t167.5 67zM481 532q-72 0 -130 -52t-70 -130q-5 -38 4 -72.5t29 -59t50 -38.5t64 -14
q70 0 127 52.5t68 131.5q8 52 -9 94t-52 65t-81 23z" />
    <glyph glyph-name="ohungarumlaut" unicode="&#x151;" horiz-adv-x="637" 
d="M423 709l-74 29l-74 -115h73zM483 706l-108 -123q-9 -10 -21 -10h-126q0 1 -4.5 0t-9.5 1t-8.5 5t-3 11t7.5 19l110 171q4 6 10 9.5t11.5 4t11.5 -1.5l124 -48q29 -11 6 -38zM617 709l-74 29l-74 -115h73zM677 706l-108 -123q-9 -10 -21 -10h-126q0 1 -4.5 0t-9.5 1
t-8.5 5t-3 11t7.5 19l110 171q6 9 15.5 12.5t17.5 -0.5l124 -48q29 -11 6 -38zM394 520q-124 0 -207 -68t-99.5 -182t47 -182.5t187.5 -68.5q123 0 205.5 68.5t99 182.5t-46.5 182t-186 68zM401 570q142 0 218.5 -82.5t57.5 -217.5t-120 -218t-242 -83q-142 0 -219.5 83
t-58 218t120.5 217.5t243 82.5zM381 433q65 0 98.5 -47t23.5 -118q-11 -71 -58 -118t-111 -47q-65 0 -99 47t-23 118q10 71 57 118t112 47zM374 383q-43 0 -74 -30.5t-38 -84.5q-6 -36 3 -62.5t28.5 -39.5t47.5 -13q42 0 73 30.5t39 84.5q7 54 -15 84.5t-64 30.5z" />
    <glyph glyph-name="OE" unicode="&#x152;" horiz-adv-x="1113" 
d="M1060 115h-356q-9 0 -16 7t-6 18l21 142q0 6 4 11.5t10.5 9.5t13.5 4h309l13 89h-309q-5 0 -10.5 3t-8.5 9t-2 13l20 139q1 9 9.5 17t18.5 8h346l13 91h-632q-152 0 -265.5 -93.5t-133.5 -233.5q-20 -139 67 -231.5t239 -92.5h642zM1113 140l-20 -140q-1 -7 -6 -13
t-11 -9t-12 -3h-667q-111 0 -196 48t-126 134t-25.5 192t80.5 192.5t164 135.5t212 49h657q10 0 16 -8t5 -17l-20 -141q-2 -11 -11 -18t-18 -7h-346l-13 -89h309q11 0 17 -8t5 -17l-20 -139q-2 -11 -11 -18t-18 -7h-309l-13 -92h356q10 0 16 -8t5 -17zM555 144
q-2 -9 -10 -17t-19 -8l-107 -1q-94 0 -148 66t-40 164t87 164.5t167 66.5h107q9 0 16 -7t6 -18zM508 169l52 360h-82q-73 0 -129.5 -51t-67.5 -130q-7 -51 9 -92.5t52 -64.5t84 -23z" />
    <glyph glyph-name="oe" unicode="&#x153;" horiz-adv-x="1019" 
d="M790 520q-116 0 -184 -80q-24 -28 -41 -1q-50 81 -171 81q-124 0 -207 -68t-99.5 -182t47 -182.5t187.5 -68.5q120 0 194 80q24 27 39 0q48 -80 167 -80q122 0 211 70l-48 55q-65 -46 -137 -46q-59 0 -96 34.5t-41 94.5q-1 12 5.5 19.5t12.5 9t11 1.5h367
q16 122 -41.5 192.5t-175.5 70.5zM797 570h19q136 -7 200 -100t36 -239q-2 -10 -10.5 -17t-17.5 -7h-357q19 -59 88 -59q65 0 121 48q8 7 18.5 7t16.5 -7l78 -89q6 -7 5 -17.5t-9 -17.5q-111 -103 -270 -103q-125 0 -188 77q-87 -77 -212 -77q-142 0 -219.5 83t-58 218
t120.5 217.5t243 82.5q127 0 191 -77q84 77 205 77zM644 290q-17 0 -21 11.5t0 17.5q18 59 60.5 97t97.5 38q58 0 89 -40t22 -99q0 -2 -1 -4.5t-2.5 -5t-3.5 -5t-4.5 -4l-5 -3t-5.5 -2.5t-6 -1h-220zM683 340h160q-2 30 -20 47t-49 17q-58 0 -91 -64zM334 103q-65 0 -99 47
t-23 118q10 71 57 118t112 47t98.5 -47t23.5 -118q-11 -71 -58 -118t-111 -47zM341 153q42 0 73 30.5t39 84.5q7 54 -15 84.5t-64 30.5q-43 0 -74 -30.5t-38 -84.5q-6 -36 3 -62.5t28.5 -39.5t47.5 -13z" />
    <glyph glyph-name="Racute" unicode="&#x154;" horiz-adv-x="724" 
d="M513 786l102 79l-92 34l-87 -113h77zM515 736h-132h-2.5t-6 0.5t-7.5 1.5t-6.5 4t-3.5 7t1.5 10.5t8.5 14.5l131 168q13 17 31 11l148 -55q1 -1 3.5 -2t8 -4.5t7 -8t-2 -12t-14.5 -16.5l-147 -113q-8 -6 -17 -6zM511 25h141l-95 193q-6 12 0 21.5t15 13.5q122 57 143 203
q10 70 -12.5 119t-78.5 74.5t-144 25.5h-288l-93 -650h128l24 172q2 9 10 17t19 8h140q15 0 20 -13zM468 -12l-70 184h-100l-25 -172q-1 -7 -6 -13t-11 -9t-12 -3h-178q-10 0 -16 8t-5 17l101 700q1 11 10.5 18t17.5 7h313q147 0 221.5 -70.5t56.5 -198.5
q-23 -159 -151 -234l103 -209q1 -1 2 -3.5t2 -9.5t-0.5 -12t-9 -9t-21.5 -4h-202q-15 0 -20 13zM293 312q-6 0 -11 3t-8 9t-2 13l32 223q1 9 9.5 17t18.5 8h135q67 0 102 -35.5t26 -99.5q-5 -32 -19.5 -58.5t-36 -43.5t-50 -26.5t-61.5 -9.5h-135zM325 362h110
q50 0 76.5 21.5t33.5 66.5q6 44 -14 64.5t-71 20.5h-110z" />
    <glyph glyph-name="racute" unicode="&#x155;" horiz-adv-x="427" 
d="M351 625l102 79l-92 34l-88 -113h78zM353 575h-132h-2.5t-6 0.5t-7.5 1.5t-6.5 4t-3.5 7t1.5 10.5t8.5 14.5l130 168q14 17 31 11l148 -55q2 -1 4.5 -2t7.5 -4.5t7 -8t-1.5 -12t-15.5 -16.5l-146 -113q-8 -6 -17 -6zM291 514h-123l-70 -489h123l36 252q0 1 1 3
q10 41 38 72t68 48t88 17l15 103q-87 -11 -141 -85q-7 -9 -14 -11.5t-12.5 1.5t-9.5 9t-6 9l-2 5zM345 539l-3 -22q69 54 157 55q10 0 16.5 -7t5.5 -18l-23 -156q-1 -10 -9 -18t-21 -7q-65 6 -107 -19.5t-54 -71.5l-40 -275q-1 -7 -6 -13t-11 -9t-12 -3h-173q-10 0 -16 8
t-5 17l78 539q1 11 10 18t18 7h173q11 0 17 -8t5 -17z" />
    <glyph glyph-name="Rcommaaccent" unicode="&#x156;" horiz-adv-x="724" 
d="M652 25l-95 193q-6 12 0 21.5t15 13.5q122 57 143 203q10 70 -12.5 119t-78.5 74.5t-144 25.5h-288l-93 -650h128l24 172q2 9 10 17t19 8h140q15 0 20 -13l71 -184h141zM690 -25h-202q-15 0 -20 13l-70 184h-100l-25 -172q-1 -7 -6 -13t-11 -9t-12 -3h-178q-10 0 -16 8
t-5 17l101 700q1 11 10.5 18t17.5 7h313q147 0 221.5 -70.5t56.5 -198.5q-23 -159 -151 -234l103 -209q1 -1 2 -3.5t2 -9.5t-0.5 -12t-9 -9t-21.5 -4zM293 312q-6 0 -11 3t-8 9t-2 13l32 223q1 9 9.5 17t18.5 8h135q67 0 102 -35.5t26 -99.5q-5 -32 -19.5 -58.5t-36 -43.5
t-50 -26.5t-61.5 -9.5h-135zM325 362h110q50 0 76.5 21.5t33.5 66.5q6 44 -14 64.5t-71 20.5h-110zM356 -66q-26 0 -44 -15.5t-22 -42.5q-4 -29 16 -44q15 -12 4 -31l-40 -71h31l79 95q22 26 25 52q4 28 -9.5 42.5t-39.5 14.5zM364 -16q44 0 71 -29t20 -78q-6 -42 -38 -80
l-88 -106q-9 -11 -22 -11h-82q0 1 -4 0t-9 1t-8.5 4.5t-3 10.5t6.5 19l51 89q-24 29 -18 72q7 47 42.5 77.5t81.5 30.5z" />
    <glyph glyph-name="rcommaaccent" unicode="&#x157;" horiz-adv-x="427" 
d="M291 514h-123l-70 -489h123l36 252q0 1 1 3q10 41 38 72t68 48t88 17l15 103q-87 -11 -141 -85q-7 -9 -14 -11.5t-12.5 1.5t-9.5 9t-6 9l-2 5zM345 539l-3 -22q69 54 157 55q10 0 16.5 -7t5.5 -18l-23 -156q-1 -10 -9 -18t-21 -7q-65 6 -107 -19.5t-54 -71.5l-40 -275
q-1 -7 -6 -13t-11 -9t-12 -3h-173q-10 0 -16 8t-5 17l78 539q1 11 10 18t18 7h173q11 0 17 -8t5 -17zM147 -66q-26 0 -44 -15.5t-22 -42.5q-4 -29 16 -44q15 -12 4 -31l-40 -71h31l79 95q22 26 25 52q4 28 -9.5 42.5t-39.5 14.5zM155 -16q44 0 71 -29t20 -78q-6 -42 -38 -80
l-88 -106q-9 -11 -22 -11h-82q0 1 -4 0t-9 1t-8.5 4.5t-3 10.5t6.5 19l51 89q-24 29 -18 72q7 47 42.5 77.5t81.5 30.5z" />
    <glyph glyph-name="Rcaron" unicode="&#x158;" horiz-adv-x="724" 
d="M409 783h125l101 114h-72l-66 -81q-8 -10 -15 -13.5t-11.5 -1.5t-8 5t-5.5 7l-1 3l-42 81h-72zM371 743l-97 164q-1 2 -2.5 4.5t-3 9.5t0 12t9.5 9.5t21 4.5h135q14 0 20 -11l31 -61l49 61q9 11 22 11h135q2 0 5.5 -0.5t10 -2.5t9.5 -5.5t1.5 -12t-11.5 -19.5l-145 -164
q-9 -10 -21 -10h-150q-13 0 -19 10zM511 25h141l-95 193q-6 12 0 21.5t15 13.5q122 57 143 203q10 70 -12.5 119t-78.5 74.5t-144 25.5h-288l-93 -650h128l24 172q2 9 10 17t19 8h140q15 0 20 -13zM468 -12l-70 184h-100l-25 -172q-1 -7 -6 -13t-11 -9t-12 -3h-178
q-10 0 -16 8t-5 17l101 700q1 11 10.5 18t17.5 7h313q147 0 221.5 -70.5t56.5 -198.5q-23 -159 -151 -234l103 -209q1 -1 2 -3.5t2 -9.5t-0.5 -12t-9 -9t-21.5 -4h-202q-15 0 -20 13zM293 312q-6 0 -11 3t-8 9t-2 13l32 223q1 9 9.5 17t18.5 8h135q67 0 102 -35.5t26 -99.5
q-5 -32 -19.5 -58.5t-36 -43.5t-50 -26.5t-61.5 -9.5h-135zM325 362h110q50 0 76.5 21.5t33.5 66.5q6 44 -14 64.5t-71 20.5h-110z" />
    <glyph glyph-name="rcaron" unicode="&#x159;" horiz-adv-x="427" 
d="M247 622h125l101 114h-73l-65 -81q-6 -7 -11 -11t-9.5 -4.5t-8 0.5t-5.5 4t-4 5t-3 4v2l-42 81h-72zM209 582l-98 164q-1 2 -2 4.5t-2.5 9.5t0 12t9 9.5t21.5 4.5h135q14 0 19 -11l32 -61l49 61q9 11 22 11h135h3t6.5 -1t7.5 -2.5t6.5 -4.5t4 -7t-2.5 -10.5t-10 -14.5
l-145 -164q-9 -10 -22 -10h-150q-12 0 -18 10zM291 514h-123l-70 -489h123l36 252q0 1 1 3q10 41 38 72t68 48t88 17l15 103q-87 -11 -141 -85q-7 -9 -14 -11.5t-12.5 1.5t-9.5 9t-6 9l-2 5zM345 539l-3 -22q69 54 157 55q10 0 16.5 -7t5.5 -18l-23 -156q-1 -10 -9 -18
t-21 -7q-65 6 -107 -19.5t-54 -71.5l-40 -275q-1 -7 -6 -13t-11 -9t-12 -3h-173q-10 0 -16 8t-5 17l78 539q1 11 10 18t18 7h173q11 0 17 -8t5 -17z" />
    <glyph glyph-name="Sacute" unicode="&#x15a;" horiz-adv-x="644" 
d="M591 865l-92 34l-87 -113h77zM655 855l-147 -113q-8 -6 -17 -6h-132h-2.5t-6 0.5t-7.5 1.5t-6.5 4t-3.5 7t1.5 10.5t8.5 14.5l131 168q13 17 31 11l148 -55q1 -1 3.5 -2t8 -4.5t7 -8t-2 -12t-14.5 -16.5zM437 683q-119 0 -193.5 -51t-86.5 -135q-6 -40 5.5 -70t35 -47
t55 -30.5t65 -21.5t65 -19.5t56 -23.5t37 -34t8.5 -52q-6 -43 -43 -64.5t-86 -21.5q-55 0 -118 24.5t-113 66.5l-59 -91q53 -43 125.5 -68.5t149.5 -25.5q75 0 135.5 22t99 65t47.5 102q6 41 -5.5 72t-35 49t-54.5 32.5t-64.5 22.5t-65 19.5t-56 24t-37 34.5t-8.5 51
q6 39 38.5 57.5t74.5 18.5q43 0 97.5 -17.5t106.5 -45.5l59 94q-46 29 -108 46t-127 17zM445 733q78 0 151.5 -22t125.5 -60q8 -5 9 -15t-4 -17l-87 -139q-6 -9 -16 -12.5t-21 1.5q-48 31 -105.5 50.5t-95.5 19.5q-52 0 -56 -26q-2 -13 12.5 -23.5t39.5 -17t57 -16.5t65 -20
t63.5 -29.5t53 -44.5t32.5 -64.5t3 -89.5q-11 -77 -62 -132t-122.5 -81t-154.5 -26q-92 0 -176.5 31.5t-142.5 86.5q-14 12 -2 30l88 137q19 29 40 8q43 -43 107.5 -71t114.5 -28q66 0 72 36q2 14 -12.5 24.5t-39.5 17t-57 15.5t-65.5 19t-64 28.5t-53 42.5t-32.5 63t-3 88
q15 109 109.5 172.5t228.5 63.5z" />
    <glyph glyph-name="sacute" unicode="&#x15b;" horiz-adv-x="513" 
d="M494 704l-92 34l-88 -113h78zM557 694l-146 -113q-8 -6 -17 -6h-132h-2.5t-6 0.5t-7.5 1.5t-6.5 4t-3.5 7t1.5 10.5t8.5 14.5l130 168q14 17 31 11l148 -55q2 -1 4.5 -2t7.5 -4.5t7 -8t-1.5 -12t-15.5 -16.5zM337 522q-59 0 -105 -17t-74.5 -50t-35.5 -79q-6 -39 11 -66
t46 -39t63.5 -23.5t64 -21t47.5 -29t13 -48.5q-4 -32 -32 -47t-60 -15q-90 0 -174 56l-42 -66q80 -59 202 -59q93 0 153 39.5t70 107.5q5 34 -7 58t-35 38t-52 24t-58 18.5t-52.5 18.5t-36.5 27.5t-10 41.5q5 31 31 46.5t56 15.5q67 0 153 -45l46 68q-83 46 -182 46z
M344 572q126 0 226 -64q8 -6 9 -16t-5 -18l-75 -112q-6 -9 -16.5 -12t-18.5 2q-88 51 -151 51q-28 0 -30 -12q0 -5 15 -10t39 -10.5t53 -13.5t57 -23.5t50 -36t32.5 -55t4.5 -77.5q-9 -63 -50.5 -108.5t-101 -67t-129.5 -21.5q-151 0 -245 81q-7 6 -7 15.5t4 15.5l71 110
q3 5 8.5 9t13.5 5.5t16 -5.5q80 -62 168 -62q34 0 35 12q1 6 -10 11t-30 8.5t-43 10.5t-49 16t-48 25t-39.5 36t-24 51t-1.5 69q9 63 49.5 108t98 66.5t124.5 21.5z" />
    <glyph glyph-name="Scedilla" unicode="&#x15e;" horiz-adv-x="644" 
d="M239 -109q0 1 -3.5 0.5t-7 1.5t-6.5 5t-1.5 10.5t8.5 18.5l30 47q-150 24 -245 113q-14 12 -2 30l88 137q19 29 40 8q43 -43 107.5 -71t114.5 -28q66 0 72 36q2 14 -12.5 24.5t-39.5 17t-57 15.5t-65.5 19t-64 28.5t-53 42.5t-32.5 63t-3 88q15 109 109.5 172.5
t228.5 63.5q78 0 151.5 -22t125.5 -60q8 -5 9 -15t-4 -17l-87 -139q-6 -9 -16 -12.5t-21 1.5q-48 31 -105.5 50.5t-95.5 19.5q-52 0 -56 -26q-2 -13 12.5 -23.5t39.5 -17t57 -16.5t65 -20t63.5 -29.5t53 -44.5t32.5 -64.5t3 -89.5q-14 -95 -86.5 -155.5t-174.5 -77.5l-9 -13
q25 -14 37 -38.5t8 -55.5q-8 -58 -56.5 -93t-111.5 -35q-57 0 -104 35q-7 5 -8 14.5t3 16.5l43 71q0 2 1.5 4t5.5 6.5t8.5 6.5t11.5 0.5t13 -9.5q13 -13 31 -13q17 0 18 12q1 3 0.5 4.5t-5.5 4t-14 2.5q-10 0 -33 -4h-11zM622 208q6 41 -5.5 72t-35 49t-54.5 32.5
t-64.5 22.5t-65 19.5t-56 24t-37 34.5t-8.5 51q6 39 38.5 57.5t74.5 18.5q43 0 97.5 -17.5t106.5 -45.5l59 94q-46 29 -108 46t-127 17q-119 0 -193.5 -51t-86.5 -135q-6 -40 5.5 -70t35 -47t55 -30.5t65 -21.5t65 -19.5t56 -23.5t37 -34t8.5 -52q-6 -43 -43 -64.5
t-86 -21.5q-55 0 -118 24.5t-113 66.5l-59 -91q45 -38 108.5 -62.5t131.5 -30.5q11 -1 16.5 -5t6 -9t-1 -10t-4.5 -8l-2 -4l-24 -39q27 -2 43.5 -18.5t12.5 -42.5q-3 -26 -25 -44t-51 -18q-18 0 -36 8l-15 -24q31 -16 61 -16q47 0 76.5 21.5t34.5 56.5q6 44 -41 57
q-29 8 -11 35l32 49q8 12 21 14q93 12 153 60t71 125z" />
    <glyph glyph-name="scedilla" unicode="&#x15f;" horiz-adv-x="513" 
d="M163 -109q0 1 -3.5 0.5t-7 1.5t-6.5 5t-1.5 10.5t8.5 18.5l29 46q-106 17 -174 76q-7 6 -7 15.5t4 15.5l71 110q3 5 8.5 9t13.5 5.5t16 -5.5q80 -62 168 -62q34 0 35 12q1 6 -10 11t-30 8.5t-43 10.5t-49 16t-48 25t-39.5 36t-24 51t-1.5 69q9 63 49.5 108t98 66.5
t124.5 21.5q126 0 226 -64q8 -6 9 -16t-5 -18l-75 -112q-6 -9 -16.5 -12t-18.5 2q-88 51 -151 51q-28 0 -30 -12q0 -5 15 -10t39 -10.5t53 -13.5t57 -23.5t50 -36t32.5 -55t4.5 -77.5q-11 -74 -65 -123t-134 -66l-9 -14q25 -14 37 -38.5t8 -55.5q-8 -58 -56.5 -93
t-111.5 -35q-57 0 -104 35q-7 5 -8 14.5t3 16.5l43 71q0 2 1.5 4t5.5 6.5t8.5 6.5t11.5 0.5t13 -9.5q13 -13 31 -13q17 0 18 12q1 1 0.5 3t-2 4t-6 3t-11.5 1q-10 0 -33 -4h-11zM233 391q5 31 31 46.5t56 15.5q67 0 153 -45l46 68q-83 46 -182 46q-59 0 -105 -17t-74.5 -50
t-35.5 -79q-6 -39 11 -66t46 -39t63.5 -23.5t64 -21t47.5 -29t13 -48.5q-4 -32 -32 -47t-60 -15q-90 0 -174 56l-42 -66q33 -25 76.5 -39.5t93.5 -18.5q17 -1 21 -10t-1 -18l-5 -8l-24 -38q27 -2 43.5 -18.5t12.5 -42.5q-2 -17 -13 -31.5t-27.5 -22.5t-35 -8t-36.5 8
l-15 -24q31 -16 61 -16q47 0 76.5 21.5t34.5 56.5q6 44 -41 57q-29 8 -11 35l32 49q7 11 20 14q70 12 112.5 48.5t50.5 93.5q5 34 -7 58t-35 38t-52 24t-58 18.5t-52.5 18.5t-36.5 27.5t-10 41.5z" />
    <glyph glyph-name="Scaron" unicode="&#x160;" horiz-adv-x="644" 
d="M318 897l67 -114h125l101 114h-72l-66 -81q-8 -10 -15 -13.5t-11.5 -1.5t-8 5t-5.5 7l-1 3l-42 81h-72zM275 947h135q14 0 20 -11l31 -61l49 61q9 11 22 11h135q2 0 5.5 -0.5t10 -2.5t9.5 -5.5t1.5 -12t-11.5 -19.5l-145 -164q-9 -10 -21 -10h-150q-13 0 -19 10l-97 164
q-1 1 -1.5 2.5t-2 5.5t-2 8t0.5 8.5t4 7.5t9.5 5.5t16.5 2.5zM437 683q-119 0 -193.5 -51t-86.5 -135q-6 -40 5.5 -70t35 -47t55 -30.5t65 -21.5t65 -19.5t56 -23.5t37 -34t8.5 -52q-6 -43 -43 -64.5t-86 -21.5q-55 0 -118 24.5t-113 66.5l-59 -91q53 -43 125.5 -68.5
t149.5 -25.5q75 0 135.5 22t99 65t47.5 102q6 41 -5.5 72t-35 49t-54.5 32.5t-64.5 22.5t-65 19.5t-56 24t-37 34.5t-8.5 51q6 39 38.5 57.5t74.5 18.5q43 0 97.5 -17.5t106.5 -45.5l59 94q-46 29 -108 46t-127 17zM445 733q78 0 151.5 -22t125.5 -60q8 -5 9 -15t-4 -17
l-87 -139q-6 -9 -16 -12.5t-21 1.5q-48 31 -105.5 50.5t-95.5 19.5q-52 0 -56 -26q-2 -13 12.5 -23.5t39.5 -17t57 -16.5t65 -20t63.5 -29.5t53 -44.5t32.5 -64.5t3 -89.5q-11 -77 -62 -132t-122.5 -81t-154.5 -26q-92 0 -176.5 31.5t-142.5 86.5q-14 12 -2 30l88 137
q19 29 40 8q43 -43 107.5 -71t114.5 -28q66 0 72 36q2 14 -12.5 24.5t-39.5 17t-57 15.5t-65.5 19t-64 28.5t-53 42.5t-32.5 63t-3 88q15 109 109.5 172.5t228.5 63.5z" />
    <glyph glyph-name="scaron" unicode="&#x161;" horiz-adv-x="513" 
d="M222 736l67 -114h125l101 114h-73l-65 -81q-6 -7 -11 -11t-9.5 -4.5t-8 0.5t-5.5 4t-4 5t-3 4v2l-42 81h-72zM179 786h135q14 0 19 -11l32 -61l49 61q9 11 22 11h135h3t6.5 -1t7.5 -2.5t6.5 -4.5t4 -7t-2.5 -10.5t-10 -14.5l-145 -164q-9 -10 -22 -10h-150q-12 0 -18 10
l-98 164q-1 2 -2 4.5t-2.5 9.5t0 12t9 9.5t21.5 4.5zM337 522q-59 0 -105 -17t-74.5 -50t-35.5 -79q-6 -39 11 -66t46 -39t63.5 -23.5t64 -21t47.5 -29t13 -48.5q-4 -32 -32 -47t-60 -15q-90 0 -174 56l-42 -66q80 -59 202 -59q93 0 153 39.5t70 107.5q5 34 -7 58t-35 38
t-52 24t-58 18.5t-52.5 18.5t-36.5 27.5t-10 41.5q5 31 31 46.5t56 15.5q67 0 153 -45l46 68q-83 46 -182 46zM344 572q126 0 226 -64q8 -6 9 -16t-5 -18l-75 -112q-6 -9 -16.5 -12t-18.5 2q-88 51 -151 51q-28 0 -30 -12q0 -5 15 -10t39 -10.5t53 -13.5t57 -23.5t50 -36
t32.5 -55t4.5 -77.5q-9 -63 -50.5 -108.5t-101 -67t-129.5 -21.5q-151 0 -245 81q-7 6 -7 15.5t4 15.5l71 110q3 5 8.5 9t13.5 5.5t16 -5.5q80 -62 168 -62q34 0 35 12q1 6 -10 11t-30 8.5t-43 10.5t-49 16t-48 25t-39.5 36t-24 51t-1.5 69q9 63 49.5 108t98 66.5
t124.5 21.5z" />
    <glyph glyph-name="Tcedilla" unicode="&#x162;" horiz-adv-x="611" 
d="M201 -109h-2t-4 0.5t-5.5 1.5t-4.5 3.5t-2.5 6t1.5 10t7 14.5l30 48h-9q-10 0 -16 8t-5 17l77 532h-184q-11 0 -17 8t-5 17l21 144q1 7 6 13t11 9t12 3h598q10 0 16 -8t5 -17l-21 -144q-1 -11 -10.5 -18t-17.5 -7h-186l-77 -532q-1 -7 -6 -13t-11 -9t-12 -3h-17l-9 -13
q25 -14 37 -38.5t8 -55.5q-8 -58 -56.5 -93t-111.5 -35q-57 0 -104 35q-7 5 -8 14.5t3 16.5l43 71q0 2 1.5 4t5.5 6.5t8.5 6.5t11.5 0.5t13 -9.5q13 -13 31 -13q17 0 18 12q1 3 0.5 4.5t-5.5 4t-14 2.5q-10 0 -33 -4h-11zM340 11q9 14 25 14h8l76 532q2 9 10 17t19 8h186
l13 94h-548l-13 -94h184q9 0 16 -7t5 -18l-76 -532h23q12 0 18 -3.5t6.5 -9t-1 -10.5t-4.5 -9l-2 -4l-28 -44q28 -2 44.5 -18.5t12.5 -42.5q-3 -26 -25 -44t-51 -18q-18 0 -36 8l-15 -24q31 -16 61 -16q47 0 76.5 21.5t34.5 56.5q6 44 -41 57q-29 8 -11 35z" />
    <glyph glyph-name="tcedilla" unicode="&#x163;" horiz-adv-x="435" 
d="M167 -109h-2t-4 0.5t-5.5 1.5t-4.5 3.5t-2.5 6t1.5 10t7 14.5l33 52q-55 20 -81 68t-17 116l31 213h-50q-10 0 -16 8t-5 17l16 113q1 7 6 13t11 9t12 3h50l18 125q1 11 10 18t18 7h172q11 0 17 -8t5 -17l-18 -124h116q10 0 16 -8t5 -17l-16 -114q-2 -11 -11 -18t-18 -7
h-116l-27 -186q-3 -23 1 -28.5t19 -5.5q20 0 60 16q7 5 18.5 1.5t13.5 -17.5l16 -120q1 -8 -3.5 -16.5t-11.5 -12.5q-44 -23 -93 -32l-8 -13q25 -14 37 -38.5t8 -55.5q-8 -58 -56.5 -93t-111.5 -35q-57 0 -104 35q-7 5 -8 14.5t3 16.5l43 71q0 2 1.5 4t5.5 6.5t8.5 6.5
t11.5 0.5t13 -9.5q13 -13 31 -13q17 0 18 12q1 3 0.5 4.5t-5.5 4t-14 2.5q-10 0 -33 -4h-11zM304 8q7 12 20 14q35 5 69 20l-10 74q-30 -10 -51 -10q-35 -1 -52 22t-12 62l31 211q1 6 4.5 11.5t10 9.5t13.5 4h116l10 64h-116q-9 0 -16 7t-6 18l18 124h-122l-18 -125
q-1 -6 -4.5 -11.5t-10 -9.5t-14.5 -4h-50l-9 -63h50q9 0 16 -7t6 -18l-35 -238q-8 -61 16.5 -96.5t77.5 -45.5q31 -6 12 -36l-25 -40q28 -2 44.5 -18.5t12.5 -42.5q-2 -17 -13 -31.5t-27.5 -22.5t-35 -8t-36.5 8l-15 -24q31 -16 61 -16q47 0 76.5 21.5t34.5 56.5
q6 44 -41 57q-29 8 -11 35z" />
    <glyph glyph-name="Tcaron" unicode="&#x164;" horiz-adv-x="611" 
d="M296 897l67 -114h125l101 114h-72l-66 -81q-8 -10 -15 -13.5t-11.5 -1.5t-8 5t-5.5 7l-1 3l-42 81h-72zM253 947h135q14 0 20 -11l31 -61l49 61q9 11 22 11h135q2 0 5.5 -0.5t10 -2.5t9.5 -5.5t1.5 -12t-11.5 -19.5l-145 -164q-9 -10 -21 -10h-150q-13 0 -19 10l-97 164
q-1 2 -2.5 4.5t-3 9.5t0 12t9.5 9.5t21 4.5zM664 582l13 94h-548l-13 -94h184q9 0 16 -7t5 -18l-76 -532h128l76 532q2 9 10 17t19 8h186zM682 532h-186l-77 -532q-1 -7 -6 -13t-11 -9t-12 -3h-178q-10 0 -16 8t-5 17l77 532h-184q-11 0 -17 8t-5 17l21 144q1 7 6 13t11 9
t12 3h598q10 0 16 -8t5 -17l-21 -144q-1 -11 -10.5 -18t-17.5 -7z" />
    <glyph glyph-name="tcaron" unicode="&#x165;" horiz-adv-x="428" 
d="M518 808q-26 0 -44 -15.5t-22 -41.5q-4 -30 16 -44q6 -5 7.5 -13.5t-2.5 -17.5l-41 -72h31l79 95q22 28 25 52q4 28 -9.5 42.5t-39.5 14.5zM526 858q44 0 71 -29t20 -78q-5 -40 -38 -80l-88 -106q-9 -11 -22 -11h-82q0 1 -4 0t-9 1t-8.5 4.5t-3 10.5t6.5 19l51 90
q-24 29 -18 72q7 46 42.5 76.5t81.5 30.5zM338 156q20 0 60 16q7 5 18.5 1.5t13.5 -17.5l16 -120q1 -8 -3.5 -16.5t-11.5 -12.5q-75 -40 -163 -40q-89 0 -139 52t-37 144l31 213h-50q-10 0 -16 8t-5 17l16 113q1 7 6 13t11 9t12 3h50l18 125q1 11 10 18t18 7h172q11 0 17 -8
t5 -17l-18 -124h116q10 0 16 -8t5 -17l-16 -114q-2 -11 -11 -18t-18 -7h-116l-27 -186q-3 -23 1.5 -28.5t18.5 -5.5zM332 106q-35 -1 -52 22t-12 62l31 211q1 6 4.5 11.5t10 9.5t13.5 4h116l10 64h-116q-9 0 -16 7t-6 18l18 124h-122l-18 -125q-1 -6 -4.5 -11.5t-10 -9.5
t-14.5 -4h-50l-9 -63h50q9 0 16 -7t6 -18l-35 -238q-10 -71 26 -108.5t107 -37.5q62 0 118 25l-10 74q-30 -10 -51 -10z" />
    <glyph glyph-name="Umacron" unicode="&#x16a;" horiz-adv-x="758" 
d="M611 818l9 66h-228l-9 -66h228zM629 768h-278q-11 0 -17 8t-5 17l17 116q1 7 6 13t11 9t12 3h278q10 0 16 -8t5 -17l-17 -116q-1 -5 -4 -10t-7 -8t-8.5 -5t-8.5 -2zM772 675h-127l-55 -381q-11 -80 -64 -129t-127 -49q-75 0 -116 49t-30 129l55 381h-128l-55 -381
q-18 -128 51 -202.5t207 -74.5t227 74t107 203zM826 700l-59 -406q-21 -149 -128 -238t-263 -89q-157 0 -239.5 89t-61.5 238l59 406q1 11 10.5 18t17.5 7h178q11 0 17 -8t5 -17l-59 -406q-8 -61 20 -94.5t83 -33.5q53 0 89.5 33.5t44.5 94.5l59 406q1 7 6 13t11 9t11 3h177
q11 0 17 -8t5 -17z" />
    <glyph glyph-name="umacron" unicode="&#x16b;" horiz-adv-x="663" 
d="M536 657l9 66h-228l-9 -66h228zM553 607h-278q-10 0 -16 8t-5 17l17 116q1 11 10.5 18t17.5 7h278q11 0 17 -8t5 -17l-17 -116q-1 -11 -10.5 -18t-18.5 -7zM643 514h-123l-35 -241q-9 -64 -50 -108t-102 -45q-52 0 -78 36t-18 92l38 266h-123l-45 -315q-13 -85 25.5 -133
t116.5 -48q105 0 165 84q5 7 10.5 10t9.5 2t8 -3t7 -6t5.5 -7.5t3.5 -5.5l1 -3l-9 -64h123zM697 539l-78 -539q-1 -7 -6 -13t-11 -9t-12 -3h-173q-10 0 -16 8t-5 17l3 19q-67 -51 -158 -51q-98 0 -148.5 64t-35.5 167l49 340q1 11 10 18t18 7h173q11 0 17 -8t5 -17l-42 -291
q-11 -77 53 -78q25 1 45 13t33 35t17 55l39 266q1 11 10 18t18 7h173q11 0 17 -8t5 -17z" />
    <glyph glyph-name="Uring" unicode="&#x16e;" horiz-adv-x="758" 
d="M516 950q-40 0 -72 -28t-37.5 -67t18.5 -67t63.5 -28t72 28t38 67t-18.5 67t-64 28zM523.5 1000q60.5 0 97 -42.5t27.5 -102.5q-5 -39 -29.5 -72.5t-61 -53t-76.5 -19.5q-60 0 -96.5 42.5t-28 102.5t57.5 102.5t109.5 42.5zM513 932q32 0 52 -22.5t15 -54.5
q-4 -32 -30.5 -54.5t-58.5 -22.5t-51.5 22.5t-15.5 54.5q3 21 16 38.5t32.5 28t40.5 10.5zM506 882q-11 0 -20.5 -8.5t-11.5 -18.5q-1 -11 6 -19t18 -8q8 0 15 3.5t11.5 10t5.5 13.5q2 10 -5.5 18.5t-18.5 8.5zM772 675h-127l-55 -381q-11 -80 -64 -129t-127 -49
q-75 0 -116 49t-30 129l55 381h-128l-55 -381q-18 -128 51 -202.5t207 -74.5t227 74t107 203zM826 700l-59 -406q-21 -149 -128 -238t-263 -89q-157 0 -239.5 89t-61.5 238l59 406q1 11 10.5 18t17.5 7h178q11 0 17 -8t5 -17l-59 -406q-8 -61 20 -94.5t83 -33.5
q53 0 89.5 33.5t44.5 94.5l59 406q1 7 6 13t11 9t11 3h177q11 0 17 -8t5 -17z" />
    <glyph glyph-name="uring" unicode="&#x16f;" horiz-adv-x="663" 
d="M413 599q40 0 72 28t38 67t-18 67t-64 28q-26 0 -50 -13t-40 -34.5t-20 -47.5q-6 -39 18 -67t64 -28zM406.5 549q-60.5 0 -97.5 42.5t-28 102.5t57.5 102.5t109 42.5t97.5 -42.5t28 -102.5t-57.5 -102.5t-109 -42.5zM438 771q32 0 52 -22.5t15 -54.5t-31 -54.5t-58 -22.5
t-52 22.5t-15 54.5t31 54.5t58 22.5zM431 721q-11 0 -20.5 -8.5t-11.5 -18.5q-2 -11 5 -19t19 -8q8 0 15 3.5t11.5 10t5.5 13.5q1 5 -0.5 10t-5 8.5t-8.5 6t-10 2.5zM643 514h-123l-35 -241q-9 -64 -50 -108t-102 -45q-52 0 -78 36t-18 92l38 266h-123l-45 -315
q-13 -85 25.5 -133t116.5 -48q105 0 165 84q5 7 10.5 10t9.5 2t8 -3t7 -6t5.5 -7.5t3.5 -5.5l1 -3l-9 -64h123zM697 539l-78 -539q-1 -7 -6 -13t-11 -9t-12 -3h-173q-10 0 -16 8t-5 17l3 19q-67 -51 -158 -51q-98 0 -148.5 64t-35.5 167l49 340q1 11 10 18t18 7h173
q11 0 17 -8t5 -17l-42 -291q-11 -77 53 -78q25 1 45 13t33 35t17 55l39 266q1 11 10 18t18 7h173q11 0 17 -8t5 -17z" />
    <glyph glyph-name="Uhungarumlaut" unicode="&#x170;" horiz-adv-x="758" 
d="M508 871l-75 29l-74 -115h73zM567 868l-107 -123q-9 -10 -22 -10h-126q0 1 -4.5 0t-9 1t-8.5 5t-3 11t8 19l109 171q6 9 15.5 12.5t17.5 -0.5l124 -48q30 -11 6 -38zM702 871l-75 29l-74 -115h73zM761 868l-107 -123q-9 -10 -22 -10h-126q0 1 -4.5 0t-9 1t-8.5 5t-3 11
t8 19l109 171q6 9 15.5 12.5t17.5 -0.5l124 -48q30 -11 6 -38zM772 675h-127l-55 -381q-11 -80 -64 -129t-127 -49q-75 0 -116 49t-30 129l55 381h-128l-55 -381q-18 -128 51 -202.5t207 -74.5t227 74t107 203zM826 700l-59 -406q-21 -149 -128 -238t-263 -89
q-157 0 -239.5 89t-61.5 238l59 406q1 11 10.5 18t17.5 7h178q11 0 17 -8t5 -17l-59 -406q-8 -61 20 -94.5t83 -33.5q53 0 89.5 33.5t44.5 94.5l59 406q1 7 6 13t11 9t11 3h177q11 0 17 -8t5 -17z" />
    <glyph glyph-name="uhungarumlaut" unicode="&#x171;" horiz-adv-x="663" 
d="M356 624l76 86l-75 29l-74 -115h73zM362 574h-126q0 1 -4.5 0t-9.5 1t-8.5 5t-3 11t8.5 19l109 171q6 9 15.5 12.5t17.5 -0.5l124 -48q30 -11 6 -38l-108 -123q-9 -10 -21 -10zM477 624h73l76 86l-75 29zM413 610l109 171q6 9 15.5 12.5t17.5 -0.5l124 -48q30 -11 6 -38
l-108 -123q-9 -10 -21 -10h-126q0 1 -4.5 0t-9.5 1t-8.5 5t-3 11t8.5 19zM643 514h-123l-35 -241q-9 -64 -50 -108t-102 -45q-52 0 -78 36t-18 92l38 266h-123l-45 -315q-13 -85 25.5 -133t116.5 -48q105 0 165 84q5 7 10.5 10t9.5 2t8 -3t7 -6t5.5 -7.5t3.5 -5.5l1 -3
l-9 -64h123zM697 539l-78 -539q-1 -7 -6 -13t-11 -9t-12 -3h-173q-10 0 -16 8t-5 17l3 19q-67 -51 -158 -51q-98 0 -148.5 64t-35.5 167l49 340q1 11 10 18t18 7h173q11 0 17 -8t5 -17l-42 -291q-11 -77 53 -78q25 1 45 13t33 35t17 55l39 266q1 11 10 18t18 7h173
q11 0 17 -8t5 -17z" />
    <glyph glyph-name="Uogonek" unicode="&#x172;" horiz-adv-x="759" 
d="M773 676h-128l-55 -382q-7 -53 -34 -93.5t-68 -62.5t-89 -22q-75 0 -116.5 49t-30.5 129l55 382h-127l-55 -382q-18 -128 50.5 -202.5t207.5 -74.5l29 1q22 1 26 -9t-3 -20l-7 -10q-47 -57 -53 -99q-5 -31 11 -44.5t43 -13.5q46 0 83 40l-11 15q-22 -18 -45 -18
q-16 0 -26 8q-17 13 -13 41q3 23 20 49.5t51 66.5q6 7 14 10q89 28 145.5 94.5t70.5 165.5zM827 701l-59 -407q-16 -111 -81.5 -191t-167.5 -114q-46 -56 -52 -79q9 4 21 19q22 27 40 2l37 -51q9 -13 -2 -29q-27 -37 -64 -58t-77 -21q-43 0 -74 26.5t-23 81.5q6 41 36 87
q-150 5 -228.5 93.5t-57.5 233.5l59 407q2 11 11 18t18 7h177q10 0 16 -8t5 -17l-59 -407q-8 -60 20.5 -94t83.5 -34q54 0 89.5 33t44.5 95l59 407q1 7 6 13t11 9t12 3h178q10 0 16 -8t5 -17z" />
    <glyph glyph-name="uogonek" unicode="&#x173;" horiz-adv-x="660" 
d="M577 25l70 489h-122l-36 -252q0 -1 -1 -1q-7 -39 -27.5 -70.5t-52.5 -50.5t-71 -20q-54 0 -81 35.5t-19 92.5l38 266h-122l-45 -315q-13 -85 26 -133t118 -48q107 0 167 84q7 9 14 11.5t12.5 -1.5t9.5 -9t7 -9l2 -5l-9 -64h21q21 0 25 -9.5t-3 -19.5l-7 -10
q-52 -64 -58 -106q-5 -31 11 -44.5t43 -13.5q46 0 83 40l-11 15q-23 -18 -45 -18q-16 0 -27 8q-17 14 -13 41q5 38 64 106q9 11 22 11h17zM594 -25h-28q-37 -44 -42 -65q10 4 22 19q22 27 40 2l37 -51q9 -13 -2 -29q-27 -37 -64 -58t-77 -21q-43 0 -74 26.5t-23 81.5
q6 43 41 95h-2q-10 0 -16 8t-5 17l3 20q-68 -52 -160 -52q-98 0 -149.5 64t-36.5 167l49 340q1 11 10 18t18 7h172q11 0 17 -8t5 -17l-42 -291q-11 -77 57 -78q36 1 61 25t34 68l40 276q1 11 10 18t18 7h172q11 0 17 -8t5 -17l-78 -539q-1 -7 -6 -13t-11 -9t-12 -3z" />
    <glyph glyph-name="Wcircumflex" unicode="&#x174;" horiz-adv-x="1081" 
d="M761 796l-61 101h-113l-90 -101h60l62 74q12 15 22.5 15t14.5 -8l4 -7l40 -74h61zM804 746h-124q-14 0 -20 11l-29 55l-45 -55q-9 -11 -22 -11h-124h-3.5t-6 1t-8 2.5t-6.5 4.5t-3.5 7t2.5 10.5t10 14.5l135 151q9 10 21 10h138q13 0 19 -10l91 -151q1 -1 1.5 -2.5
t2 -5.5t2 -8t-0.5 -8.5t-4 -7.5t-9.5 -5.5t-16.5 -2.5zM843 25l308 650h-128l-202 -496q-7 -17 -19 -17t-21 8l-8 9l-61 496h-135l-201 -496q-7 -17 -19 -17t-21 8l-8 9l-61 496h-136l119 -650h147l194 466q4 10 10.5 14t13 2t12 -5.5t8.5 -7.5l4 -4l58 -465h146zM853 -25
h-183q-8 0 -14 5.5t-7 13.5l-49 394l-165 -395q-2 -5 -6.5 -9.5t-10 -6.5t-10.5 -2h-184q-8 0 -14 5t-7 12l-128 700q0 1 -0.5 2t-0.5 4.5t0.5 6.5t2 7t4.5 6.5t9 4.5t13 2h190q6 0 11 -2.5t7.5 -7t3.5 -9.5l52 -423l171 423q3 9 11 14t15 5h174q6 0 11 -2.5t7.5 -7
t3.5 -9.5l52 -423l172 423q3 9 11 14t15 5h182h4t8 -1t8 -4.5t4 -10t-5 -17.5l-331 -700q-9 -17 -27 -17z" />
    </font>
</defs>
</svg>
