<svg xmlns="http://www.w3.org/2000/svg" viewBox="0 0 60 60" height="60" width="60"><title>icon 3</title>
    <g class="nc-icon-wrapper js-transition-icon" data-effect="scale" data-event="click">
        <g class="js-transition-icon__state" transform="translate(0 0) scale(1)" style="display: block;">
            <g>
                <g>
                    <path class="st0" d="M30.2,55.1c-13.7,0-25-11.3-25-25.2s11.3-25,25-25s25,11.3,25,25C55.3,43.8,44,55.1,30.2,55.1z M30.2,7.8
			c-12.3,0-22.1,9.8-22.1,22.1s10,22.3,22.3,22.3s22.3-10,22.3-22.3S42.4,7.8,30.2,7.8z" style="" fill=" #010002"/>
                </g>
                <g>
                    <path class="st0" d="M40.2,31.4H20.3c-0.8,0-1.5-0.6-1.5-1.5c0-0.8,0.6-1.5,1.5-1.5H40c0.8,0,1.5,0.6,1.5,1.5
			C41.5,30.7,40.8,31.4,40.2,31.4z" style="" fill=" #010002"/>
                </g>
                <g>
                    <path class="st0" d="M30.2,41.2c-0.8,0-1.5-0.6-1.5-1.5V20.1c0-0.8,0.6-1.5,1.5-1.5c0.8,0,1.5,0.6,1.5,1.5v19.7
			C31.6,40.6,31,41.2,30.2,41.2z" style="" fill=" #010002"/>
                </g>
            </g>
        </g>
        <g class="js-transition-icon__state" style="display: none;" transform="translate(5.999999999999998 5.999999999999998) scale(0.80)" aria-hidden="true">
            <g>
                <g>
                    <path class="st0" d="M48.1,54L6.4,12.3c-1.7-1.7-1.7-4.4,0-6.1s4.4-1.7,6.1,0l41.4,41.4c1.7,1.7,1.7,4.4,0,6.1
			C52.2,55.3,49.5,55.3,48.1,54z" style="" fill=" #010002"/>
                </g>
                <g>
                    <path class="st0" d="M6.4,53.6c-1.7-1.7-1.7-4.4,0-6.1L47.8,6.2c1.7-1.7,4.4-1.7,6.1,0s1.7,4.4,0,6.1L12.5,53.6
			C10.8,55.3,8.1,55.3,6.4,53.6z" style="" fill=" #010002"/>
                </g>
            </g>
        </g>
    </g>
    <script>
        !function(){"use strict";if(!window.requestAnimationFrame){var a=null;window.requestAnimationFrame=function(t,i){var e=(new Date).getTime();a||(a=e);var s=Math.max(0,16-(e-a)),n=window.setTimeout(function(){t(e+s)},s);return a=e+s,n}}function r(t,i,e,s){return 1>(t/=s/2)?e/2*t*t*t*t+i:-e/2*((t-=2)*t*t*t-2)+i}function e(t){return t?[1,0]:[0,1]}function t(t){this.element=t,this.svg=function t(i){var e=i.parentNode;if("svg"!==e.tagName)e=t(e);return e;}(this.element),this.getSize(),this.states=this.element.querySelectorAll(".js-transition-icon__state"),this.time={start:null,total:200},this.status={interacted:!1,animating:!1},this.animation={effect:this.element.getAttribute("data-effect"),event:this.element.getAttribute("data-event")},this.init()}t.prototype.getSize=function(){var t=this.svg.getAttribute("viewBox");this.size=t?{width:t.split(" ")[2],height:t.split(" ")[3]}:this.svg.getBoundingClientRect()},t.prototype.init=function(){var t=this;this.svg.addEventListener(t.animation.event,function(){t.status.animating||(t.status.animating=!0,window.requestAnimationFrame(t.triggerAnimation.bind(t)))})},t.prototype.triggerAnimation=function(t){var i=this.getProgress(t);this.animateIcon(i),this.checkProgress(i)},t.prototype.getProgress=function(t){return this.time.start||(this.time.start=t),t-this.time.start},t.prototype.checkProgress=function(t){if(this.time.total>t)window.requestAnimationFrame(this.triggerAnimation.bind(this));else{this.status={interacted:!this.status.interacted,animating:!1},this.time.start=null;var i=e(this.status.interacted);this.states[i[0]].removeAttribute("aria-hidden"),this.states[i[1]].setAttribute("aria-hidden","true")}},t.prototype.animateIcon=function(t){if(t>this.time.total){t=this.time.total;}if(0>t){t=0;};var i=e(this.status.interacted);this.states[i[0]].style.display=t>this.time.total/2?"none":"block",this.states[i[1]].style.display=t>this.time.total/2?"block":"none","scale"==this.animation.effect?this.scaleIcon(t,i[0],i[1]):this.rotateIcon(t,i[0],i[1])},t.prototype.scaleIcon=function(t,i,e){var s=r(Math.min(t,this.time.total/2),1,-.2,this.time.total/2).toFixed(2),n=r(Math.max(t-this.time.total/2,0),.2,-.2,this.time.total/2).toFixed(2);this.states[i].setAttribute("transform","translate("+this.size.width*(1-s)/2+" "+this.size.height*(1-s)/2+") scale("+s+")"),this.states[e].setAttribute("transform","translate("+this.size.width*n/2+" "+this.size.height*n/2+") scale("+(1-n)+")")},t.prototype.rotateIcon=function(t,i,e){var s=r(t,0,180,this.time.total).toFixed(2);this.states[i].setAttribute("transform","rotate(-"+s+" "+this.size.width/2+" "+this.size.height/2+")"),this.states[e].setAttribute("transform","rotate("+(180-s)+" "+this.size.width/2+" "+this.size.height/2+")")};var i=document.querySelectorAll(".js-transition-icon");if(i)for(var s=0;i.length>s;s++)new t(i[s])}();
    </script>
</svg>