<svg xmlns="http://www.w3.org/2000/svg" viewBox="0 0 60 60" height="60" width="60"><title>icon 6</title>
    <g class="nc-icon-wrapper js-transition-icon" data-effect="scale" data-event="click" fill="#111111">
        <g class="js-transition-icon__state" fill="#111111" style="display: block;" transform="translate(0 0) scale(1)">
            <path d="M54.6 52.5L42.4 40.3c3.3-3.7 5.2-8.6 5.2-14C47.6 14.6 38.1 5 26.3 5 14.6 5 5 14.6 5 26.3s9.6 21.3 21.3 21.3c5.3 0 10.2-2 14-5.2l12.2 12.2c.3.3.7.4 1.1.4s.8-.1 1.1-.4c.4-.6.4-1.6-.1-2.1zM8 26.3C8 16.2 16.2 8 26.3 8c10.1 0 18.3 8.2 18.3 18.3s-8.2 18.3-18.3 18.3C16.2 44.7 8 36.4 8 26.3z"/>
        </g>
        <g class="js-transition-icon__state" fill="#111111" style="display: none;" transform="translate(5.999999999999998 5.999999999999998) scale(0.80)" aria-hidden="true">
            <path d="M54.6 52.5L42.4 40.3c3.3-3.7 5.2-8.6 5.2-14C47.6 14.6 38.1 5 26.3 5 14.6 5 5 14.6 5 26.3s9.6 21.3 21.3 21.3c5.3 0 10.2-2 14-5.2l12.2 12.2c.3.3.7.4 1.1.4s.8-.1 1.1-.4c.4-.6.4-1.6-.1-2.1z"/>
        </g>
    </g>
    <script>
        !function(){"use strict";if(!window.requestAnimationFrame){var a=null;window.requestAnimationFrame=function(t,i){var e=(new Date).getTime();a||(a=e);var s=Math.max(0,16-(e-a)),n=window.setTimeout(function(){t(e+s)},s);return a=e+s,n}}function r(t,i,e,s){return 1>(t/=s/2)?e/2*t*t*t*t+i:-e/2*((t-=2)*t*t*t-2)+i}function e(t){return t?[1,0]:[0,1]}function t(t){this.element=t,this.svg=function t(i){var e=i.parentNode;if("svg"!==e.tagName)e=t(e);return e;}(this.element),this.getSize(),this.states=this.element.querySelectorAll(".js-transition-icon__state"),this.time={start:null,total:200},this.status={interacted:!1,animating:!1},this.animation={effect:this.element.getAttribute("data-effect"),event:this.element.getAttribute("data-event")},this.init()}t.prototype.getSize=function(){var t=this.svg.getAttribute("viewBox");this.size=t?{width:t.split(" ")[2],height:t.split(" ")[3]}:this.svg.getBoundingClientRect()},t.prototype.init=function(){var t=this;this.svg.addEventListener(t.animation.event,function(){t.status.animating||(t.status.animating=!0,window.requestAnimationFrame(t.triggerAnimation.bind(t)))})},t.prototype.triggerAnimation=function(t){var i=this.getProgress(t);this.animateIcon(i),this.checkProgress(i)},t.prototype.getProgress=function(t){return this.time.start||(this.time.start=t),t-this.time.start},t.prototype.checkProgress=function(t){if(this.time.total>t)window.requestAnimationFrame(this.triggerAnimation.bind(this));else{this.status={interacted:!this.status.interacted,animating:!1},this.time.start=null;var i=e(this.status.interacted);this.states[i[0]].removeAttribute("aria-hidden"),this.states[i[1]].setAttribute("aria-hidden","true")}},t.prototype.animateIcon=function(t){if(t>this.time.total){t=this.time.total;}if(0>t){t=0;};var i=e(this.status.interacted);this.states[i[0]].style.display=t>this.time.total/2?"none":"block",this.states[i[1]].style.display=t>this.time.total/2?"block":"none","scale"==this.animation.effect?this.scaleIcon(t,i[0],i[1]):this.rotateIcon(t,i[0],i[1])},t.prototype.scaleIcon=function(t,i,e){var s=r(Math.min(t,this.time.total/2),1,-.2,this.time.total/2).toFixed(2),n=r(Math.max(t-this.time.total/2,0),.2,-.2,this.time.total/2).toFixed(2);this.states[i].setAttribute("transform","translate("+this.size.width*(1-s)/2+" "+this.size.height*(1-s)/2+") scale("+s+")"),this.states[e].setAttribute("transform","translate("+this.size.width*n/2+" "+this.size.height*n/2+") scale("+(1-n)+")")},t.prototype.rotateIcon=function(t,i,e){var s=r(t,0,180,this.time.total).toFixed(2);this.states[i].setAttribute("transform","rotate(-"+s+" "+this.size.width/2+" "+this.size.height/2+")"),this.states[e].setAttribute("transform","rotate("+(180-s)+" "+this.size.width/2+" "+this.size.height/2+")")};var i=document.querySelectorAll(".js-transition-icon");if(i)for(var s=0;i.length>s;s++)new t(i[s])}();
    </script>
</svg>